M48
;DRILL file {KiCad (2015-06-25 BZR 5821)-product} date Fri 24 Jun 2016 17:30:43 CEST
;FORMAT={-:-/ absolute / metric / decimal}
FMAT,2
METRIC,TZ
T1C0.400
T2C0.762
T3C0.800
T4C0.813
T5C1.016
T6C1.321
T7C3.000
%
G90
G05
M71
T1
X155.Y-99.
X157.3Y-93.8
X160.2Y-101.4
X163.92Y-95.475
X164.654Y-98.375
X165.2Y-101.
X166.6Y-95.475
X168.7Y-95.8
X177.Y-95.1
X177.2Y-96.2
X179.1Y-110.3
X183.Y-85.
X187.742Y-104.742
X192.9Y-103.8
X194.5Y-87.
X196.7Y-123.7
X201.925Y-119.795
X202.Y-102.
X202.008Y-90.608
X207.6Y-105.9
X207.8Y-97.7
X210.3Y-111.9
X210.9Y-135.4
X211.1Y-132.1
X212.2Y-110.2
X212.3Y-114.
X213.4Y-88.6
X213.628Y-95.528
X217.1Y-90.2
X217.2Y-91.7
X217.9Y-92.6
X220.75Y-155.75
X225.2Y-97.5
X225.5Y-102.4
X226.4Y-100.1
X226.8Y-95.5
X227.25Y-132.
X227.3Y-118.
X227.5Y-117.
X228.6Y-91.4
X230.2Y-90.
X233.75Y-120.
X234.Y-101.9
X234.7Y-98.7
X235.Y-121.25
X236.Y-127.5
X236.3Y-146.
X236.5Y-133.
X236.6Y-142.6
X237.Y-115.
X237.2Y-93.9
X240.4Y-99.7
X243.625Y-122.75
X244.25Y-112.
X245.Y-101.8
X246.3Y-102.475
X247.455Y-109.296
X247.5Y-152.
X249.Y-120.
X253.923Y-102.475
X256.2Y-102.4
X258.5Y-111.
X266.Y-121.4
X267.1Y-120.
T2
X166.65Y-112.11
X166.65Y-114.65
X166.65Y-117.19
X166.65Y-119.73
X166.65Y-122.27
X166.65Y-124.81
X166.65Y-127.35
X166.65Y-129.89
X166.65Y-136.11
X166.65Y-138.65
X166.65Y-141.19
X166.65Y-143.73
X166.65Y-146.27
X166.65Y-148.81
X166.65Y-151.35
X166.65Y-153.89
X179.35Y-112.11
X179.35Y-114.65
X179.35Y-117.19
X179.35Y-119.73
X179.35Y-122.27
X179.35Y-124.81
X179.35Y-127.35
X179.35Y-129.89
X179.35Y-136.11
X179.35Y-138.65
X179.35Y-141.19
X179.35Y-143.73
X179.35Y-146.27
X179.35Y-148.81
X179.35Y-151.35
X179.35Y-153.89
T3
X172.Y-129.
X172.Y-150.
X174.54Y-129.
X174.54Y-150.
X217.46Y-139.
X220.Y-139.
T4
X194.405Y-107.474
X194.405Y-110.014
X194.405Y-112.554
X194.405Y-115.094
X194.659Y-118.65
X194.659Y-121.19
X194.659Y-123.73
X194.659Y-126.27
X194.659Y-130.334
X194.659Y-132.874
X194.659Y-135.414
X194.659Y-137.954
X202.025Y-107.474
X202.025Y-110.014
X202.025Y-112.554
X202.025Y-115.094
X202.279Y-118.65
X202.279Y-121.19
X202.279Y-123.73
X202.279Y-126.27
X202.279Y-130.334
X202.279Y-132.874
X202.279Y-135.414
X202.279Y-137.954
T5
X149.Y-87.38
X149.Y-89.92
X149.Y-92.46
X149.Y-95.
X149.Y-99.38
X149.Y-101.92
X149.Y-104.46
X149.Y-107.
X150.Y-117.38
X150.Y-119.92
X150.Y-122.46
X150.Y-125.
X150.Y-141.38
X150.Y-143.92
X150.Y-146.46
X150.Y-149.
X173.84Y-87.
X176.38Y-87.
X176.468Y-98.822
X176.468Y-101.362
X178.92Y-87.
X181.Y-92.25
X181.46Y-87.
X181.802Y-99.076
X181.802Y-101.616
X184.Y-87.
X186.54Y-87.
X189.08Y-87.
X191.62Y-87.
X194.5Y-99.
X197.04Y-99.
X198.Y-87.
X199.58Y-99.
X200.54Y-87.
X203.08Y-87.
X209.Y-87.
X211.54Y-87.
X214.08Y-87.
X216.62Y-87.
X222.Y-87.
X224.54Y-87.
X227.08Y-87.
X229.62Y-87.
X234.Y-154.
X236.Y-87.
X236.54Y-154.
X238.54Y-87.
X240.75Y-149.
X241.08Y-87.
X241.5Y-154.
X243.29Y-149.
X243.62Y-87.
X244.04Y-154.
X245.83Y-149.
X251.Y-92.
X251.Y-94.54
X252.Y-112.
X252.Y-114.54
X252.Y-117.08
X252.Y-119.62
X252.Y-122.16
X252.Y-124.7
X252.Y-127.24
X252.Y-129.78
X261.Y-87.
X261.Y-89.54
X261.Y-92.08
X261.Y-94.62
X261.Y-97.16
X261.Y-99.7
X261.Y-102.24
X261.Y-104.78
X261.Y-107.32
X261.Y-109.86
X261.Y-112.4
X261.Y-114.94
X261.Y-117.48
X261.Y-120.02
X261.Y-122.56
X261.Y-125.1
X261.Y-127.64
X261.Y-130.18
X261.Y-132.72
X261.Y-135.26
X261.Y-137.8
X261.Y-140.34
X261.Y-142.88
X263.54Y-87.
X263.54Y-89.54
X263.54Y-92.08
X263.54Y-94.62
X263.54Y-97.16
X263.54Y-99.7
X263.54Y-102.24
X263.54Y-104.78
X263.54Y-107.32
X263.54Y-109.86
X263.54Y-112.4
X263.54Y-114.94
X263.54Y-117.48
X263.54Y-120.02
X263.54Y-122.56
X263.54Y-125.1
X263.54Y-127.64
X263.54Y-130.18
X263.54Y-132.72
X263.54Y-135.26
X263.54Y-137.8
X263.54Y-140.34
X263.54Y-142.88
T6
X154.Y-114.
X154.Y-119.
X154.Y-124.
X154.Y-129.
X154.Y-138.
X154.Y-143.
X154.Y-148.
X154.Y-153.
X188.Y-151.
X193.Y-151.
X200.Y-151.
X205.Y-151.
X210.Y-151.
X220.Y-151.
X225.Y-151.
T7
X173.25Y-139.5
X187.Y-95.5
X245.5Y-92.
X248.25Y-134.25
T0
M30
