G04 #@! TF.FileFunction,Copper,L2,Bot,Signal*
%FSLAX46Y46*%
G04 Gerber Fmt 4.6, Leading zero omitted, Abs format (unit mm)*
G04 Created by KiCad (PCBNEW (2015-06-25 BZR 5821)-product) date Wed 15 Jun 2016 13:51:42 CEST*
%MOMM*%
G01*
G04 APERTURE LIST*
%ADD10C,0.100000*%
%ADD11R,1.727200X2.032000*%
%ADD12O,1.727200X2.032000*%
%ADD13O,1.981200X3.962400*%
%ADD14C,1.501140*%
%ADD15R,2.032000X2.032000*%
%ADD16O,2.032000X2.032000*%
%ADD17R,1.727200X1.727200*%
%ADD18O,1.727200X1.727200*%
%ADD19O,3.962400X1.981200*%
%ADD20R,1.397000X1.397000*%
%ADD21C,1.397000*%
%ADD22R,2.032000X1.727200*%
%ADD23O,2.032000X1.727200*%
%ADD24C,1.524000*%
%ADD25C,0.600000*%
%ADD26C,0.250000*%
%ADD27C,1.000000*%
%ADD28C,0.254000*%
G04 APERTURE END LIST*
D10*
D11*
X173840000Y-87000000D03*
D12*
X176380000Y-87000000D03*
X178920000Y-87000000D03*
X181460000Y-87000000D03*
X184000000Y-87000000D03*
X186540000Y-87000000D03*
X189080000Y-87000000D03*
X191620000Y-87000000D03*
D13*
X200000000Y-151000000D03*
X205000000Y-151000000D03*
X210000000Y-151000000D03*
X188000000Y-151000000D03*
X193000000Y-151000000D03*
D11*
X236000000Y-87000000D03*
D12*
X238540000Y-87000000D03*
X241080000Y-87000000D03*
X243620000Y-87000000D03*
D14*
X174540000Y-150000000D03*
X172000000Y-150000000D03*
X174540000Y-129000000D03*
X172000000Y-129000000D03*
D15*
X234000000Y-154000000D03*
D16*
X236540000Y-154000000D03*
D15*
X181802000Y-99076000D03*
D16*
X181802000Y-101616000D03*
D15*
X176468000Y-98822000D03*
D16*
X176468000Y-101362000D03*
D13*
X220000000Y-151000000D03*
X225000000Y-151000000D03*
D11*
X194502000Y-99076000D03*
D12*
X197042000Y-99076000D03*
X199582000Y-99076000D03*
D17*
X261000000Y-87000000D03*
D18*
X263540000Y-87000000D03*
X261000000Y-89540000D03*
X263540000Y-89540000D03*
X261000000Y-92080000D03*
X263540000Y-92080000D03*
X261000000Y-94620000D03*
X263540000Y-94620000D03*
X261000000Y-97160000D03*
X263540000Y-97160000D03*
X261000000Y-99700000D03*
X263540000Y-99700000D03*
X261000000Y-102240000D03*
X263540000Y-102240000D03*
X261000000Y-104780000D03*
X263540000Y-104780000D03*
X261000000Y-107320000D03*
X263540000Y-107320000D03*
X261000000Y-109860000D03*
X263540000Y-109860000D03*
X261000000Y-112400000D03*
X263540000Y-112400000D03*
X261000000Y-114940000D03*
X263540000Y-114940000D03*
X261000000Y-117480000D03*
X263540000Y-117480000D03*
X261000000Y-120020000D03*
X263540000Y-120020000D03*
X261000000Y-122560000D03*
X263540000Y-122560000D03*
X261000000Y-125100000D03*
X263540000Y-125100000D03*
X261000000Y-127640000D03*
X263540000Y-127640000D03*
X261000000Y-130180000D03*
X263540000Y-130180000D03*
X261000000Y-132720000D03*
X263540000Y-132720000D03*
X261000000Y-135260000D03*
X263540000Y-135260000D03*
X261000000Y-137800000D03*
X263540000Y-137800000D03*
X261000000Y-140340000D03*
X263540000Y-140340000D03*
X261000000Y-142880000D03*
X263540000Y-142880000D03*
D11*
X198000000Y-87000000D03*
D12*
X200540000Y-87000000D03*
X203080000Y-87000000D03*
D19*
X154000000Y-153000000D03*
X154000000Y-148000000D03*
X154000000Y-138000000D03*
X154000000Y-143000000D03*
X154000000Y-129000000D03*
X154000000Y-124000000D03*
X154000000Y-114000000D03*
X154000000Y-119000000D03*
D20*
X202025000Y-115094000D03*
D21*
X202025000Y-112554000D03*
X202025000Y-110014000D03*
X202025000Y-107474000D03*
X194405000Y-107474000D03*
X194405000Y-110014000D03*
X194405000Y-112554000D03*
X194405000Y-115094000D03*
D20*
X202279000Y-137954000D03*
D21*
X202279000Y-135414000D03*
X202279000Y-132874000D03*
X202279000Y-130334000D03*
X194659000Y-130334000D03*
X194659000Y-132874000D03*
X194659000Y-135414000D03*
X194659000Y-137954000D03*
D20*
X202279000Y-126270000D03*
D21*
X202279000Y-123730000D03*
X202279000Y-121190000D03*
X202279000Y-118650000D03*
X194659000Y-118650000D03*
X194659000Y-121190000D03*
X194659000Y-123730000D03*
X194659000Y-126270000D03*
D22*
X149000000Y-95000000D03*
D23*
X149000000Y-92460000D03*
X149000000Y-89920000D03*
X149000000Y-87380000D03*
D22*
X149000000Y-107000000D03*
D23*
X149000000Y-104460000D03*
X149000000Y-101920000D03*
X149000000Y-99380000D03*
D11*
X209000000Y-87000000D03*
D12*
X211540000Y-87000000D03*
X214080000Y-87000000D03*
X216620000Y-87000000D03*
D11*
X222000000Y-87000000D03*
D12*
X224540000Y-87000000D03*
X227080000Y-87000000D03*
X229620000Y-87000000D03*
D24*
X179350000Y-153890000D03*
X179350000Y-151350000D03*
X179350000Y-148810000D03*
X179350000Y-146270000D03*
X179350000Y-143730000D03*
X179350000Y-141190000D03*
X179350000Y-138650000D03*
X179350000Y-136110000D03*
X166650000Y-136110000D03*
X166650000Y-138650000D03*
X166650000Y-141190000D03*
X166650000Y-143730000D03*
X166650000Y-146270000D03*
X166650000Y-148810000D03*
X166650000Y-151350000D03*
X166650000Y-153890000D03*
X179350000Y-129890000D03*
X179350000Y-127350000D03*
X179350000Y-124810000D03*
X179350000Y-122270000D03*
X179350000Y-119730000D03*
X179350000Y-117190000D03*
X179350000Y-114650000D03*
X179350000Y-112110000D03*
X166650000Y-112110000D03*
X166650000Y-114650000D03*
X166650000Y-117190000D03*
X166650000Y-119730000D03*
X166650000Y-122270000D03*
X166650000Y-124810000D03*
X166650000Y-127350000D03*
X166650000Y-129890000D03*
D14*
X217460000Y-139000000D03*
X220000000Y-139000000D03*
D15*
X251000000Y-92000000D03*
D16*
X251000000Y-94540000D03*
D22*
X252000000Y-112000000D03*
D23*
X252000000Y-114540000D03*
X252000000Y-117080000D03*
X252000000Y-119620000D03*
X252000000Y-122160000D03*
X252000000Y-124700000D03*
X252000000Y-127240000D03*
X252000000Y-129780000D03*
D22*
X150000000Y-149000000D03*
D23*
X150000000Y-146460000D03*
X150000000Y-143920000D03*
X150000000Y-141380000D03*
D22*
X150000000Y-125000000D03*
D23*
X150000000Y-122460000D03*
X150000000Y-119920000D03*
X150000000Y-117380000D03*
D25*
X240400000Y-99700000D03*
X234000000Y-101900000D03*
X210300000Y-111900000D03*
X212200000Y-110200000D03*
X202000000Y-102000000D03*
X166600000Y-95474980D03*
X210900000Y-135400000D03*
X211100000Y-132100000D03*
X165200000Y-101000000D03*
X253922576Y-102474980D03*
X230200000Y-90000000D03*
X217100000Y-90200000D03*
X192900000Y-103800000D03*
X225200000Y-97500000D03*
X226400000Y-100100000D03*
X226800000Y-95500000D03*
X179100000Y-110300000D03*
X266000000Y-121400000D03*
X267100000Y-120000000D03*
X202300000Y-90900000D03*
X207800000Y-97700000D03*
X207600000Y-105900000D03*
X187741956Y-104741956D03*
X231500000Y-143000000D03*
X246900000Y-151500000D03*
X245000000Y-101800000D03*
X236300000Y-146000000D03*
X236600000Y-142600000D03*
X225500000Y-102400000D03*
X212300000Y-114000000D03*
X256200000Y-102400000D03*
X228600000Y-91400000D03*
X160200000Y-101400000D03*
X168700000Y-95800000D03*
X177000000Y-95100000D03*
X217200000Y-91700000D03*
X237200000Y-93900000D03*
X246300000Y-102474980D03*
X248500000Y-108200000D03*
X234700000Y-98700000D03*
X217900000Y-92600000D03*
X177200000Y-96200000D03*
X213400000Y-88600000D03*
X213628365Y-95528365D03*
X196700000Y-123700000D03*
X201925003Y-119795040D03*
X227300000Y-118000000D03*
X227500000Y-117000000D03*
X164653830Y-98375030D03*
X157300000Y-93800000D03*
X163920443Y-95474980D03*
X155000000Y-99000000D03*
D26*
X234500000Y-97700000D02*
X238400000Y-97700000D01*
X238400000Y-97700000D02*
X240400000Y-99700000D01*
X233700000Y-98500000D02*
X234500000Y-97700000D01*
X233700000Y-101600000D02*
X233700000Y-98500000D01*
X234000000Y-101900000D02*
X233700000Y-101600000D01*
X212200000Y-110200000D02*
X210500000Y-111900000D01*
X210500000Y-111900000D02*
X210300000Y-111900000D01*
X188900000Y-106000000D02*
X192900000Y-102000000D01*
X192900000Y-102000000D02*
X202000000Y-102000000D01*
X186800000Y-106000000D02*
X188900000Y-106000000D01*
X186400000Y-105600000D02*
X186800000Y-106000000D01*
X186400000Y-103200000D02*
X186400000Y-105600000D01*
X192113390Y-97486610D02*
X186400000Y-103200000D01*
X198000000Y-91271658D02*
X192113390Y-97158268D01*
X198000000Y-87000000D02*
X198000000Y-91271658D01*
X192113390Y-97158268D02*
X192113390Y-97486610D01*
X166600000Y-95899244D02*
X166600000Y-95474980D01*
X166600000Y-99600000D02*
X166600000Y-95899244D01*
X165200000Y-101000000D02*
X166600000Y-99600000D01*
X211100000Y-132100000D02*
X211100000Y-135200000D01*
X211100000Y-135200000D02*
X210900000Y-135400000D01*
X194659000Y-118650000D02*
X194659000Y-116354782D01*
X194659000Y-116354782D02*
X195428501Y-115585281D01*
X195428501Y-115585281D02*
X195428501Y-113577501D01*
X195428501Y-113577501D02*
X195103499Y-113252499D01*
X195103499Y-113252499D02*
X194405000Y-112554000D01*
X195682501Y-119673501D02*
X195682501Y-122706499D01*
X194659000Y-118650000D02*
X195682501Y-119673501D01*
X195682501Y-122706499D02*
X195357499Y-123031501D01*
X195357499Y-123031501D02*
X194659000Y-123730000D01*
X194659000Y-130334000D02*
X195682501Y-131357501D01*
X195682501Y-131357501D02*
X195682501Y-134390499D01*
X195682501Y-134390499D02*
X195357499Y-134715501D01*
X195357499Y-134715501D02*
X194659000Y-135414000D01*
X194659000Y-135414000D02*
X195646828Y-135414000D01*
X195646828Y-135414000D02*
X200000000Y-139767172D01*
X200000000Y-139767172D02*
X200000000Y-148768800D01*
X200000000Y-148768800D02*
X200000000Y-151000000D01*
X261000000Y-89540000D02*
X253922576Y-96617424D01*
X253922576Y-102050716D02*
X253922576Y-102474980D01*
X253922576Y-96617424D02*
X253922576Y-102050716D01*
X234886400Y-87000000D02*
X231771975Y-90114425D01*
X230624264Y-90000000D02*
X230738689Y-90114425D01*
X231771975Y-90114425D02*
X231486400Y-90400000D01*
X230200000Y-90000000D02*
X230624264Y-90000000D01*
X230738689Y-90114425D02*
X231771975Y-90114425D01*
X203200000Y-103800000D02*
X216800000Y-90200000D01*
X216800000Y-90200000D02*
X217100000Y-90200000D01*
X192900000Y-103800000D02*
X203200000Y-103800000D01*
X226400000Y-100100000D02*
X226400000Y-98700000D01*
X226400000Y-98700000D02*
X225200000Y-97500000D01*
X231486400Y-90400000D02*
X231486400Y-90813600D01*
X231486400Y-90813600D02*
X226800000Y-95500000D01*
X236000000Y-87000000D02*
X234886400Y-87000000D01*
X179350000Y-141190000D02*
X178262999Y-140102999D01*
X178262999Y-140102999D02*
X178262999Y-132585763D01*
X178262999Y-132585763D02*
X180437001Y-130411761D01*
X180437001Y-130411761D02*
X180437001Y-119720629D01*
X180437001Y-119720629D02*
X180427630Y-119730000D01*
X180427630Y-119730000D02*
X179350000Y-119730000D01*
X179350000Y-143730000D02*
X179350000Y-141190000D01*
X179350000Y-117190000D02*
X179350000Y-119730000D01*
X178262999Y-118642999D02*
X178262999Y-111137001D01*
X179350000Y-119730000D02*
X178262999Y-118642999D01*
X178262999Y-111137001D02*
X179100000Y-110300000D01*
D27*
X234000000Y-154000000D02*
X231984000Y-154000000D01*
X205000000Y-150009400D02*
X205000000Y-151000000D01*
X231984000Y-154000000D02*
X226002800Y-148018800D01*
X226002800Y-148018800D02*
X206990600Y-148018800D01*
X206990600Y-148018800D02*
X205000000Y-150009400D01*
X175990571Y-105890571D02*
X174751999Y-104651999D01*
X174751999Y-104651999D02*
X174751999Y-93860401D01*
X174751999Y-93860401D02*
X181460000Y-87152400D01*
X181460000Y-87152400D02*
X181460000Y-87000000D01*
X201590600Y-155400000D02*
X178696238Y-155400000D01*
X178696238Y-155400000D02*
X175990571Y-152694333D01*
X175990571Y-152694333D02*
X175990571Y-105890571D01*
X205000000Y-151000000D02*
X205000000Y-151990600D01*
X205000000Y-151990600D02*
X201590600Y-155400000D01*
D26*
X267000000Y-87100000D02*
X267000000Y-119900000D01*
X264400000Y-84500000D02*
X267000000Y-87100000D01*
X184000000Y-85734000D02*
X185234000Y-84500000D01*
X267000000Y-119900000D02*
X267100000Y-120000000D01*
X184000000Y-87000000D02*
X184000000Y-85734000D01*
X185234000Y-84500000D02*
X264400000Y-84500000D01*
X266000000Y-121400000D02*
X264840000Y-122560000D01*
X264840000Y-122560000D02*
X263540000Y-122560000D01*
X261863599Y-138663599D02*
X261000000Y-137800000D01*
X264110529Y-138988601D02*
X262188601Y-138988601D01*
X266641518Y-121701276D02*
X266000000Y-122342794D01*
X266000000Y-120381177D02*
X266641518Y-121022695D01*
X266000000Y-86800000D02*
X266000000Y-120381177D01*
X262188601Y-138988601D02*
X261863599Y-138663599D01*
X266000000Y-122342794D02*
X266000000Y-137099130D01*
X266641518Y-121022695D02*
X266641518Y-121701276D01*
X186540000Y-86847600D02*
X188437590Y-84950010D01*
X186540000Y-87000000D02*
X186540000Y-86847600D01*
X264150010Y-84950010D02*
X266000000Y-86800000D01*
X266000000Y-137099130D02*
X264110529Y-138988601D01*
X188437590Y-84950010D02*
X264150010Y-84950010D01*
X189080000Y-86847600D02*
X189080000Y-87000000D01*
X190268610Y-85658990D02*
X189080000Y-86847600D01*
X265549990Y-87250860D02*
X263958120Y-85658990D01*
X263540000Y-120020000D02*
X265549990Y-118010010D01*
X263958120Y-85658990D02*
X190268610Y-85658990D01*
X265549990Y-118010010D02*
X265549990Y-87250860D01*
X207800000Y-97700000D02*
X202300000Y-92200000D01*
X202300000Y-92200000D02*
X202300000Y-90900000D01*
X199900000Y-137557002D02*
X199900000Y-113164218D01*
X199900000Y-113164218D02*
X201533719Y-111530499D01*
X201533719Y-111530499D02*
X201969501Y-111530499D01*
X201969501Y-111530499D02*
X207600000Y-105900000D01*
X263540000Y-137800000D02*
X262188601Y-136448601D01*
X205766401Y-136448601D02*
X203237501Y-138977501D01*
X262188601Y-136448601D02*
X205766401Y-136448601D01*
X203237501Y-138977501D02*
X201320499Y-138977501D01*
X201320499Y-138977501D02*
X199900000Y-137557002D01*
D27*
X192938399Y-99545513D02*
X188041955Y-104441957D01*
X200540000Y-91826740D02*
X195006741Y-97359999D01*
X195006741Y-97359999D02*
X193078399Y-97359999D01*
X193078399Y-97359999D02*
X192938399Y-97499999D01*
X188041955Y-104441957D02*
X187741956Y-104741956D01*
X200540000Y-89898398D02*
X200540000Y-91826740D01*
X192938399Y-97499999D02*
X192938399Y-99545513D01*
X216620000Y-87000000D02*
X216620000Y-87152400D01*
X216620000Y-87152400D02*
X213874002Y-89898398D01*
X213874002Y-89898398D02*
X200540000Y-89898398D01*
D26*
X243900000Y-148500000D02*
X237000000Y-148500000D01*
X237000000Y-148500000D02*
X231500000Y-143000000D01*
X246900000Y-151500000D02*
X243900000Y-148500000D01*
D27*
X251000000Y-94540000D02*
X251000000Y-95800000D01*
X251000000Y-95800000D02*
X245000000Y-101800000D01*
X200540000Y-89898398D02*
X200540000Y-89016000D01*
X200540000Y-89016000D02*
X200540000Y-87000000D01*
D26*
X236600000Y-142600000D02*
X236600000Y-145700000D01*
X236600000Y-145700000D02*
X236300000Y-146000000D01*
X254200000Y-103200000D02*
X256348601Y-101051399D01*
X256348601Y-101051399D02*
X262351399Y-101051399D01*
X262351399Y-101051399D02*
X262676401Y-101376401D01*
X262676401Y-101376401D02*
X263540000Y-102240000D01*
X226300000Y-103200000D02*
X254200000Y-103200000D01*
X225500000Y-102400000D02*
X226300000Y-103200000D01*
X202025000Y-116752808D02*
X202025000Y-115094000D01*
X204086499Y-122213501D02*
X201787719Y-122213501D01*
X212300000Y-114000000D02*
X204086499Y-122213501D01*
X201787719Y-122213501D02*
X200805488Y-121231269D01*
X200805488Y-121231269D02*
X200805490Y-117972318D01*
X200805490Y-117972318D02*
X202025000Y-116752808D01*
X256200000Y-102400000D02*
X260840000Y-102400000D01*
X260840000Y-102400000D02*
X261000000Y-102240000D01*
X202279000Y-126270000D02*
X202279000Y-125321500D01*
X202279000Y-125321500D02*
X222820500Y-104780000D01*
X222820500Y-104780000D02*
X259778686Y-104780000D01*
X259778686Y-104780000D02*
X261000000Y-104780000D01*
X262351399Y-103591399D02*
X262676401Y-103916401D01*
X255245011Y-103591399D02*
X262351399Y-103591399D01*
X254986400Y-103850010D02*
X255245011Y-103591399D01*
X202279000Y-121190000D02*
X219618990Y-103850010D01*
X219618990Y-103850010D02*
X254986400Y-103850010D01*
X262676401Y-103916401D02*
X263540000Y-104780000D01*
X202279000Y-137954000D02*
X203227500Y-137954000D01*
X203227500Y-137954000D02*
X233861500Y-107320000D01*
X233861500Y-107320000D02*
X259778686Y-107320000D01*
X259778686Y-107320000D02*
X261000000Y-107320000D01*
X202279000Y-132874000D02*
X203266828Y-132874000D01*
X203266828Y-132874000D02*
X230009429Y-106131399D01*
X230009429Y-106131399D02*
X262351399Y-106131399D01*
X262676401Y-106456401D02*
X263540000Y-107320000D01*
X262351399Y-106131399D02*
X262676401Y-106456401D01*
X186313599Y-106650009D02*
X184900000Y-105236410D01*
X177424264Y-95100000D02*
X177000000Y-95100000D01*
X184900000Y-105236410D02*
X184900000Y-98700000D01*
X188886401Y-106650009D02*
X186313599Y-106650009D01*
X189969444Y-105566966D02*
X188886401Y-106650009D01*
X201069444Y-105566966D02*
X189969444Y-105566966D01*
X184900000Y-98700000D02*
X181300000Y-95100000D01*
X202386400Y-104250010D02*
X201069444Y-105566966D01*
X215936410Y-91700000D02*
X203386400Y-104250010D01*
X203386400Y-104250010D02*
X202386400Y-104250010D01*
X217200000Y-91700000D02*
X215936410Y-91700000D01*
X181300000Y-95100000D02*
X177424264Y-95100000D01*
X226174999Y-95800001D02*
X226174999Y-94249265D01*
X228600000Y-91824264D02*
X228600000Y-91400000D01*
X226499999Y-96125001D02*
X226174999Y-95800001D01*
X234974999Y-96125001D02*
X226499999Y-96125001D01*
X226174999Y-94249265D02*
X228600000Y-91824264D01*
X237200000Y-93900000D02*
X234974999Y-96125001D01*
X166300000Y-102000000D02*
X160800000Y-102000000D01*
X160800000Y-102000000D02*
X160200000Y-101400000D01*
X167400000Y-100900000D02*
X166300000Y-102000000D01*
X167400000Y-97100000D02*
X167400000Y-100900000D01*
X168700000Y-95800000D02*
X167400000Y-97100000D01*
X245700745Y-102649971D02*
X245875736Y-102474980D01*
X245875736Y-102474980D02*
X246300000Y-102474980D01*
X234700000Y-98700000D02*
X238649971Y-102649971D01*
X238649971Y-102649971D02*
X245700745Y-102649971D01*
X215672820Y-92600000D02*
X217475736Y-92600000D01*
X202599980Y-104700020D02*
X203572800Y-104700020D01*
X201283024Y-106016976D02*
X202599980Y-104700020D01*
X190155844Y-106016976D02*
X201283024Y-106016976D01*
X203572800Y-104700020D02*
X215672820Y-92600000D01*
X189072801Y-107100019D02*
X190155844Y-106016976D01*
X184449990Y-105422810D02*
X186127199Y-107100019D01*
X186127199Y-107100019D02*
X189072801Y-107100019D01*
X184449990Y-99106988D02*
X184449990Y-105422810D01*
X181543002Y-96200000D02*
X184449990Y-99106988D01*
X217475736Y-92600000D02*
X217900000Y-92600000D01*
X177200000Y-96200000D02*
X181543002Y-96200000D01*
X248500000Y-108200000D02*
X250664602Y-108200000D01*
X250664602Y-108200000D02*
X256053203Y-113588601D01*
X256053203Y-113588601D02*
X262351399Y-113588601D01*
X262351399Y-113588601D02*
X262676401Y-113263599D01*
X262676401Y-113263599D02*
X263540000Y-112400000D01*
X213400000Y-88600000D02*
X210447600Y-88600000D01*
X210447600Y-88600000D02*
X209000000Y-87152400D01*
X209000000Y-87152400D02*
X209000000Y-87000000D01*
X178588001Y-130651999D02*
X179350000Y-129890000D01*
X177649990Y-131590010D02*
X178588001Y-130651999D01*
X177649990Y-152189990D02*
X177649990Y-131590010D01*
X179350000Y-153890000D02*
X177649990Y-152189990D01*
X188985999Y-109674999D02*
X193706501Y-114395501D01*
X178799999Y-109674999D02*
X188985999Y-109674999D01*
X177274999Y-111199999D02*
X178799999Y-109674999D01*
X179350000Y-129890000D02*
X177274999Y-127814999D01*
X193706501Y-114395501D02*
X194405000Y-115094000D01*
X177274999Y-127814999D02*
X177274999Y-111199999D01*
X179350000Y-138650000D02*
X193963000Y-138650000D01*
X193963000Y-138650000D02*
X194659000Y-137954000D01*
X213328366Y-95828364D02*
X213628365Y-95528365D01*
X204006700Y-105150030D02*
X213328366Y-95828364D01*
X202833882Y-105150030D02*
X204006700Y-105150030D01*
X196700000Y-111283912D02*
X202833882Y-105150030D01*
X196700000Y-118927180D02*
X196700000Y-111283912D01*
X196400001Y-119227179D02*
X196700000Y-118927180D01*
X196400001Y-123400001D02*
X196400001Y-119227179D01*
X196700000Y-123700000D02*
X196400001Y-123400001D01*
X179350000Y-136110000D02*
X191423000Y-136110000D01*
X191423000Y-136110000D02*
X194659000Y-132874000D01*
X197150010Y-119113580D02*
X196949991Y-119313599D01*
X196949991Y-119313599D02*
X196949991Y-123024989D01*
X201533719Y-108990499D02*
X197150010Y-113374208D01*
X197150010Y-113374208D02*
X197150010Y-119113580D01*
X195646828Y-126270000D02*
X194659000Y-126270000D01*
X224540000Y-87152400D02*
X202701901Y-108990499D01*
X197325001Y-123399999D02*
X197325001Y-124591827D01*
X196949991Y-123024989D02*
X197325001Y-123399999D01*
X224540000Y-87000000D02*
X224540000Y-87152400D01*
X197325001Y-124591827D02*
X195646828Y-126270000D01*
X202701901Y-108990499D02*
X201533719Y-108990499D01*
X179350000Y-114650000D02*
X190970000Y-126270000D01*
X190970000Y-126270000D02*
X194659000Y-126270000D01*
X201255499Y-119125536D02*
X201625004Y-119495041D01*
X201625004Y-119495041D02*
X201925003Y-119795040D01*
X201255499Y-118158719D02*
X201255499Y-119125536D01*
X227080000Y-92334218D02*
X201255499Y-118158719D01*
X227080000Y-87000000D02*
X227080000Y-92334218D01*
X179350000Y-112110000D02*
X188430000Y-121190000D01*
X188430000Y-121190000D02*
X194659000Y-121190000D01*
X264728601Y-116909471D02*
X264403599Y-116584469D01*
X264728601Y-118050529D02*
X264728601Y-116909471D01*
X264110529Y-118668601D02*
X264728601Y-118050529D01*
X260429471Y-118668601D02*
X264110529Y-118668601D01*
X264403599Y-116584469D02*
X264403599Y-115803599D01*
X260060869Y-118299999D02*
X260429471Y-118668601D01*
X227599999Y-118299999D02*
X260060869Y-118299999D01*
X264403599Y-115803599D02*
X263540000Y-114940000D01*
X227300000Y-118000000D02*
X227599999Y-118299999D01*
X227500000Y-117000000D02*
X228608610Y-115891390D01*
X228608610Y-115891390D02*
X260192260Y-115891390D01*
X260192260Y-115891390D02*
X260592269Y-116291399D01*
X262351399Y-116291399D02*
X262676401Y-116616401D01*
X260592269Y-116291399D02*
X262351399Y-116291399D01*
X262676401Y-116616401D02*
X263540000Y-117480000D01*
X164653830Y-97950766D02*
X164653830Y-98375030D01*
X163170465Y-93800000D02*
X164653830Y-95283365D01*
X157300000Y-93800000D02*
X163170465Y-93800000D01*
X164653830Y-95283365D02*
X164653830Y-97950766D01*
X160395423Y-99000000D02*
X163620444Y-95774979D01*
X155000000Y-99000000D02*
X160395423Y-99000000D01*
X163620444Y-95774979D02*
X163920443Y-95474980D01*
D27*
X154000000Y-153000000D02*
X154990600Y-153000000D01*
X154990600Y-153000000D02*
X159180600Y-148810000D01*
X159180600Y-148810000D02*
X166650000Y-148810000D01*
D28*
G36*
X183462599Y-85196599D02*
X183297852Y-85443161D01*
X183280983Y-85527968D01*
X182940330Y-85755585D01*
X182730000Y-86070366D01*
X182519670Y-85755585D01*
X182033489Y-85430729D01*
X181460000Y-85316655D01*
X180886511Y-85430729D01*
X180400330Y-85755585D01*
X180190000Y-86070366D01*
X179979670Y-85755585D01*
X179493489Y-85430729D01*
X178920000Y-85316655D01*
X178346511Y-85430729D01*
X177860330Y-85755585D01*
X177653539Y-86065069D01*
X177282036Y-85649268D01*
X176754791Y-85395291D01*
X176739026Y-85392642D01*
X176507000Y-85513783D01*
X176507000Y-86873000D01*
X176527000Y-86873000D01*
X176527000Y-87127000D01*
X176507000Y-87127000D01*
X176507000Y-88486217D01*
X176739026Y-88607358D01*
X176754791Y-88604709D01*
X177282036Y-88350732D01*
X177653539Y-87934931D01*
X177860330Y-88244415D01*
X178346511Y-88569271D01*
X178422819Y-88584449D01*
X173949433Y-93057835D01*
X173703396Y-93426055D01*
X173616999Y-93860401D01*
X173616999Y-104651999D01*
X173703396Y-105086345D01*
X173928215Y-105422810D01*
X173949433Y-105454565D01*
X174855571Y-106360703D01*
X174855571Y-127641601D01*
X174744966Y-127602233D01*
X174194462Y-127630195D01*
X173815735Y-127787069D01*
X173747675Y-128028070D01*
X174540000Y-128820395D01*
X174554143Y-128806253D01*
X174733748Y-128985858D01*
X174719605Y-129000000D01*
X174733748Y-129014143D01*
X174554143Y-129193748D01*
X174540000Y-129179605D01*
X173747675Y-129971930D01*
X173815735Y-130212931D01*
X174335034Y-130397767D01*
X174855571Y-130371327D01*
X174855571Y-148641601D01*
X174744966Y-148602233D01*
X174194462Y-148630195D01*
X173815735Y-148787069D01*
X173747675Y-149028070D01*
X174540000Y-149820395D01*
X174554143Y-149806253D01*
X174733748Y-149985858D01*
X174719605Y-150000000D01*
X174733748Y-150014143D01*
X174554143Y-150193748D01*
X174540000Y-150179605D01*
X173747675Y-150971930D01*
X173815735Y-151212931D01*
X174335034Y-151397767D01*
X174855571Y-151371327D01*
X174855571Y-152694333D01*
X174941968Y-153128679D01*
X174987909Y-153197434D01*
X175188005Y-153496899D01*
X177893672Y-156202566D01*
X178261892Y-156448603D01*
X178696238Y-156535000D01*
X201590600Y-156535000D01*
X202024946Y-156448603D01*
X202393166Y-156202566D01*
X204940177Y-153655555D01*
X205000000Y-153667454D01*
X205622090Y-153543713D01*
X206149473Y-153191327D01*
X206501859Y-152663944D01*
X206625600Y-152041854D01*
X206625600Y-149988932D01*
X207460733Y-149153800D01*
X208619921Y-149153800D01*
X208498141Y-149336056D01*
X208374400Y-149958146D01*
X208374400Y-152041854D01*
X208498141Y-152663944D01*
X208850527Y-153191327D01*
X209377910Y-153543713D01*
X210000000Y-153667454D01*
X210622090Y-153543713D01*
X211149473Y-153191327D01*
X211501859Y-152663944D01*
X211625600Y-152041854D01*
X211625600Y-149958146D01*
X211501859Y-149336056D01*
X211380079Y-149153800D01*
X218619921Y-149153800D01*
X218498141Y-149336056D01*
X218374400Y-149958146D01*
X218374400Y-152041854D01*
X218498141Y-152663944D01*
X218850527Y-153191327D01*
X219377910Y-153543713D01*
X220000000Y-153667454D01*
X220622090Y-153543713D01*
X221149473Y-153191327D01*
X221501859Y-152663944D01*
X221625600Y-152041854D01*
X221625600Y-149958146D01*
X221501859Y-149336056D01*
X221380079Y-149153800D01*
X223619921Y-149153800D01*
X223498141Y-149336056D01*
X223374400Y-149958146D01*
X223374400Y-152041854D01*
X223498141Y-152663944D01*
X223850527Y-153191327D01*
X224377910Y-153543713D01*
X225000000Y-153667454D01*
X225622090Y-153543713D01*
X226149473Y-153191327D01*
X226501859Y-152663944D01*
X226625600Y-152041854D01*
X226625600Y-150246732D01*
X231181434Y-154802566D01*
X231549654Y-155048603D01*
X231984000Y-155135000D01*
X232359649Y-155135000D01*
X232383537Y-155258123D01*
X232523327Y-155470927D01*
X232734360Y-155613377D01*
X232984000Y-155663440D01*
X235016000Y-155663440D01*
X235258123Y-155616463D01*
X235470927Y-155476673D01*
X235578738Y-155316957D01*
X235675182Y-155406385D01*
X236157056Y-155605975D01*
X236413000Y-155486836D01*
X236413000Y-154127000D01*
X236667000Y-154127000D01*
X236667000Y-155486836D01*
X236922944Y-155605975D01*
X237404818Y-155406385D01*
X237877188Y-154968379D01*
X238145983Y-154382946D01*
X238111672Y-154308909D01*
X263789041Y-154308909D01*
X264573459Y-154634628D01*
X265422815Y-154635370D01*
X266207800Y-154311020D01*
X266808909Y-153710959D01*
X267134628Y-152926541D01*
X267135370Y-152077185D01*
X266811020Y-151292200D01*
X266210959Y-150691091D01*
X265426541Y-150365372D01*
X264577185Y-150364630D01*
X263792200Y-150688980D01*
X247384985Y-150688980D01*
X247086799Y-150565162D01*
X247039923Y-150565121D01*
X244437401Y-147962599D01*
X244190839Y-147797852D01*
X243900000Y-147740000D01*
X237314802Y-147740000D01*
X236502714Y-146927912D01*
X236828943Y-146793117D01*
X237092192Y-146530327D01*
X237234838Y-146186799D01*
X237234921Y-146091452D01*
X237302148Y-145990839D01*
X237360000Y-145700000D01*
X237360000Y-143162463D01*
X237392192Y-143130327D01*
X237443402Y-143007000D01*
X259666183Y-143007000D01*
X259545042Y-143239026D01*
X259717312Y-143654947D01*
X260111510Y-144086821D01*
X260640973Y-144334968D01*
X260873000Y-144214469D01*
X260873000Y-143007000D01*
X259666183Y-143007000D01*
X237443402Y-143007000D01*
X237534838Y-142786799D01*
X237535162Y-142414833D01*
X237393117Y-142071057D01*
X237130327Y-141807808D01*
X236786799Y-141665162D01*
X236414833Y-141664838D01*
X236071057Y-141806883D01*
X235807808Y-142069673D01*
X235665162Y-142413201D01*
X235664838Y-142785167D01*
X235806883Y-143128943D01*
X235840000Y-143162118D01*
X235840000Y-145178396D01*
X235771057Y-145206883D01*
X235507808Y-145469673D01*
X235371864Y-145797062D01*
X232435122Y-142860320D01*
X232435162Y-142814833D01*
X232293117Y-142471057D01*
X232030327Y-142207808D01*
X231686799Y-142065162D01*
X231314833Y-142064838D01*
X230971057Y-142206883D01*
X230707808Y-142469673D01*
X230565162Y-142813201D01*
X230564838Y-143185167D01*
X230706883Y-143528943D01*
X230969673Y-143792192D01*
X231313201Y-143934838D01*
X231360077Y-143934879D01*
X236462599Y-149037401D01*
X236709161Y-149202148D01*
X237000000Y-149260000D01*
X243585198Y-149260000D01*
X245964878Y-151639680D01*
X245964838Y-151685167D01*
X246106883Y-152028943D01*
X246369673Y-152292192D01*
X246713201Y-152434838D01*
X247085167Y-152435162D01*
X247428943Y-152293117D01*
X247692192Y-152030327D01*
X247834838Y-151686799D01*
X247835162Y-151314833D01*
X247693117Y-150971057D01*
X247430327Y-150707808D01*
X247384985Y-150688980D01*
X263792200Y-150688980D01*
X247384985Y-150688980D01*
X247384985Y-150688980D01*
X263792200Y-150688980D01*
X263191091Y-151289041D01*
X262865372Y-152073459D01*
X262864630Y-152922815D01*
X237759846Y-152922815D01*
X237404818Y-152593615D01*
X236922944Y-152394025D01*
X236667000Y-152513164D01*
X236667000Y-153873000D01*
X238027367Y-153873000D01*
X238145983Y-153617054D01*
X237877188Y-153031621D01*
X237759846Y-152922815D01*
X262864630Y-152922815D01*
X237759846Y-152922815D01*
X237759846Y-152922815D01*
X262864630Y-152922815D01*
X263188980Y-153707800D01*
X263789041Y-154308909D01*
X238111672Y-154308909D01*
X238027367Y-154127000D01*
X236667000Y-154127000D01*
X236413000Y-154127000D01*
X236413000Y-154127000D01*
X236393000Y-154127000D01*
X236393000Y-153873000D01*
X236413000Y-153873000D01*
X236413000Y-152513164D01*
X236157056Y-152394025D01*
X235675182Y-152593615D01*
X235578164Y-152683575D01*
X235476673Y-152529073D01*
X235265640Y-152386623D01*
X235016000Y-152336560D01*
X232984000Y-152336560D01*
X232741877Y-152383537D01*
X232529073Y-152523327D01*
X232386623Y-152734360D01*
X232376077Y-152786945D01*
X226805366Y-147216234D01*
X226575092Y-147062370D01*
X226437146Y-146970197D01*
X226002800Y-146883800D01*
X206990600Y-146883800D01*
X206556255Y-146970196D01*
X206188034Y-147216233D01*
X205059822Y-148344445D01*
X205000000Y-148332546D01*
X204377910Y-148456287D01*
X203850527Y-148808673D01*
X203498141Y-149336056D01*
X203374400Y-149958146D01*
X203374400Y-152011068D01*
X201120468Y-154265000D01*
X180706936Y-154265000D01*
X180746757Y-154169100D01*
X180747194Y-153667454D01*
X193000000Y-153667454D01*
X193622090Y-153543713D01*
X194149473Y-153191327D01*
X194501859Y-152663944D01*
X194625600Y-152041854D01*
X194625600Y-151127000D01*
X198374400Y-151127000D01*
X198374400Y-152117600D01*
X198546742Y-152730023D01*
X198940330Y-153229876D01*
X199495243Y-153541060D01*
X199621041Y-153571411D01*
X199873000Y-153451942D01*
X199873000Y-151127000D01*
X200127000Y-151127000D01*
X199873000Y-151127000D01*
X199873000Y-151127000D01*
X200127000Y-151127000D01*
X200127000Y-153451942D01*
X200378959Y-153571411D01*
X200504757Y-153541060D01*
X201059670Y-153229876D01*
X201453258Y-152730023D01*
X201625600Y-152117600D01*
X201625600Y-151127000D01*
X200127000Y-151127000D01*
X199873000Y-151127000D01*
X199873000Y-151127000D01*
X198374400Y-151127000D01*
X194625600Y-151127000D01*
X194625600Y-149958146D01*
X194501859Y-149336056D01*
X194149473Y-148808673D01*
X193626061Y-148458940D01*
X199495243Y-148458940D01*
X198940330Y-148770124D01*
X198546742Y-149269977D01*
X198374400Y-149882400D01*
X198374400Y-150873000D01*
X199873000Y-150873000D01*
X199873000Y-148548058D01*
X200127000Y-148548058D01*
X200127000Y-150873000D01*
X201625600Y-150873000D01*
X201625600Y-149882400D01*
X201453258Y-149269977D01*
X201059670Y-148770124D01*
X200504757Y-148458940D01*
X200378959Y-148428589D01*
X200127000Y-148548058D01*
X199873000Y-148548058D01*
X199873000Y-148548058D01*
X199621041Y-148428589D01*
X199495243Y-148458940D01*
X193626061Y-148458940D01*
X193622090Y-148456287D01*
X193000000Y-148332546D01*
X192377910Y-148456287D01*
X188493761Y-148456287D01*
X188378959Y-148428589D01*
X188127000Y-148548058D01*
X188127000Y-150873000D01*
X189625600Y-150873000D01*
X189625600Y-149882400D01*
X189453258Y-149269977D01*
X189059670Y-148770124D01*
X188504757Y-148458940D01*
X188493761Y-148456287D01*
X192377910Y-148456287D01*
X188493761Y-148456287D01*
X188493761Y-148456287D01*
X192377910Y-148456287D01*
X191850527Y-148808673D01*
X191498141Y-149336056D01*
X191374400Y-149958146D01*
X191374400Y-152041854D01*
X189625600Y-152041854D01*
X189625600Y-151127000D01*
X188127000Y-151127000D01*
X188127000Y-153451942D01*
X188378959Y-153571411D01*
X188504757Y-153541060D01*
X189059670Y-153229876D01*
X189453258Y-152730023D01*
X189625600Y-152117600D01*
X189625600Y-152041854D01*
X191374400Y-152041854D01*
X189625600Y-152041854D01*
X189625600Y-152041854D01*
X191374400Y-152041854D01*
X191498141Y-152663944D01*
X191850527Y-153191327D01*
X192377910Y-153543713D01*
X193000000Y-153667454D01*
X180747194Y-153667454D01*
X180747242Y-153613339D01*
X180535010Y-153099697D01*
X180142370Y-152706371D01*
X179934488Y-152620051D01*
X180140303Y-152535010D01*
X180533629Y-152142370D01*
X180746757Y-151629100D01*
X180747195Y-151127000D01*
X186374400Y-151127000D01*
X186374400Y-152117600D01*
X186546742Y-152730023D01*
X186940330Y-153229876D01*
X187495243Y-153541060D01*
X187621041Y-153571411D01*
X187873000Y-153451942D01*
X187873000Y-151127000D01*
X186374400Y-151127000D01*
X180747195Y-151127000D01*
X180747242Y-151073339D01*
X180535010Y-150559697D01*
X180142370Y-150166371D01*
X179934488Y-150080051D01*
X180140303Y-149995010D01*
X180533629Y-149602370D01*
X180746757Y-149089100D01*
X180747242Y-148533339D01*
X180716502Y-148458940D01*
X187495243Y-148458940D01*
X186940330Y-148770124D01*
X186546742Y-149269977D01*
X186374400Y-149882400D01*
X186374400Y-150873000D01*
X187873000Y-150873000D01*
X187873000Y-148548058D01*
X187621041Y-148428589D01*
X187495243Y-148458940D01*
X180716502Y-148458940D01*
X180535010Y-148019697D01*
X180142370Y-147626371D01*
X179934488Y-147540051D01*
X180140303Y-147455010D01*
X180533629Y-147062370D01*
X180746757Y-146549100D01*
X180747242Y-145993339D01*
X180535010Y-145479697D01*
X180142370Y-145086371D01*
X179934488Y-145000051D01*
X180140303Y-144915010D01*
X180533629Y-144522370D01*
X180746757Y-144009100D01*
X180747242Y-143453339D01*
X180535010Y-142939697D01*
X180142370Y-142546371D01*
X180110000Y-142532930D01*
X180110000Y-142387531D01*
X180140303Y-142375010D01*
X180533629Y-141982370D01*
X180655454Y-141688980D01*
X213292200Y-141688980D01*
X212691091Y-142289041D01*
X212365372Y-143073459D01*
X212364630Y-143922815D01*
X212688980Y-144707800D01*
X213289041Y-145308909D01*
X214073459Y-145634628D01*
X214922815Y-145635370D01*
X215707800Y-145311020D01*
X216308909Y-144710959D01*
X216634628Y-143926541D01*
X216635370Y-143077185D01*
X216311020Y-142292200D01*
X215710959Y-141691091D01*
X214926541Y-141365372D01*
X214077185Y-141364630D01*
X213292200Y-141688980D01*
X180655454Y-141688980D01*
X180746757Y-141469100D01*
X180747242Y-140913339D01*
X180562819Y-140467000D01*
X259666183Y-140467000D01*
X259545042Y-140699026D01*
X259717312Y-141114947D01*
X260111510Y-141546821D01*
X260246313Y-141610000D01*
X260111510Y-141673179D01*
X259717312Y-142105053D01*
X259545042Y-142520974D01*
X259666183Y-142753000D01*
X260873000Y-142753000D01*
X260873000Y-140467000D01*
X259666183Y-140467000D01*
X180562819Y-140467000D01*
X180535010Y-140399697D01*
X180142370Y-140006371D01*
X180059427Y-139971930D01*
X216667675Y-139971930D01*
X216735735Y-140212931D01*
X217255034Y-140397767D01*
X217805538Y-140369805D01*
X218184265Y-140212931D01*
X218252325Y-139971930D01*
X218072720Y-139792325D01*
X218431930Y-139792325D01*
X218672931Y-139724265D01*
X218731769Y-139558960D01*
X218824686Y-139783837D01*
X219214113Y-140173944D01*
X219723184Y-140385329D01*
X220274398Y-140385810D01*
X220783837Y-140175314D01*
X221173944Y-139785887D01*
X221385329Y-139276816D01*
X221385810Y-138725602D01*
X221175314Y-138216163D01*
X220785887Y-137826056D01*
X220276816Y-137614671D01*
X219725602Y-137614190D01*
X219216163Y-137824686D01*
X218194889Y-137824686D01*
X218184265Y-137787069D01*
X217664966Y-137602233D01*
X217114462Y-137630195D01*
X216735735Y-137787069D01*
X216667675Y-138028070D01*
X217460000Y-138820395D01*
X218252325Y-138028070D01*
X218194889Y-137824686D01*
X219216163Y-137824686D01*
X218194889Y-137824686D01*
X218194889Y-137824686D01*
X219216163Y-137824686D01*
X218826056Y-138214113D01*
X218736621Y-138429496D01*
X218672931Y-138275735D01*
X218431930Y-138207675D01*
X217639605Y-139000000D01*
X217280395Y-139000000D01*
X217280395Y-139000000D01*
X216488070Y-138207675D01*
X216247069Y-138275735D01*
X216062233Y-138795034D01*
X216090195Y-139345538D01*
X216247069Y-139724265D01*
X216488070Y-139792325D01*
X217280395Y-139000000D01*
X217639605Y-139000000D01*
X217280395Y-139000000D01*
X217280395Y-139000000D01*
X217639605Y-139000000D01*
X218431930Y-139792325D01*
X218072720Y-139792325D01*
X217460000Y-139179605D01*
X216667675Y-139971930D01*
X180059427Y-139971930D01*
X179934488Y-139920051D01*
X180140303Y-139835010D01*
X180533629Y-139442370D01*
X180547070Y-139410000D01*
X193963000Y-139410000D01*
X194253839Y-139352148D01*
X194366901Y-139276602D01*
X194392587Y-139287268D01*
X194923086Y-139287731D01*
X195413380Y-139085146D01*
X195788827Y-138710353D01*
X195992268Y-138220413D01*
X195992731Y-137689914D01*
X195790146Y-137199620D01*
X195415353Y-136824173D01*
X195093882Y-136690686D01*
X195351929Y-136583800D01*
X195413583Y-136348188D01*
X194659000Y-135593605D01*
X193904417Y-136348188D01*
X193966071Y-136583800D01*
X194245312Y-136682083D01*
X193904620Y-136822854D01*
X193529173Y-137197647D01*
X193325732Y-137687587D01*
X193325555Y-137890000D01*
X180547531Y-137890000D01*
X180535010Y-137859697D01*
X180142370Y-137466371D01*
X179934488Y-137380051D01*
X180140303Y-137295010D01*
X180533629Y-136902370D01*
X180547070Y-136870000D01*
X191423000Y-136870000D01*
X191713839Y-136812148D01*
X191960401Y-136647401D01*
X193316847Y-135290955D01*
X193341852Y-135751199D01*
X193489200Y-136106929D01*
X193724812Y-136168583D01*
X194479395Y-135414000D01*
X194838605Y-135414000D01*
X195593188Y-136168583D01*
X195828800Y-136106929D01*
X196004927Y-135606520D01*
X195976148Y-135076801D01*
X195828800Y-134721071D01*
X195593188Y-134659417D01*
X194838605Y-135414000D01*
X194479395Y-135414000D01*
X194479395Y-135414000D01*
X194465253Y-135399858D01*
X194644858Y-135220253D01*
X194659000Y-135234395D01*
X195413583Y-134479812D01*
X195351929Y-134244200D01*
X195072688Y-134145917D01*
X195413380Y-134005146D01*
X195788827Y-133630353D01*
X195992268Y-133140413D01*
X195992731Y-132609914D01*
X195790146Y-132119620D01*
X195415353Y-131744173D01*
X195093882Y-131610686D01*
X195351929Y-131503800D01*
X195413583Y-131268188D01*
X195233978Y-131088583D01*
X195593188Y-131088583D01*
X195828800Y-131026929D01*
X196004927Y-130526520D01*
X195976148Y-129996801D01*
X195828800Y-129641071D01*
X195593188Y-129579417D01*
X194838605Y-130334000D01*
X194479395Y-130334000D01*
X194479395Y-130334000D01*
X193724812Y-129579417D01*
X193489200Y-129641071D01*
X193313073Y-130141480D01*
X193341852Y-130671199D01*
X193489200Y-131026929D01*
X193724812Y-131088583D01*
X194479395Y-130334000D01*
X194838605Y-130334000D01*
X194479395Y-130334000D01*
X194479395Y-130334000D01*
X194838605Y-130334000D01*
X195593188Y-131088583D01*
X195233978Y-131088583D01*
X194659000Y-130513605D01*
X193904417Y-131268188D01*
X193966071Y-131503800D01*
X194245312Y-131602083D01*
X193904620Y-131742854D01*
X193529173Y-132117647D01*
X193325732Y-132607587D01*
X193325274Y-133132924D01*
X191108198Y-135350000D01*
X180547531Y-135350000D01*
X180535010Y-135319697D01*
X180142370Y-134926371D01*
X179629100Y-134713243D01*
X179073339Y-134712758D01*
X179022999Y-134733558D01*
X179022999Y-132900565D01*
X180974402Y-130949162D01*
X181139149Y-130702600D01*
X181197001Y-130411761D01*
X181197001Y-129016852D01*
X194321801Y-129016852D01*
X193966071Y-129164200D01*
X193904417Y-129399812D01*
X194659000Y-130154395D01*
X195413583Y-129399812D01*
X195351929Y-129164200D01*
X194851520Y-128988073D01*
X194321801Y-129016852D01*
X181197001Y-129016852D01*
X181197001Y-119720629D01*
X181177219Y-119621177D01*
X181139149Y-119429789D01*
X180974402Y-119183228D01*
X180727841Y-119018481D01*
X180553210Y-118983745D01*
X180535010Y-118939697D01*
X180142370Y-118546371D01*
X180110000Y-118532930D01*
X180110000Y-118387531D01*
X180140303Y-118375010D01*
X180533629Y-117982370D01*
X180746757Y-117469100D01*
X180747060Y-117121862D01*
X190432599Y-126807401D01*
X190679161Y-126972148D01*
X190970000Y-127030000D01*
X193533464Y-127030000D01*
X193902647Y-127399827D01*
X194392587Y-127603268D01*
X194923086Y-127603731D01*
X195413380Y-127401146D01*
X195788827Y-127026353D01*
X195799961Y-126999540D01*
X195937667Y-126972148D01*
X196184229Y-126807401D01*
X197862402Y-125129228D01*
X198027149Y-124882666D01*
X198085001Y-124591827D01*
X198085001Y-123399999D01*
X198068188Y-123315474D01*
X198027149Y-123109159D01*
X197862402Y-122862598D01*
X197709991Y-122710187D01*
X197709991Y-119617188D01*
X197852158Y-119404419D01*
X197910010Y-119113580D01*
X197910010Y-113689010D01*
X200875371Y-110723649D01*
X200893854Y-110768380D01*
X201069420Y-110944253D01*
X200996318Y-110993098D01*
X199362599Y-112626817D01*
X199197852Y-112873379D01*
X199140000Y-113164218D01*
X199140000Y-137557002D01*
X199197852Y-137847841D01*
X199362599Y-138094403D01*
X200783098Y-139514902D01*
X201029660Y-139679649D01*
X201320499Y-139737501D01*
X203237501Y-139737501D01*
X203528340Y-139679649D01*
X203774902Y-139514902D01*
X206081203Y-137208601D01*
X259598082Y-137208601D01*
X259586115Y-137226511D01*
X259472041Y-137800000D01*
X259586115Y-138373489D01*
X259910971Y-138859670D01*
X260234228Y-139075664D01*
X260111510Y-139133179D01*
X259717312Y-139565053D01*
X259545042Y-139980974D01*
X259666183Y-140213000D01*
X260873000Y-140213000D01*
X260873000Y-140193000D01*
X261127000Y-140193000D01*
X261127000Y-140213000D01*
X261147000Y-140213000D01*
X261147000Y-140467000D01*
X261127000Y-140467000D01*
X261127000Y-142753000D01*
X261147000Y-142753000D01*
X261147000Y-143007000D01*
X261127000Y-143007000D01*
X261127000Y-144214469D01*
X261359027Y-144334968D01*
X261888490Y-144086821D01*
X262270008Y-143668839D01*
X262450971Y-143939670D01*
X262937152Y-144264526D01*
X263510641Y-144378600D01*
X263569359Y-144378600D01*
X264142848Y-144264526D01*
X264629029Y-143939670D01*
X264953885Y-143453489D01*
X265067959Y-142880000D01*
X264953885Y-142306511D01*
X264629029Y-141820330D01*
X264314248Y-141610000D01*
X264629029Y-141399670D01*
X264953885Y-140913489D01*
X265067959Y-140340000D01*
X264953885Y-139766511D01*
X264735002Y-139438930D01*
X266537401Y-137636531D01*
X266702148Y-137389969D01*
X266760000Y-137099130D01*
X266760000Y-122657596D01*
X267178919Y-122238677D01*
X267343666Y-121992116D01*
X267355342Y-121933417D01*
X267383953Y-121789579D01*
X267871223Y-156873000D01*
X147127000Y-156873000D01*
X147127000Y-155286757D01*
X166370900Y-155286757D01*
X166926661Y-155287242D01*
X167440303Y-155075010D01*
X167833629Y-154682370D01*
X168046757Y-154169100D01*
X168047242Y-153613339D01*
X167835010Y-153099697D01*
X167442370Y-152706371D01*
X167250273Y-152626605D01*
X167381143Y-152572397D01*
X167450608Y-152330213D01*
X166650000Y-151529605D01*
X165849392Y-152330213D01*
X163033323Y-152330213D01*
X162811020Y-151792200D01*
X162210959Y-151191091D01*
X161426541Y-150865372D01*
X160577185Y-150864630D01*
X159792200Y-151188980D01*
X159191091Y-151789041D01*
X158865372Y-152573459D01*
X158864630Y-153422815D01*
X159188980Y-154207800D01*
X159789041Y-154808909D01*
X160573459Y-155134628D01*
X161422815Y-155135370D01*
X162207800Y-154811020D01*
X162808909Y-154210959D01*
X163134628Y-153426541D01*
X163135370Y-152577185D01*
X163033323Y-152330213D01*
X165849392Y-152330213D01*
X163033323Y-152330213D01*
X163033323Y-152330213D01*
X165849392Y-152330213D01*
X165918857Y-152572397D01*
X166059318Y-152622509D01*
X165859697Y-152704990D01*
X165466371Y-153097630D01*
X165253243Y-153610900D01*
X165252758Y-154166661D01*
X165464990Y-154680303D01*
X165857630Y-155073629D01*
X166370900Y-155286757D01*
X147127000Y-155286757D01*
X147127000Y-139881400D01*
X149815255Y-139881400D01*
X149241766Y-139995474D01*
X148755585Y-140320330D01*
X148430729Y-140806511D01*
X148316655Y-141380000D01*
X148430729Y-141953489D01*
X148755585Y-142439670D01*
X149070366Y-142650000D01*
X148755585Y-142860330D01*
X148430729Y-143346511D01*
X148316655Y-143920000D01*
X148430729Y-144493489D01*
X148755585Y-144979670D01*
X149070366Y-145190000D01*
X148755585Y-145400330D01*
X148430729Y-145886511D01*
X148316655Y-146460000D01*
X148430729Y-147033489D01*
X148755585Y-147519670D01*
X148771367Y-147530215D01*
X148741877Y-147535937D01*
X148529073Y-147675727D01*
X148386623Y-147886760D01*
X148336560Y-148136400D01*
X148336560Y-149863600D01*
X148383537Y-150105723D01*
X148523327Y-150318527D01*
X148734360Y-150460977D01*
X148984000Y-150511040D01*
X151016000Y-150511040D01*
X151258123Y-150464063D01*
X151470927Y-150324273D01*
X151613377Y-150113240D01*
X151663440Y-149863600D01*
X151663440Y-148932116D01*
X151808673Y-149149473D01*
X152336056Y-149501859D01*
X152958146Y-149625600D01*
X155041854Y-149625600D01*
X155663944Y-149501859D01*
X156191327Y-149149473D01*
X156543713Y-148622090D01*
X156667454Y-148000000D01*
X156543713Y-147377910D01*
X156191327Y-146850527D01*
X155663944Y-146498141D01*
X155041854Y-146374400D01*
X152958146Y-146374400D01*
X152336056Y-146498141D01*
X151808673Y-146850527D01*
X151456287Y-147377910D01*
X151405466Y-147633407D01*
X151265640Y-147539023D01*
X151227037Y-147531282D01*
X151244415Y-147519670D01*
X151569271Y-147033489D01*
X151683345Y-146460000D01*
X151569271Y-145886511D01*
X151244415Y-145400330D01*
X150929634Y-145190000D01*
X151244415Y-144979670D01*
X151569271Y-144493489D01*
X151676922Y-143952293D01*
X151808673Y-144149473D01*
X152336056Y-144501859D01*
X152958146Y-144625600D01*
X155041854Y-144625600D01*
X155663944Y-144501859D01*
X156191327Y-144149473D01*
X156543713Y-143622090D01*
X156667454Y-143000000D01*
X156543713Y-142377910D01*
X156191327Y-141850527D01*
X155663944Y-141498141D01*
X155041854Y-141374400D01*
X152958146Y-141374400D01*
X152336056Y-141498141D01*
X151808673Y-141850527D01*
X151456287Y-142377910D01*
X151333737Y-142994010D01*
X151244415Y-142860330D01*
X150929634Y-142650000D01*
X151244415Y-142439670D01*
X151569271Y-141953489D01*
X151683345Y-141380000D01*
X151569271Y-140806511D01*
X151244415Y-140320330D01*
X150758234Y-139995474D01*
X150184745Y-139881400D01*
X149815255Y-139881400D01*
X147127000Y-139881400D01*
X147127000Y-139833629D01*
X165857630Y-139833629D01*
X166065512Y-139919949D01*
X165859697Y-140004990D01*
X165466371Y-140397630D01*
X165253243Y-140910900D01*
X165252758Y-141466661D01*
X165464990Y-141980303D01*
X165857630Y-142373629D01*
X166065512Y-142459949D01*
X165859697Y-142544990D01*
X165466371Y-142937630D01*
X165253243Y-143450900D01*
X165252758Y-144006661D01*
X165464990Y-144520303D01*
X165857630Y-144913629D01*
X166065512Y-144999949D01*
X165859697Y-145084990D01*
X165466371Y-145477630D01*
X165253243Y-145990900D01*
X165252758Y-146546661D01*
X165464990Y-147060303D01*
X165857630Y-147453629D01*
X166065512Y-147539949D01*
X165859697Y-147624990D01*
X165809600Y-147675000D01*
X159180600Y-147675000D01*
X158746254Y-147761397D01*
X158451119Y-147958600D01*
X158378034Y-148007434D01*
X155011068Y-151374400D01*
X152958146Y-151374400D01*
X152336056Y-151498141D01*
X151808673Y-151850527D01*
X151456287Y-152377910D01*
X151332546Y-153000000D01*
X151456287Y-153622090D01*
X151808673Y-154149473D01*
X152336056Y-154501859D01*
X152958146Y-154625600D01*
X155041854Y-154625600D01*
X155663944Y-154501859D01*
X156191327Y-154149473D01*
X156543713Y-153622090D01*
X156667454Y-153000000D01*
X156655555Y-152940177D01*
X158976875Y-150618857D01*
X165427603Y-150618857D01*
X165240856Y-151142302D01*
X165268638Y-151697368D01*
X165427603Y-152081143D01*
X165669787Y-152150608D01*
X166470395Y-151350000D01*
X166829605Y-151350000D01*
X167630213Y-152150608D01*
X167872397Y-152081143D01*
X168059144Y-151557698D01*
X168031362Y-151002632D01*
X167872397Y-150618857D01*
X167630213Y-150549392D01*
X166829605Y-151350000D01*
X166470395Y-151350000D01*
X166470395Y-151350000D01*
X165669787Y-150549392D01*
X165427603Y-150618857D01*
X158976875Y-150618857D01*
X159650732Y-149945000D01*
X165809086Y-149945000D01*
X165857630Y-149993629D01*
X166049727Y-150073395D01*
X165918857Y-150127603D01*
X165849392Y-150369787D01*
X166650000Y-151170395D01*
X167450608Y-150369787D01*
X167381143Y-150127603D01*
X167240682Y-150077491D01*
X167440303Y-149995010D01*
X167833629Y-149602370D01*
X168046757Y-149089100D01*
X168046987Y-148824686D01*
X171216163Y-148824686D01*
X170826056Y-149214113D01*
X170614671Y-149723184D01*
X170614190Y-150274398D01*
X170824686Y-150783837D01*
X171214113Y-151173944D01*
X171723184Y-151385329D01*
X172274398Y-151385810D01*
X172783837Y-151175314D01*
X173173944Y-150785887D01*
X173263379Y-150570504D01*
X173327069Y-150724265D01*
X173568070Y-150792325D01*
X174360395Y-150000000D01*
X173568070Y-149207675D01*
X173327069Y-149275735D01*
X173268231Y-149441040D01*
X173175314Y-149216163D01*
X172785887Y-148826056D01*
X172276816Y-148614671D01*
X171725602Y-148614190D01*
X171216163Y-148824686D01*
X168046987Y-148824686D01*
X168047242Y-148533339D01*
X167835010Y-148019697D01*
X167442370Y-147626371D01*
X167234488Y-147540051D01*
X167440303Y-147455010D01*
X167833629Y-147062370D01*
X168046757Y-146549100D01*
X168047242Y-145993339D01*
X167835010Y-145479697D01*
X167442370Y-145086371D01*
X167234488Y-145000051D01*
X167440303Y-144915010D01*
X167833629Y-144522370D01*
X168046757Y-144009100D01*
X168047242Y-143453339D01*
X167835010Y-142939697D01*
X167442370Y-142546371D01*
X167234488Y-142460051D01*
X167440303Y-142375010D01*
X167833629Y-141982370D01*
X168046757Y-141469100D01*
X168047242Y-140913339D01*
X167835010Y-140399697D01*
X167442370Y-140006371D01*
X167234488Y-139920051D01*
X167440303Y-139835010D01*
X167833629Y-139442370D01*
X168046757Y-138929100D01*
X168047242Y-138373339D01*
X167835010Y-137859697D01*
X167442370Y-137466371D01*
X167250273Y-137386605D01*
X167381143Y-137332397D01*
X167450608Y-137090213D01*
X166650000Y-136289605D01*
X165849392Y-137090213D01*
X156351481Y-137090213D01*
X156191327Y-136850527D01*
X155663944Y-136498141D01*
X155041854Y-136374400D01*
X152958146Y-136374400D01*
X152336056Y-136498141D01*
X151808673Y-136850527D01*
X151456287Y-137377910D01*
X151332546Y-138000000D01*
X151456287Y-138622090D01*
X151808673Y-139149473D01*
X152336056Y-139501859D01*
X152958146Y-139625600D01*
X155041854Y-139625600D01*
X155663944Y-139501859D01*
X156191327Y-139149473D01*
X156543713Y-138622090D01*
X156667454Y-138000000D01*
X156543713Y-137377910D01*
X156351481Y-137090213D01*
X165849392Y-137090213D01*
X156351481Y-137090213D01*
X156351481Y-137090213D01*
X165849392Y-137090213D01*
X165918857Y-137332397D01*
X166059318Y-137382509D01*
X165859697Y-137464990D01*
X165466371Y-137857630D01*
X165253243Y-138370900D01*
X165252758Y-138926661D01*
X165464990Y-139440303D01*
X165857630Y-139833629D01*
X147127000Y-139833629D01*
X147127000Y-135378857D01*
X165427603Y-135378857D01*
X165240856Y-135902302D01*
X165268638Y-136457368D01*
X165427603Y-136841143D01*
X165669787Y-136910608D01*
X166470395Y-136110000D01*
X166829605Y-136110000D01*
X167630213Y-136910608D01*
X167872397Y-136841143D01*
X168059144Y-136317698D01*
X168031362Y-135762632D01*
X167872397Y-135378857D01*
X167630213Y-135309392D01*
X166829605Y-136110000D01*
X166470395Y-136110000D01*
X166470395Y-136110000D01*
X165669787Y-135309392D01*
X165427603Y-135378857D01*
X147127000Y-135378857D01*
X147127000Y-134728638D01*
X166302632Y-134728638D01*
X165918857Y-134887603D01*
X165849392Y-135129787D01*
X166650000Y-135930395D01*
X167450608Y-135129787D01*
X167381143Y-134887603D01*
X166857698Y-134700856D01*
X166302632Y-134728638D01*
X147127000Y-134728638D01*
X147127000Y-130680303D01*
X165464990Y-130680303D01*
X165857630Y-131073629D01*
X166370900Y-131286757D01*
X166926661Y-131287242D01*
X167440303Y-131075010D01*
X167833629Y-130682370D01*
X168046757Y-130169100D01*
X168047242Y-129613339D01*
X167835010Y-129099697D01*
X167442370Y-128706371D01*
X167250273Y-128626605D01*
X167381143Y-128572397D01*
X167450608Y-128330213D01*
X167334508Y-128214113D01*
X170826056Y-128214113D01*
X170614671Y-128723184D01*
X170614190Y-129274398D01*
X170824686Y-129783837D01*
X171214113Y-130173944D01*
X171723184Y-130385329D01*
X172274398Y-130385810D01*
X172783837Y-130175314D01*
X173173944Y-129785887D01*
X173263379Y-129570504D01*
X173327069Y-129724265D01*
X173568070Y-129792325D01*
X174360395Y-129000000D01*
X173568070Y-128207675D01*
X173327069Y-128275735D01*
X173268231Y-128441040D01*
X173175314Y-128216163D01*
X172785887Y-127826056D01*
X172276816Y-127614671D01*
X171725602Y-127614190D01*
X171216163Y-127824686D01*
X167963891Y-127824686D01*
X168059144Y-127557698D01*
X168031362Y-127002632D01*
X167872397Y-126618857D01*
X167630213Y-126549392D01*
X166829605Y-127350000D01*
X167630213Y-128150608D01*
X167872397Y-128081143D01*
X167963891Y-127824686D01*
X171216163Y-127824686D01*
X167963891Y-127824686D01*
X167963891Y-127824686D01*
X171216163Y-127824686D01*
X170826056Y-128214113D01*
X167334508Y-128214113D01*
X166650000Y-127529605D01*
X165849392Y-128330213D01*
X156511843Y-128330213D01*
X156191327Y-127850527D01*
X155663944Y-127498141D01*
X155041854Y-127374400D01*
X152958146Y-127374400D01*
X152336056Y-127498141D01*
X151808673Y-127850527D01*
X151456287Y-128377910D01*
X151332546Y-129000000D01*
X151456287Y-129622090D01*
X151808673Y-130149473D01*
X152336056Y-130501859D01*
X152958146Y-130625600D01*
X155041854Y-130625600D01*
X155663944Y-130501859D01*
X156191327Y-130149473D01*
X156543713Y-129622090D01*
X156667454Y-129000000D01*
X156543713Y-128377910D01*
X156511843Y-128330213D01*
X165849392Y-128330213D01*
X156511843Y-128330213D01*
X156511843Y-128330213D01*
X165849392Y-128330213D01*
X165918857Y-128572397D01*
X166059318Y-128622509D01*
X165859697Y-128704990D01*
X165466371Y-129097630D01*
X165253243Y-129610900D01*
X165252758Y-130166661D01*
X165464990Y-130680303D01*
X147127000Y-130680303D01*
X147127000Y-126618857D01*
X165427603Y-126618857D01*
X165240856Y-127142302D01*
X165268638Y-127697368D01*
X165427603Y-128081143D01*
X165669787Y-128150608D01*
X166470395Y-127350000D01*
X165669787Y-126549392D01*
X165427603Y-126618857D01*
X147127000Y-126618857D01*
X147127000Y-115881400D01*
X149815255Y-115881400D01*
X149241766Y-115995474D01*
X148755585Y-116320330D01*
X148430729Y-116806511D01*
X148316655Y-117380000D01*
X148430729Y-117953489D01*
X148755585Y-118439670D01*
X149070366Y-118650000D01*
X148755585Y-118860330D01*
X148430729Y-119346511D01*
X148316655Y-119920000D01*
X148430729Y-120493489D01*
X148755585Y-120979670D01*
X149070366Y-121190000D01*
X148755585Y-121400330D01*
X148430729Y-121886511D01*
X148316655Y-122460000D01*
X148430729Y-123033489D01*
X148755585Y-123519670D01*
X148771367Y-123530215D01*
X148741877Y-123535937D01*
X148529073Y-123675727D01*
X148386623Y-123886760D01*
X148336560Y-124136400D01*
X148336560Y-125863600D01*
X148383537Y-126105723D01*
X148523327Y-126318527D01*
X148734360Y-126460977D01*
X148984000Y-126511040D01*
X151016000Y-126511040D01*
X151258123Y-126464063D01*
X151470927Y-126324273D01*
X151613377Y-126113240D01*
X151663440Y-125863600D01*
X151663440Y-124932116D01*
X151808673Y-125149473D01*
X152336056Y-125501859D01*
X152958146Y-125625600D01*
X155041854Y-125625600D01*
X155663944Y-125501859D01*
X156191327Y-125149473D01*
X156543713Y-124622090D01*
X156667454Y-124000000D01*
X156543713Y-123377910D01*
X156191327Y-122850527D01*
X155663944Y-122498141D01*
X155041854Y-122374400D01*
X152958146Y-122374400D01*
X152336056Y-122498141D01*
X151808673Y-122850527D01*
X151456287Y-123377910D01*
X151405466Y-123633407D01*
X151265640Y-123539023D01*
X151227037Y-123531282D01*
X151244415Y-123519670D01*
X151569271Y-123033489D01*
X151683345Y-122460000D01*
X151569271Y-121886511D01*
X151244415Y-121400330D01*
X150929634Y-121190000D01*
X151244415Y-120979670D01*
X151569271Y-120493489D01*
X151676922Y-119952293D01*
X151808673Y-120149473D01*
X152336056Y-120501859D01*
X152958146Y-120625600D01*
X155041854Y-120625600D01*
X155663944Y-120501859D01*
X156191327Y-120149473D01*
X156543713Y-119622090D01*
X156667454Y-119000000D01*
X156543713Y-118377910D01*
X156191327Y-117850527D01*
X155663944Y-117498141D01*
X155041854Y-117374400D01*
X152958146Y-117374400D01*
X152336056Y-117498141D01*
X151808673Y-117850527D01*
X151456287Y-118377910D01*
X151333737Y-118994010D01*
X151244415Y-118860330D01*
X150929634Y-118650000D01*
X151244415Y-118439670D01*
X151569271Y-117953489D01*
X151683345Y-117380000D01*
X151569271Y-116806511D01*
X151244415Y-116320330D01*
X150758234Y-115995474D01*
X150184745Y-115881400D01*
X149815255Y-115881400D01*
X147127000Y-115881400D01*
X147127000Y-115833629D01*
X165857630Y-115833629D01*
X166065512Y-115919949D01*
X165859697Y-116004990D01*
X165466371Y-116397630D01*
X165253243Y-116910900D01*
X165252758Y-117466661D01*
X165464990Y-117980303D01*
X165857630Y-118373629D01*
X166065512Y-118459949D01*
X165859697Y-118544990D01*
X165466371Y-118937630D01*
X165253243Y-119450900D01*
X165252758Y-120006661D01*
X165464990Y-120520303D01*
X165857630Y-120913629D01*
X166065512Y-120999949D01*
X165859697Y-121084990D01*
X165466371Y-121477630D01*
X165253243Y-121990900D01*
X165252758Y-122546661D01*
X165464990Y-123060303D01*
X165857630Y-123453629D01*
X166065512Y-123539949D01*
X165859697Y-123624990D01*
X165466371Y-124017630D01*
X165253243Y-124530900D01*
X165252758Y-125086661D01*
X165464990Y-125600303D01*
X165857630Y-125993629D01*
X166049727Y-126073395D01*
X165918857Y-126127603D01*
X165849392Y-126369787D01*
X166650000Y-127170395D01*
X167450608Y-126369787D01*
X167381143Y-126127603D01*
X167240682Y-126077491D01*
X167440303Y-125995010D01*
X167833629Y-125602370D01*
X168046757Y-125089100D01*
X168047242Y-124533339D01*
X167835010Y-124019697D01*
X167442370Y-123626371D01*
X167234488Y-123540051D01*
X167440303Y-123455010D01*
X167833629Y-123062370D01*
X168046757Y-122549100D01*
X168047242Y-121993339D01*
X167835010Y-121479697D01*
X167442370Y-121086371D01*
X167234488Y-121000051D01*
X167440303Y-120915010D01*
X167833629Y-120522370D01*
X168046757Y-120009100D01*
X168047242Y-119453339D01*
X167835010Y-118939697D01*
X167442370Y-118546371D01*
X167234488Y-118460051D01*
X167440303Y-118375010D01*
X167833629Y-117982370D01*
X168046757Y-117469100D01*
X168047242Y-116913339D01*
X167835010Y-116399697D01*
X167442370Y-116006371D01*
X167234488Y-115920051D01*
X167440303Y-115835010D01*
X167833629Y-115442370D01*
X168046757Y-114929100D01*
X168047242Y-114373339D01*
X167835010Y-113859697D01*
X167442370Y-113466371D01*
X167250273Y-113386605D01*
X167381143Y-113332397D01*
X167450608Y-113090213D01*
X166650000Y-112289605D01*
X165849392Y-113090213D01*
X156351481Y-113090213D01*
X156191327Y-112850527D01*
X155663944Y-112498141D01*
X155041854Y-112374400D01*
X152958146Y-112374400D01*
X152336056Y-112498141D01*
X151808673Y-112850527D01*
X151456287Y-113377910D01*
X151332546Y-114000000D01*
X151456287Y-114622090D01*
X151808673Y-115149473D01*
X152336056Y-115501859D01*
X152958146Y-115625600D01*
X155041854Y-115625600D01*
X155663944Y-115501859D01*
X156191327Y-115149473D01*
X156543713Y-114622090D01*
X156667454Y-114000000D01*
X156543713Y-113377910D01*
X156351481Y-113090213D01*
X165849392Y-113090213D01*
X156351481Y-113090213D01*
X156351481Y-113090213D01*
X165849392Y-113090213D01*
X165918857Y-113332397D01*
X166059318Y-113382509D01*
X165859697Y-113464990D01*
X165466371Y-113857630D01*
X165253243Y-114370900D01*
X165252758Y-114926661D01*
X165464990Y-115440303D01*
X165857630Y-115833629D01*
X147127000Y-115833629D01*
X147127000Y-111378857D01*
X165427603Y-111378857D01*
X165240856Y-111902302D01*
X165268638Y-112457368D01*
X165427603Y-112841143D01*
X165669787Y-112910608D01*
X166470395Y-112110000D01*
X166829605Y-112110000D01*
X167630213Y-112910608D01*
X167872397Y-112841143D01*
X168059144Y-112317698D01*
X168031362Y-111762632D01*
X167872397Y-111378857D01*
X167630213Y-111309392D01*
X166829605Y-112110000D01*
X166470395Y-112110000D01*
X166470395Y-112110000D01*
X165669787Y-111309392D01*
X165427603Y-111378857D01*
X147127000Y-111378857D01*
X147127000Y-110728638D01*
X166302632Y-110728638D01*
X165918857Y-110887603D01*
X165849392Y-111129787D01*
X166650000Y-111930395D01*
X167450608Y-111129787D01*
X167381143Y-110887603D01*
X166857698Y-110700856D01*
X166302632Y-110728638D01*
X147127000Y-110728638D01*
X147127000Y-108789041D01*
X169691091Y-108789041D01*
X169365372Y-109573459D01*
X169364630Y-110422815D01*
X169688980Y-111207800D01*
X170289041Y-111808909D01*
X171073459Y-112134628D01*
X171922815Y-112135370D01*
X172707800Y-111811020D01*
X173308909Y-111210959D01*
X173634628Y-110426541D01*
X173635370Y-109577185D01*
X173311020Y-108792200D01*
X172710959Y-108191091D01*
X171926541Y-107865372D01*
X171077185Y-107864630D01*
X170292200Y-108188980D01*
X150562251Y-108188980D01*
X150613377Y-108113240D01*
X150663440Y-107863600D01*
X150663440Y-106136400D01*
X150616463Y-105894277D01*
X150476673Y-105681473D01*
X150265640Y-105539023D01*
X150227037Y-105531282D01*
X150244415Y-105519670D01*
X150569271Y-105033489D01*
X150683345Y-104460000D01*
X150569271Y-103886511D01*
X150244415Y-103400330D01*
X149929634Y-103190000D01*
X150244415Y-102979670D01*
X150569271Y-102493489D01*
X150683345Y-101920000D01*
X150569271Y-101346511D01*
X150244415Y-100860330D01*
X149934931Y-100653539D01*
X150146132Y-100464838D01*
X160014833Y-100464838D01*
X159671057Y-100606883D01*
X159407808Y-100869673D01*
X159265162Y-101213201D01*
X159264838Y-101585167D01*
X159406883Y-101928943D01*
X159669673Y-102192192D01*
X160013201Y-102334838D01*
X160060077Y-102334879D01*
X160262599Y-102537401D01*
X160509161Y-102702148D01*
X160800000Y-102760000D01*
X166300000Y-102760000D01*
X166590839Y-102702148D01*
X166837401Y-102537401D01*
X167937401Y-101437401D01*
X168102148Y-101190839D01*
X168160000Y-100900000D01*
X168160000Y-97414802D01*
X168839680Y-96735122D01*
X168885167Y-96735162D01*
X169228943Y-96593117D01*
X169492192Y-96330327D01*
X169634838Y-95986799D01*
X169635162Y-95614833D01*
X169493117Y-95271057D01*
X169230327Y-95007808D01*
X168886799Y-94865162D01*
X168514833Y-94864838D01*
X168171057Y-95006883D01*
X165358834Y-95006883D01*
X165355978Y-94992526D01*
X165191231Y-94745964D01*
X163707866Y-93262599D01*
X163461304Y-93097852D01*
X163170465Y-93040000D01*
X157862463Y-93040000D01*
X157830327Y-93007808D01*
X157486799Y-92865162D01*
X157114833Y-92864838D01*
X156771057Y-93006883D01*
X156507808Y-93269673D01*
X156365162Y-93613201D01*
X156364838Y-93985167D01*
X156506883Y-94328943D01*
X156769673Y-94592192D01*
X157113201Y-94734838D01*
X157485167Y-94735162D01*
X157828943Y-94593117D01*
X157862118Y-94560000D01*
X162855663Y-94560000D01*
X163184332Y-94888669D01*
X163128251Y-94944653D01*
X162985605Y-95288181D01*
X162985564Y-95335057D01*
X160080621Y-98240000D01*
X155562463Y-98240000D01*
X155530327Y-98207808D01*
X155186799Y-98065162D01*
X154814833Y-98064838D01*
X154471057Y-98206883D01*
X154207808Y-98469673D01*
X154065162Y-98813201D01*
X154064838Y-99185167D01*
X154206883Y-99528943D01*
X154469673Y-99792192D01*
X154813201Y-99934838D01*
X155185167Y-99935162D01*
X155528943Y-99793117D01*
X155562118Y-99760000D01*
X160395423Y-99760000D01*
X160686262Y-99702148D01*
X160932824Y-99537401D01*
X163893830Y-96576395D01*
X163893830Y-97812567D01*
X163861638Y-97844703D01*
X163718992Y-98188231D01*
X163718668Y-98560197D01*
X163860713Y-98903973D01*
X164123503Y-99167222D01*
X164467031Y-99309868D01*
X164838997Y-99310192D01*
X165182773Y-99168147D01*
X165446022Y-98905357D01*
X165588668Y-98561829D01*
X165588992Y-98189863D01*
X165446947Y-97846087D01*
X165413830Y-97812912D01*
X165413830Y-95283365D01*
X165358834Y-95006883D01*
X168171057Y-95006883D01*
X165358834Y-95006883D01*
X165358834Y-95006883D01*
X168171057Y-95006883D01*
X167907808Y-95269673D01*
X167765162Y-95613201D01*
X167765121Y-95660077D01*
X166862599Y-96562599D01*
X166697852Y-96809161D01*
X166640000Y-97100000D01*
X166640000Y-100585198D01*
X165985198Y-101240000D01*
X161135140Y-101240000D01*
X161135162Y-101214833D01*
X160993117Y-100871057D01*
X160730327Y-100607808D01*
X160386799Y-100465162D01*
X160014833Y-100464838D01*
X150146132Y-100464838D01*
X150350732Y-100282036D01*
X150604709Y-99754791D01*
X150607358Y-99739026D01*
X150486217Y-99507000D01*
X149127000Y-99507000D01*
X149127000Y-99527000D01*
X148873000Y-99527000D01*
X148873000Y-99507000D01*
X147513783Y-99507000D01*
X147392642Y-99739026D01*
X147395291Y-99754791D01*
X147649268Y-100282036D01*
X148065069Y-100653539D01*
X147755585Y-100860330D01*
X147430729Y-101346511D01*
X147316655Y-101920000D01*
X147430729Y-102493489D01*
X147755585Y-102979670D01*
X148070366Y-103190000D01*
X147755585Y-103400330D01*
X147430729Y-103886511D01*
X147316655Y-104460000D01*
X147430729Y-105033489D01*
X147755585Y-105519670D01*
X147771367Y-105530215D01*
X147741877Y-105535937D01*
X147529073Y-105675727D01*
X147386623Y-105886760D01*
X147336560Y-106136400D01*
X147336560Y-107863600D01*
X147383537Y-108105723D01*
X147523327Y-108318527D01*
X147734360Y-108460977D01*
X147984000Y-108511040D01*
X150016000Y-108511040D01*
X150258123Y-108464063D01*
X150470927Y-108324273D01*
X150562251Y-108188980D01*
X170292200Y-108188980D01*
X150562251Y-108188980D01*
X150562251Y-108188980D01*
X170292200Y-108188980D01*
X169691091Y-108789041D01*
X147127000Y-108789041D01*
X147127000Y-98088046D01*
X148085680Y-98088046D01*
X147649268Y-98477964D01*
X147395291Y-99005209D01*
X147392642Y-99020974D01*
X147513783Y-99253000D01*
X148873000Y-99253000D01*
X148873000Y-98039076D01*
X149127000Y-98039076D01*
X148873000Y-98039076D01*
X148873000Y-98039076D01*
X149127000Y-98039076D01*
X149127000Y-99253000D01*
X150486217Y-99253000D01*
X150607358Y-99020974D01*
X150604709Y-99005209D01*
X150350732Y-98477964D01*
X149914320Y-98088046D01*
X149361913Y-97894816D01*
X149127000Y-98039076D01*
X148873000Y-98039076D01*
X148873000Y-98039076D01*
X148638087Y-97894816D01*
X148085680Y-98088046D01*
X147127000Y-98088046D01*
X147127000Y-87507000D01*
X147513783Y-87507000D01*
X147392642Y-87739026D01*
X147395291Y-87754791D01*
X147649268Y-88282036D01*
X148065069Y-88653539D01*
X147755585Y-88860330D01*
X147430729Y-89346511D01*
X147316655Y-89920000D01*
X147430729Y-90493489D01*
X147755585Y-90979670D01*
X148070366Y-91190000D01*
X147755585Y-91400330D01*
X147430729Y-91886511D01*
X147316655Y-92460000D01*
X147430729Y-93033489D01*
X147755585Y-93519670D01*
X147771367Y-93530215D01*
X147741877Y-93535937D01*
X147529073Y-93675727D01*
X147386623Y-93886760D01*
X147336560Y-94136400D01*
X147336560Y-95863600D01*
X147383537Y-96105723D01*
X147523327Y-96318527D01*
X147734360Y-96460977D01*
X147984000Y-96511040D01*
X150016000Y-96511040D01*
X150258123Y-96464063D01*
X150470927Y-96324273D01*
X150613377Y-96113240D01*
X150663440Y-95863600D01*
X150663440Y-94136400D01*
X150616463Y-93894277D01*
X150476673Y-93681473D01*
X150265640Y-93539023D01*
X150227037Y-93531282D01*
X150244415Y-93519670D01*
X150569271Y-93033489D01*
X150683345Y-92460000D01*
X150569271Y-91886511D01*
X150244415Y-91400330D01*
X149929634Y-91190000D01*
X150244415Y-90979670D01*
X150569271Y-90493489D01*
X150683345Y-89920000D01*
X150569271Y-89346511D01*
X150244415Y-88860330D01*
X149934931Y-88653539D01*
X150350732Y-88282036D01*
X150604709Y-87754791D01*
X150607358Y-87739026D01*
X150486217Y-87507000D01*
X149127000Y-87507000D01*
X149127000Y-87527000D01*
X148873000Y-87527000D01*
X148873000Y-87507000D01*
X147513783Y-87507000D01*
X147127000Y-87507000D01*
X147127000Y-87285750D01*
X172341400Y-87285750D01*
X172341400Y-88142309D01*
X172438073Y-88375698D01*
X172616701Y-88554327D01*
X172850090Y-88651000D01*
X173554250Y-88651000D01*
X173713000Y-88492250D01*
X173713000Y-87127000D01*
X173967000Y-87127000D01*
X173713000Y-87127000D01*
X173713000Y-87127000D01*
X173967000Y-87127000D01*
X173967000Y-88492250D01*
X174125750Y-88651000D01*
X174829910Y-88651000D01*
X175063299Y-88554327D01*
X175241927Y-88375698D01*
X175323759Y-88178139D01*
X175477964Y-88350732D01*
X176005209Y-88604709D01*
X176020974Y-88607358D01*
X176253000Y-88486217D01*
X176253000Y-87127000D01*
X173967000Y-87127000D01*
X173713000Y-87127000D01*
X173713000Y-87127000D01*
X172500150Y-87127000D01*
X150552001Y-87127000D01*
X150607358Y-87020974D01*
X150604709Y-87005209D01*
X150350732Y-86477964D01*
X149914320Y-86088046D01*
X149361913Y-85894816D01*
X149127000Y-86039076D01*
X149127000Y-87253000D01*
X150486217Y-87253000D01*
X150552001Y-87127000D01*
X172500150Y-87127000D01*
X150552001Y-87127000D01*
X150552001Y-87127000D01*
X172500150Y-87127000D01*
X172341400Y-87285750D01*
X147127000Y-87285750D01*
X147127000Y-86088046D01*
X148085680Y-86088046D01*
X147649268Y-86477964D01*
X147395291Y-87005209D01*
X147392642Y-87020974D01*
X147513783Y-87253000D01*
X148873000Y-87253000D01*
X148873000Y-86039076D01*
X148638087Y-85894816D01*
X148085680Y-86088046D01*
X147127000Y-86088046D01*
X147127000Y-85349000D01*
X172850090Y-85349000D01*
X172616701Y-85445673D01*
X172438073Y-85624302D01*
X172341400Y-85857691D01*
X172341400Y-86714250D01*
X172500150Y-86873000D01*
X173713000Y-86873000D01*
X173713000Y-85507750D01*
X173554250Y-85349000D01*
X174125750Y-85349000D01*
X173554250Y-85349000D01*
X173554250Y-85349000D01*
X174125750Y-85349000D01*
X173967000Y-85507750D01*
X173967000Y-86873000D01*
X176253000Y-86873000D01*
X176253000Y-85513783D01*
X176020974Y-85392642D01*
X176005209Y-85395291D01*
X175477964Y-85649268D01*
X175323759Y-85821861D01*
X175241927Y-85624302D01*
X175063299Y-85445673D01*
X174829910Y-85349000D01*
X174125750Y-85349000D01*
X173554250Y-85349000D01*
X173554250Y-85349000D01*
X172850090Y-85349000D01*
X147127000Y-85349000D01*
X147127000Y-85127000D01*
X183532198Y-85127000D01*
X183462599Y-85196599D01*
X183462599Y-85196599D01*
G37*
X183462599Y-85196599D02*
X183297852Y-85443161D01*
X183280983Y-85527968D01*
X182940330Y-85755585D01*
X182730000Y-86070366D01*
X182519670Y-85755585D01*
X182033489Y-85430729D01*
X181460000Y-85316655D01*
X180886511Y-85430729D01*
X180400330Y-85755585D01*
X180190000Y-86070366D01*
X179979670Y-85755585D01*
X179493489Y-85430729D01*
X178920000Y-85316655D01*
X178346511Y-85430729D01*
X177860330Y-85755585D01*
X177653539Y-86065069D01*
X177282036Y-85649268D01*
X176754791Y-85395291D01*
X176739026Y-85392642D01*
X176507000Y-85513783D01*
X176507000Y-86873000D01*
X176527000Y-86873000D01*
X176527000Y-87127000D01*
X176507000Y-87127000D01*
X176507000Y-88486217D01*
X176739026Y-88607358D01*
X176754791Y-88604709D01*
X177282036Y-88350732D01*
X177653539Y-87934931D01*
X177860330Y-88244415D01*
X178346511Y-88569271D01*
X178422819Y-88584449D01*
X173949433Y-93057835D01*
X173703396Y-93426055D01*
X173616999Y-93860401D01*
X173616999Y-104651999D01*
X173703396Y-105086345D01*
X173928215Y-105422810D01*
X173949433Y-105454565D01*
X174855571Y-106360703D01*
X174855571Y-127641601D01*
X174744966Y-127602233D01*
X174194462Y-127630195D01*
X173815735Y-127787069D01*
X173747675Y-128028070D01*
X174540000Y-128820395D01*
X174554143Y-128806253D01*
X174733748Y-128985858D01*
X174719605Y-129000000D01*
X174733748Y-129014143D01*
X174554143Y-129193748D01*
X174540000Y-129179605D01*
X173747675Y-129971930D01*
X173815735Y-130212931D01*
X174335034Y-130397767D01*
X174855571Y-130371327D01*
X174855571Y-148641601D01*
X174744966Y-148602233D01*
X174194462Y-148630195D01*
X173815735Y-148787069D01*
X173747675Y-149028070D01*
X174540000Y-149820395D01*
X174554143Y-149806253D01*
X174733748Y-149985858D01*
X174719605Y-150000000D01*
X174733748Y-150014143D01*
X174554143Y-150193748D01*
X174540000Y-150179605D01*
X173747675Y-150971930D01*
X173815735Y-151212931D01*
X174335034Y-151397767D01*
X174855571Y-151371327D01*
X174855571Y-152694333D01*
X174941968Y-153128679D01*
X174987909Y-153197434D01*
X175188005Y-153496899D01*
X177893672Y-156202566D01*
X178261892Y-156448603D01*
X178696238Y-156535000D01*
X201590600Y-156535000D01*
X202024946Y-156448603D01*
X202393166Y-156202566D01*
X204940177Y-153655555D01*
X205000000Y-153667454D01*
X205622090Y-153543713D01*
X206149473Y-153191327D01*
X206501859Y-152663944D01*
X206625600Y-152041854D01*
X206625600Y-149988932D01*
X207460733Y-149153800D01*
X208619921Y-149153800D01*
X208498141Y-149336056D01*
X208374400Y-149958146D01*
X208374400Y-152041854D01*
X208498141Y-152663944D01*
X208850527Y-153191327D01*
X209377910Y-153543713D01*
X210000000Y-153667454D01*
X210622090Y-153543713D01*
X211149473Y-153191327D01*
X211501859Y-152663944D01*
X211625600Y-152041854D01*
X211625600Y-149958146D01*
X211501859Y-149336056D01*
X211380079Y-149153800D01*
X218619921Y-149153800D01*
X218498141Y-149336056D01*
X218374400Y-149958146D01*
X218374400Y-152041854D01*
X218498141Y-152663944D01*
X218850527Y-153191327D01*
X219377910Y-153543713D01*
X220000000Y-153667454D01*
X220622090Y-153543713D01*
X221149473Y-153191327D01*
X221501859Y-152663944D01*
X221625600Y-152041854D01*
X221625600Y-149958146D01*
X221501859Y-149336056D01*
X221380079Y-149153800D01*
X223619921Y-149153800D01*
X223498141Y-149336056D01*
X223374400Y-149958146D01*
X223374400Y-152041854D01*
X223498141Y-152663944D01*
X223850527Y-153191327D01*
X224377910Y-153543713D01*
X225000000Y-153667454D01*
X225622090Y-153543713D01*
X226149473Y-153191327D01*
X226501859Y-152663944D01*
X226625600Y-152041854D01*
X226625600Y-150246732D01*
X231181434Y-154802566D01*
X231549654Y-155048603D01*
X231984000Y-155135000D01*
X232359649Y-155135000D01*
X232383537Y-155258123D01*
X232523327Y-155470927D01*
X232734360Y-155613377D01*
X232984000Y-155663440D01*
X235016000Y-155663440D01*
X235258123Y-155616463D01*
X235470927Y-155476673D01*
X235578738Y-155316957D01*
X235675182Y-155406385D01*
X236157056Y-155605975D01*
X236413000Y-155486836D01*
X236413000Y-154127000D01*
X236667000Y-154127000D01*
X236667000Y-155486836D01*
X236922944Y-155605975D01*
X237404818Y-155406385D01*
X237877188Y-154968379D01*
X238145983Y-154382946D01*
X238111672Y-154308909D01*
X263789041Y-154308909D01*
X264573459Y-154634628D01*
X265422815Y-154635370D01*
X266207800Y-154311020D01*
X266808909Y-153710959D01*
X267134628Y-152926541D01*
X267135370Y-152077185D01*
X266811020Y-151292200D01*
X266210959Y-150691091D01*
X265426541Y-150365372D01*
X264577185Y-150364630D01*
X263792200Y-150688980D01*
X247384985Y-150688980D01*
X247086799Y-150565162D01*
X247039923Y-150565121D01*
X244437401Y-147962599D01*
X244190839Y-147797852D01*
X243900000Y-147740000D01*
X237314802Y-147740000D01*
X236502714Y-146927912D01*
X236828943Y-146793117D01*
X237092192Y-146530327D01*
X237234838Y-146186799D01*
X237234921Y-146091452D01*
X237302148Y-145990839D01*
X237360000Y-145700000D01*
X237360000Y-143162463D01*
X237392192Y-143130327D01*
X237443402Y-143007000D01*
X259666183Y-143007000D01*
X259545042Y-143239026D01*
X259717312Y-143654947D01*
X260111510Y-144086821D01*
X260640973Y-144334968D01*
X260873000Y-144214469D01*
X260873000Y-143007000D01*
X259666183Y-143007000D01*
X237443402Y-143007000D01*
X237534838Y-142786799D01*
X237535162Y-142414833D01*
X237393117Y-142071057D01*
X237130327Y-141807808D01*
X236786799Y-141665162D01*
X236414833Y-141664838D01*
X236071057Y-141806883D01*
X235807808Y-142069673D01*
X235665162Y-142413201D01*
X235664838Y-142785167D01*
X235806883Y-143128943D01*
X235840000Y-143162118D01*
X235840000Y-145178396D01*
X235771057Y-145206883D01*
X235507808Y-145469673D01*
X235371864Y-145797062D01*
X232435122Y-142860320D01*
X232435162Y-142814833D01*
X232293117Y-142471057D01*
X232030327Y-142207808D01*
X231686799Y-142065162D01*
X231314833Y-142064838D01*
X230971057Y-142206883D01*
X230707808Y-142469673D01*
X230565162Y-142813201D01*
X230564838Y-143185167D01*
X230706883Y-143528943D01*
X230969673Y-143792192D01*
X231313201Y-143934838D01*
X231360077Y-143934879D01*
X236462599Y-149037401D01*
X236709161Y-149202148D01*
X237000000Y-149260000D01*
X243585198Y-149260000D01*
X245964878Y-151639680D01*
X245964838Y-151685167D01*
X246106883Y-152028943D01*
X246369673Y-152292192D01*
X246713201Y-152434838D01*
X247085167Y-152435162D01*
X247428943Y-152293117D01*
X247692192Y-152030327D01*
X247834838Y-151686799D01*
X247835162Y-151314833D01*
X247693117Y-150971057D01*
X247430327Y-150707808D01*
X247384985Y-150688980D01*
X263792200Y-150688980D01*
X247384985Y-150688980D01*
X247384985Y-150688980D01*
X263792200Y-150688980D01*
X263191091Y-151289041D01*
X262865372Y-152073459D01*
X262864630Y-152922815D01*
X237759846Y-152922815D01*
X237404818Y-152593615D01*
X236922944Y-152394025D01*
X236667000Y-152513164D01*
X236667000Y-153873000D01*
X238027367Y-153873000D01*
X238145983Y-153617054D01*
X237877188Y-153031621D01*
X237759846Y-152922815D01*
X262864630Y-152922815D01*
X237759846Y-152922815D01*
X237759846Y-152922815D01*
X262864630Y-152922815D01*
X263188980Y-153707800D01*
X263789041Y-154308909D01*
X238111672Y-154308909D01*
X238027367Y-154127000D01*
X236667000Y-154127000D01*
X236413000Y-154127000D01*
X236413000Y-154127000D01*
X236393000Y-154127000D01*
X236393000Y-153873000D01*
X236413000Y-153873000D01*
X236413000Y-152513164D01*
X236157056Y-152394025D01*
X235675182Y-152593615D01*
X235578164Y-152683575D01*
X235476673Y-152529073D01*
X235265640Y-152386623D01*
X235016000Y-152336560D01*
X232984000Y-152336560D01*
X232741877Y-152383537D01*
X232529073Y-152523327D01*
X232386623Y-152734360D01*
X232376077Y-152786945D01*
X226805366Y-147216234D01*
X226575092Y-147062370D01*
X226437146Y-146970197D01*
X226002800Y-146883800D01*
X206990600Y-146883800D01*
X206556255Y-146970196D01*
X206188034Y-147216233D01*
X205059822Y-148344445D01*
X205000000Y-148332546D01*
X204377910Y-148456287D01*
X203850527Y-148808673D01*
X203498141Y-149336056D01*
X203374400Y-149958146D01*
X203374400Y-152011068D01*
X201120468Y-154265000D01*
X180706936Y-154265000D01*
X180746757Y-154169100D01*
X180747194Y-153667454D01*
X193000000Y-153667454D01*
X193622090Y-153543713D01*
X194149473Y-153191327D01*
X194501859Y-152663944D01*
X194625600Y-152041854D01*
X194625600Y-151127000D01*
X198374400Y-151127000D01*
X198374400Y-152117600D01*
X198546742Y-152730023D01*
X198940330Y-153229876D01*
X199495243Y-153541060D01*
X199621041Y-153571411D01*
X199873000Y-153451942D01*
X199873000Y-151127000D01*
X200127000Y-151127000D01*
X199873000Y-151127000D01*
X199873000Y-151127000D01*
X200127000Y-151127000D01*
X200127000Y-153451942D01*
X200378959Y-153571411D01*
X200504757Y-153541060D01*
X201059670Y-153229876D01*
X201453258Y-152730023D01*
X201625600Y-152117600D01*
X201625600Y-151127000D01*
X200127000Y-151127000D01*
X199873000Y-151127000D01*
X199873000Y-151127000D01*
X198374400Y-151127000D01*
X194625600Y-151127000D01*
X194625600Y-149958146D01*
X194501859Y-149336056D01*
X194149473Y-148808673D01*
X193626061Y-148458940D01*
X199495243Y-148458940D01*
X198940330Y-148770124D01*
X198546742Y-149269977D01*
X198374400Y-149882400D01*
X198374400Y-150873000D01*
X199873000Y-150873000D01*
X199873000Y-148548058D01*
X200127000Y-148548058D01*
X200127000Y-150873000D01*
X201625600Y-150873000D01*
X201625600Y-149882400D01*
X201453258Y-149269977D01*
X201059670Y-148770124D01*
X200504757Y-148458940D01*
X200378959Y-148428589D01*
X200127000Y-148548058D01*
X199873000Y-148548058D01*
X199873000Y-148548058D01*
X199621041Y-148428589D01*
X199495243Y-148458940D01*
X193626061Y-148458940D01*
X193622090Y-148456287D01*
X193000000Y-148332546D01*
X192377910Y-148456287D01*
X188493761Y-148456287D01*
X188378959Y-148428589D01*
X188127000Y-148548058D01*
X188127000Y-150873000D01*
X189625600Y-150873000D01*
X189625600Y-149882400D01*
X189453258Y-149269977D01*
X189059670Y-148770124D01*
X188504757Y-148458940D01*
X188493761Y-148456287D01*
X192377910Y-148456287D01*
X188493761Y-148456287D01*
X188493761Y-148456287D01*
X192377910Y-148456287D01*
X191850527Y-148808673D01*
X191498141Y-149336056D01*
X191374400Y-149958146D01*
X191374400Y-152041854D01*
X189625600Y-152041854D01*
X189625600Y-151127000D01*
X188127000Y-151127000D01*
X188127000Y-153451942D01*
X188378959Y-153571411D01*
X188504757Y-153541060D01*
X189059670Y-153229876D01*
X189453258Y-152730023D01*
X189625600Y-152117600D01*
X189625600Y-152041854D01*
X191374400Y-152041854D01*
X189625600Y-152041854D01*
X189625600Y-152041854D01*
X191374400Y-152041854D01*
X191498141Y-152663944D01*
X191850527Y-153191327D01*
X192377910Y-153543713D01*
X193000000Y-153667454D01*
X180747194Y-153667454D01*
X180747242Y-153613339D01*
X180535010Y-153099697D01*
X180142370Y-152706371D01*
X179934488Y-152620051D01*
X180140303Y-152535010D01*
X180533629Y-152142370D01*
X180746757Y-151629100D01*
X180747195Y-151127000D01*
X186374400Y-151127000D01*
X186374400Y-152117600D01*
X186546742Y-152730023D01*
X186940330Y-153229876D01*
X187495243Y-153541060D01*
X187621041Y-153571411D01*
X187873000Y-153451942D01*
X187873000Y-151127000D01*
X186374400Y-151127000D01*
X180747195Y-151127000D01*
X180747242Y-151073339D01*
X180535010Y-150559697D01*
X180142370Y-150166371D01*
X179934488Y-150080051D01*
X180140303Y-149995010D01*
X180533629Y-149602370D01*
X180746757Y-149089100D01*
X180747242Y-148533339D01*
X180716502Y-148458940D01*
X187495243Y-148458940D01*
X186940330Y-148770124D01*
X186546742Y-149269977D01*
X186374400Y-149882400D01*
X186374400Y-150873000D01*
X187873000Y-150873000D01*
X187873000Y-148548058D01*
X187621041Y-148428589D01*
X187495243Y-148458940D01*
X180716502Y-148458940D01*
X180535010Y-148019697D01*
X180142370Y-147626371D01*
X179934488Y-147540051D01*
X180140303Y-147455010D01*
X180533629Y-147062370D01*
X180746757Y-146549100D01*
X180747242Y-145993339D01*
X180535010Y-145479697D01*
X180142370Y-145086371D01*
X179934488Y-145000051D01*
X180140303Y-144915010D01*
X180533629Y-144522370D01*
X180746757Y-144009100D01*
X180747242Y-143453339D01*
X180535010Y-142939697D01*
X180142370Y-142546371D01*
X180110000Y-142532930D01*
X180110000Y-142387531D01*
X180140303Y-142375010D01*
X180533629Y-141982370D01*
X180655454Y-141688980D01*
X213292200Y-141688980D01*
X212691091Y-142289041D01*
X212365372Y-143073459D01*
X212364630Y-143922815D01*
X212688980Y-144707800D01*
X213289041Y-145308909D01*
X214073459Y-145634628D01*
X214922815Y-145635370D01*
X215707800Y-145311020D01*
X216308909Y-144710959D01*
X216634628Y-143926541D01*
X216635370Y-143077185D01*
X216311020Y-142292200D01*
X215710959Y-141691091D01*
X214926541Y-141365372D01*
X214077185Y-141364630D01*
X213292200Y-141688980D01*
X180655454Y-141688980D01*
X180746757Y-141469100D01*
X180747242Y-140913339D01*
X180562819Y-140467000D01*
X259666183Y-140467000D01*
X259545042Y-140699026D01*
X259717312Y-141114947D01*
X260111510Y-141546821D01*
X260246313Y-141610000D01*
X260111510Y-141673179D01*
X259717312Y-142105053D01*
X259545042Y-142520974D01*
X259666183Y-142753000D01*
X260873000Y-142753000D01*
X260873000Y-140467000D01*
X259666183Y-140467000D01*
X180562819Y-140467000D01*
X180535010Y-140399697D01*
X180142370Y-140006371D01*
X180059427Y-139971930D01*
X216667675Y-139971930D01*
X216735735Y-140212931D01*
X217255034Y-140397767D01*
X217805538Y-140369805D01*
X218184265Y-140212931D01*
X218252325Y-139971930D01*
X218072720Y-139792325D01*
X218431930Y-139792325D01*
X218672931Y-139724265D01*
X218731769Y-139558960D01*
X218824686Y-139783837D01*
X219214113Y-140173944D01*
X219723184Y-140385329D01*
X220274398Y-140385810D01*
X220783837Y-140175314D01*
X221173944Y-139785887D01*
X221385329Y-139276816D01*
X221385810Y-138725602D01*
X221175314Y-138216163D01*
X220785887Y-137826056D01*
X220276816Y-137614671D01*
X219725602Y-137614190D01*
X219216163Y-137824686D01*
X218194889Y-137824686D01*
X218184265Y-137787069D01*
X217664966Y-137602233D01*
X217114462Y-137630195D01*
X216735735Y-137787069D01*
X216667675Y-138028070D01*
X217460000Y-138820395D01*
X218252325Y-138028070D01*
X218194889Y-137824686D01*
X219216163Y-137824686D01*
X218194889Y-137824686D01*
X218194889Y-137824686D01*
X219216163Y-137824686D01*
X218826056Y-138214113D01*
X218736621Y-138429496D01*
X218672931Y-138275735D01*
X218431930Y-138207675D01*
X217639605Y-139000000D01*
X217280395Y-139000000D01*
X217280395Y-139000000D01*
X216488070Y-138207675D01*
X216247069Y-138275735D01*
X216062233Y-138795034D01*
X216090195Y-139345538D01*
X216247069Y-139724265D01*
X216488070Y-139792325D01*
X217280395Y-139000000D01*
X217639605Y-139000000D01*
X217280395Y-139000000D01*
X217280395Y-139000000D01*
X217639605Y-139000000D01*
X218431930Y-139792325D01*
X218072720Y-139792325D01*
X217460000Y-139179605D01*
X216667675Y-139971930D01*
X180059427Y-139971930D01*
X179934488Y-139920051D01*
X180140303Y-139835010D01*
X180533629Y-139442370D01*
X180547070Y-139410000D01*
X193963000Y-139410000D01*
X194253839Y-139352148D01*
X194366901Y-139276602D01*
X194392587Y-139287268D01*
X194923086Y-139287731D01*
X195413380Y-139085146D01*
X195788827Y-138710353D01*
X195992268Y-138220413D01*
X195992731Y-137689914D01*
X195790146Y-137199620D01*
X195415353Y-136824173D01*
X195093882Y-136690686D01*
X195351929Y-136583800D01*
X195413583Y-136348188D01*
X194659000Y-135593605D01*
X193904417Y-136348188D01*
X193966071Y-136583800D01*
X194245312Y-136682083D01*
X193904620Y-136822854D01*
X193529173Y-137197647D01*
X193325732Y-137687587D01*
X193325555Y-137890000D01*
X180547531Y-137890000D01*
X180535010Y-137859697D01*
X180142370Y-137466371D01*
X179934488Y-137380051D01*
X180140303Y-137295010D01*
X180533629Y-136902370D01*
X180547070Y-136870000D01*
X191423000Y-136870000D01*
X191713839Y-136812148D01*
X191960401Y-136647401D01*
X193316847Y-135290955D01*
X193341852Y-135751199D01*
X193489200Y-136106929D01*
X193724812Y-136168583D01*
X194479395Y-135414000D01*
X194838605Y-135414000D01*
X195593188Y-136168583D01*
X195828800Y-136106929D01*
X196004927Y-135606520D01*
X195976148Y-135076801D01*
X195828800Y-134721071D01*
X195593188Y-134659417D01*
X194838605Y-135414000D01*
X194479395Y-135414000D01*
X194479395Y-135414000D01*
X194465253Y-135399858D01*
X194644858Y-135220253D01*
X194659000Y-135234395D01*
X195413583Y-134479812D01*
X195351929Y-134244200D01*
X195072688Y-134145917D01*
X195413380Y-134005146D01*
X195788827Y-133630353D01*
X195992268Y-133140413D01*
X195992731Y-132609914D01*
X195790146Y-132119620D01*
X195415353Y-131744173D01*
X195093882Y-131610686D01*
X195351929Y-131503800D01*
X195413583Y-131268188D01*
X195233978Y-131088583D01*
X195593188Y-131088583D01*
X195828800Y-131026929D01*
X196004927Y-130526520D01*
X195976148Y-129996801D01*
X195828800Y-129641071D01*
X195593188Y-129579417D01*
X194838605Y-130334000D01*
X194479395Y-130334000D01*
X194479395Y-130334000D01*
X193724812Y-129579417D01*
X193489200Y-129641071D01*
X193313073Y-130141480D01*
X193341852Y-130671199D01*
X193489200Y-131026929D01*
X193724812Y-131088583D01*
X194479395Y-130334000D01*
X194838605Y-130334000D01*
X194479395Y-130334000D01*
X194479395Y-130334000D01*
X194838605Y-130334000D01*
X195593188Y-131088583D01*
X195233978Y-131088583D01*
X194659000Y-130513605D01*
X193904417Y-131268188D01*
X193966071Y-131503800D01*
X194245312Y-131602083D01*
X193904620Y-131742854D01*
X193529173Y-132117647D01*
X193325732Y-132607587D01*
X193325274Y-133132924D01*
X191108198Y-135350000D01*
X180547531Y-135350000D01*
X180535010Y-135319697D01*
X180142370Y-134926371D01*
X179629100Y-134713243D01*
X179073339Y-134712758D01*
X179022999Y-134733558D01*
X179022999Y-132900565D01*
X180974402Y-130949162D01*
X181139149Y-130702600D01*
X181197001Y-130411761D01*
X181197001Y-129016852D01*
X194321801Y-129016852D01*
X193966071Y-129164200D01*
X193904417Y-129399812D01*
X194659000Y-130154395D01*
X195413583Y-129399812D01*
X195351929Y-129164200D01*
X194851520Y-128988073D01*
X194321801Y-129016852D01*
X181197001Y-129016852D01*
X181197001Y-119720629D01*
X181177219Y-119621177D01*
X181139149Y-119429789D01*
X180974402Y-119183228D01*
X180727841Y-119018481D01*
X180553210Y-118983745D01*
X180535010Y-118939697D01*
X180142370Y-118546371D01*
X180110000Y-118532930D01*
X180110000Y-118387531D01*
X180140303Y-118375010D01*
X180533629Y-117982370D01*
X180746757Y-117469100D01*
X180747060Y-117121862D01*
X190432599Y-126807401D01*
X190679161Y-126972148D01*
X190970000Y-127030000D01*
X193533464Y-127030000D01*
X193902647Y-127399827D01*
X194392587Y-127603268D01*
X194923086Y-127603731D01*
X195413380Y-127401146D01*
X195788827Y-127026353D01*
X195799961Y-126999540D01*
X195937667Y-126972148D01*
X196184229Y-126807401D01*
X197862402Y-125129228D01*
X198027149Y-124882666D01*
X198085001Y-124591827D01*
X198085001Y-123399999D01*
X198068188Y-123315474D01*
X198027149Y-123109159D01*
X197862402Y-122862598D01*
X197709991Y-122710187D01*
X197709991Y-119617188D01*
X197852158Y-119404419D01*
X197910010Y-119113580D01*
X197910010Y-113689010D01*
X200875371Y-110723649D01*
X200893854Y-110768380D01*
X201069420Y-110944253D01*
X200996318Y-110993098D01*
X199362599Y-112626817D01*
X199197852Y-112873379D01*
X199140000Y-113164218D01*
X199140000Y-137557002D01*
X199197852Y-137847841D01*
X199362599Y-138094403D01*
X200783098Y-139514902D01*
X201029660Y-139679649D01*
X201320499Y-139737501D01*
X203237501Y-139737501D01*
X203528340Y-139679649D01*
X203774902Y-139514902D01*
X206081203Y-137208601D01*
X259598082Y-137208601D01*
X259586115Y-137226511D01*
X259472041Y-137800000D01*
X259586115Y-138373489D01*
X259910971Y-138859670D01*
X260234228Y-139075664D01*
X260111510Y-139133179D01*
X259717312Y-139565053D01*
X259545042Y-139980974D01*
X259666183Y-140213000D01*
X260873000Y-140213000D01*
X260873000Y-140193000D01*
X261127000Y-140193000D01*
X261127000Y-140213000D01*
X261147000Y-140213000D01*
X261147000Y-140467000D01*
X261127000Y-140467000D01*
X261127000Y-142753000D01*
X261147000Y-142753000D01*
X261147000Y-143007000D01*
X261127000Y-143007000D01*
X261127000Y-144214469D01*
X261359027Y-144334968D01*
X261888490Y-144086821D01*
X262270008Y-143668839D01*
X262450971Y-143939670D01*
X262937152Y-144264526D01*
X263510641Y-144378600D01*
X263569359Y-144378600D01*
X264142848Y-144264526D01*
X264629029Y-143939670D01*
X264953885Y-143453489D01*
X265067959Y-142880000D01*
X264953885Y-142306511D01*
X264629029Y-141820330D01*
X264314248Y-141610000D01*
X264629029Y-141399670D01*
X264953885Y-140913489D01*
X265067959Y-140340000D01*
X264953885Y-139766511D01*
X264735002Y-139438930D01*
X266537401Y-137636531D01*
X266702148Y-137389969D01*
X266760000Y-137099130D01*
X266760000Y-122657596D01*
X267178919Y-122238677D01*
X267343666Y-121992116D01*
X267355342Y-121933417D01*
X267383953Y-121789579D01*
X267871223Y-156873000D01*
X147127000Y-156873000D01*
X147127000Y-155286757D01*
X166370900Y-155286757D01*
X166926661Y-155287242D01*
X167440303Y-155075010D01*
X167833629Y-154682370D01*
X168046757Y-154169100D01*
X168047242Y-153613339D01*
X167835010Y-153099697D01*
X167442370Y-152706371D01*
X167250273Y-152626605D01*
X167381143Y-152572397D01*
X167450608Y-152330213D01*
X166650000Y-151529605D01*
X165849392Y-152330213D01*
X163033323Y-152330213D01*
X162811020Y-151792200D01*
X162210959Y-151191091D01*
X161426541Y-150865372D01*
X160577185Y-150864630D01*
X159792200Y-151188980D01*
X159191091Y-151789041D01*
X158865372Y-152573459D01*
X158864630Y-153422815D01*
X159188980Y-154207800D01*
X159789041Y-154808909D01*
X160573459Y-155134628D01*
X161422815Y-155135370D01*
X162207800Y-154811020D01*
X162808909Y-154210959D01*
X163134628Y-153426541D01*
X163135370Y-152577185D01*
X163033323Y-152330213D01*
X165849392Y-152330213D01*
X163033323Y-152330213D01*
X163033323Y-152330213D01*
X165849392Y-152330213D01*
X165918857Y-152572397D01*
X166059318Y-152622509D01*
X165859697Y-152704990D01*
X165466371Y-153097630D01*
X165253243Y-153610900D01*
X165252758Y-154166661D01*
X165464990Y-154680303D01*
X165857630Y-155073629D01*
X166370900Y-155286757D01*
X147127000Y-155286757D01*
X147127000Y-139881400D01*
X149815255Y-139881400D01*
X149241766Y-139995474D01*
X148755585Y-140320330D01*
X148430729Y-140806511D01*
X148316655Y-141380000D01*
X148430729Y-141953489D01*
X148755585Y-142439670D01*
X149070366Y-142650000D01*
X148755585Y-142860330D01*
X148430729Y-143346511D01*
X148316655Y-143920000D01*
X148430729Y-144493489D01*
X148755585Y-144979670D01*
X149070366Y-145190000D01*
X148755585Y-145400330D01*
X148430729Y-145886511D01*
X148316655Y-146460000D01*
X148430729Y-147033489D01*
X148755585Y-147519670D01*
X148771367Y-147530215D01*
X148741877Y-147535937D01*
X148529073Y-147675727D01*
X148386623Y-147886760D01*
X148336560Y-148136400D01*
X148336560Y-149863600D01*
X148383537Y-150105723D01*
X148523327Y-150318527D01*
X148734360Y-150460977D01*
X148984000Y-150511040D01*
X151016000Y-150511040D01*
X151258123Y-150464063D01*
X151470927Y-150324273D01*
X151613377Y-150113240D01*
X151663440Y-149863600D01*
X151663440Y-148932116D01*
X151808673Y-149149473D01*
X152336056Y-149501859D01*
X152958146Y-149625600D01*
X155041854Y-149625600D01*
X155663944Y-149501859D01*
X156191327Y-149149473D01*
X156543713Y-148622090D01*
X156667454Y-148000000D01*
X156543713Y-147377910D01*
X156191327Y-146850527D01*
X155663944Y-146498141D01*
X155041854Y-146374400D01*
X152958146Y-146374400D01*
X152336056Y-146498141D01*
X151808673Y-146850527D01*
X151456287Y-147377910D01*
X151405466Y-147633407D01*
X151265640Y-147539023D01*
X151227037Y-147531282D01*
X151244415Y-147519670D01*
X151569271Y-147033489D01*
X151683345Y-146460000D01*
X151569271Y-145886511D01*
X151244415Y-145400330D01*
X150929634Y-145190000D01*
X151244415Y-144979670D01*
X151569271Y-144493489D01*
X151676922Y-143952293D01*
X151808673Y-144149473D01*
X152336056Y-144501859D01*
X152958146Y-144625600D01*
X155041854Y-144625600D01*
X155663944Y-144501859D01*
X156191327Y-144149473D01*
X156543713Y-143622090D01*
X156667454Y-143000000D01*
X156543713Y-142377910D01*
X156191327Y-141850527D01*
X155663944Y-141498141D01*
X155041854Y-141374400D01*
X152958146Y-141374400D01*
X152336056Y-141498141D01*
X151808673Y-141850527D01*
X151456287Y-142377910D01*
X151333737Y-142994010D01*
X151244415Y-142860330D01*
X150929634Y-142650000D01*
X151244415Y-142439670D01*
X151569271Y-141953489D01*
X151683345Y-141380000D01*
X151569271Y-140806511D01*
X151244415Y-140320330D01*
X150758234Y-139995474D01*
X150184745Y-139881400D01*
X149815255Y-139881400D01*
X147127000Y-139881400D01*
X147127000Y-139833629D01*
X165857630Y-139833629D01*
X166065512Y-139919949D01*
X165859697Y-140004990D01*
X165466371Y-140397630D01*
X165253243Y-140910900D01*
X165252758Y-141466661D01*
X165464990Y-141980303D01*
X165857630Y-142373629D01*
X166065512Y-142459949D01*
X165859697Y-142544990D01*
X165466371Y-142937630D01*
X165253243Y-143450900D01*
X165252758Y-144006661D01*
X165464990Y-144520303D01*
X165857630Y-144913629D01*
X166065512Y-144999949D01*
X165859697Y-145084990D01*
X165466371Y-145477630D01*
X165253243Y-145990900D01*
X165252758Y-146546661D01*
X165464990Y-147060303D01*
X165857630Y-147453629D01*
X166065512Y-147539949D01*
X165859697Y-147624990D01*
X165809600Y-147675000D01*
X159180600Y-147675000D01*
X158746254Y-147761397D01*
X158451119Y-147958600D01*
X158378034Y-148007434D01*
X155011068Y-151374400D01*
X152958146Y-151374400D01*
X152336056Y-151498141D01*
X151808673Y-151850527D01*
X151456287Y-152377910D01*
X151332546Y-153000000D01*
X151456287Y-153622090D01*
X151808673Y-154149473D01*
X152336056Y-154501859D01*
X152958146Y-154625600D01*
X155041854Y-154625600D01*
X155663944Y-154501859D01*
X156191327Y-154149473D01*
X156543713Y-153622090D01*
X156667454Y-153000000D01*
X156655555Y-152940177D01*
X158976875Y-150618857D01*
X165427603Y-150618857D01*
X165240856Y-151142302D01*
X165268638Y-151697368D01*
X165427603Y-152081143D01*
X165669787Y-152150608D01*
X166470395Y-151350000D01*
X166829605Y-151350000D01*
X167630213Y-152150608D01*
X167872397Y-152081143D01*
X168059144Y-151557698D01*
X168031362Y-151002632D01*
X167872397Y-150618857D01*
X167630213Y-150549392D01*
X166829605Y-151350000D01*
X166470395Y-151350000D01*
X166470395Y-151350000D01*
X165669787Y-150549392D01*
X165427603Y-150618857D01*
X158976875Y-150618857D01*
X159650732Y-149945000D01*
X165809086Y-149945000D01*
X165857630Y-149993629D01*
X166049727Y-150073395D01*
X165918857Y-150127603D01*
X165849392Y-150369787D01*
X166650000Y-151170395D01*
X167450608Y-150369787D01*
X167381143Y-150127603D01*
X167240682Y-150077491D01*
X167440303Y-149995010D01*
X167833629Y-149602370D01*
X168046757Y-149089100D01*
X168046987Y-148824686D01*
X171216163Y-148824686D01*
X170826056Y-149214113D01*
X170614671Y-149723184D01*
X170614190Y-150274398D01*
X170824686Y-150783837D01*
X171214113Y-151173944D01*
X171723184Y-151385329D01*
X172274398Y-151385810D01*
X172783837Y-151175314D01*
X173173944Y-150785887D01*
X173263379Y-150570504D01*
X173327069Y-150724265D01*
X173568070Y-150792325D01*
X174360395Y-150000000D01*
X173568070Y-149207675D01*
X173327069Y-149275735D01*
X173268231Y-149441040D01*
X173175314Y-149216163D01*
X172785887Y-148826056D01*
X172276816Y-148614671D01*
X171725602Y-148614190D01*
X171216163Y-148824686D01*
X168046987Y-148824686D01*
X168047242Y-148533339D01*
X167835010Y-148019697D01*
X167442370Y-147626371D01*
X167234488Y-147540051D01*
X167440303Y-147455010D01*
X167833629Y-147062370D01*
X168046757Y-146549100D01*
X168047242Y-145993339D01*
X167835010Y-145479697D01*
X167442370Y-145086371D01*
X167234488Y-145000051D01*
X167440303Y-144915010D01*
X167833629Y-144522370D01*
X168046757Y-144009100D01*
X168047242Y-143453339D01*
X167835010Y-142939697D01*
X167442370Y-142546371D01*
X167234488Y-142460051D01*
X167440303Y-142375010D01*
X167833629Y-141982370D01*
X168046757Y-141469100D01*
X168047242Y-140913339D01*
X167835010Y-140399697D01*
X167442370Y-140006371D01*
X167234488Y-139920051D01*
X167440303Y-139835010D01*
X167833629Y-139442370D01*
X168046757Y-138929100D01*
X168047242Y-138373339D01*
X167835010Y-137859697D01*
X167442370Y-137466371D01*
X167250273Y-137386605D01*
X167381143Y-137332397D01*
X167450608Y-137090213D01*
X166650000Y-136289605D01*
X165849392Y-137090213D01*
X156351481Y-137090213D01*
X156191327Y-136850527D01*
X155663944Y-136498141D01*
X155041854Y-136374400D01*
X152958146Y-136374400D01*
X152336056Y-136498141D01*
X151808673Y-136850527D01*
X151456287Y-137377910D01*
X151332546Y-138000000D01*
X151456287Y-138622090D01*
X151808673Y-139149473D01*
X152336056Y-139501859D01*
X152958146Y-139625600D01*
X155041854Y-139625600D01*
X155663944Y-139501859D01*
X156191327Y-139149473D01*
X156543713Y-138622090D01*
X156667454Y-138000000D01*
X156543713Y-137377910D01*
X156351481Y-137090213D01*
X165849392Y-137090213D01*
X156351481Y-137090213D01*
X156351481Y-137090213D01*
X165849392Y-137090213D01*
X165918857Y-137332397D01*
X166059318Y-137382509D01*
X165859697Y-137464990D01*
X165466371Y-137857630D01*
X165253243Y-138370900D01*
X165252758Y-138926661D01*
X165464990Y-139440303D01*
X165857630Y-139833629D01*
X147127000Y-139833629D01*
X147127000Y-135378857D01*
X165427603Y-135378857D01*
X165240856Y-135902302D01*
X165268638Y-136457368D01*
X165427603Y-136841143D01*
X165669787Y-136910608D01*
X166470395Y-136110000D01*
X166829605Y-136110000D01*
X167630213Y-136910608D01*
X167872397Y-136841143D01*
X168059144Y-136317698D01*
X168031362Y-135762632D01*
X167872397Y-135378857D01*
X167630213Y-135309392D01*
X166829605Y-136110000D01*
X166470395Y-136110000D01*
X166470395Y-136110000D01*
X165669787Y-135309392D01*
X165427603Y-135378857D01*
X147127000Y-135378857D01*
X147127000Y-134728638D01*
X166302632Y-134728638D01*
X165918857Y-134887603D01*
X165849392Y-135129787D01*
X166650000Y-135930395D01*
X167450608Y-135129787D01*
X167381143Y-134887603D01*
X166857698Y-134700856D01*
X166302632Y-134728638D01*
X147127000Y-134728638D01*
X147127000Y-130680303D01*
X165464990Y-130680303D01*
X165857630Y-131073629D01*
X166370900Y-131286757D01*
X166926661Y-131287242D01*
X167440303Y-131075010D01*
X167833629Y-130682370D01*
X168046757Y-130169100D01*
X168047242Y-129613339D01*
X167835010Y-129099697D01*
X167442370Y-128706371D01*
X167250273Y-128626605D01*
X167381143Y-128572397D01*
X167450608Y-128330213D01*
X167334508Y-128214113D01*
X170826056Y-128214113D01*
X170614671Y-128723184D01*
X170614190Y-129274398D01*
X170824686Y-129783837D01*
X171214113Y-130173944D01*
X171723184Y-130385329D01*
X172274398Y-130385810D01*
X172783837Y-130175314D01*
X173173944Y-129785887D01*
X173263379Y-129570504D01*
X173327069Y-129724265D01*
X173568070Y-129792325D01*
X174360395Y-129000000D01*
X173568070Y-128207675D01*
X173327069Y-128275735D01*
X173268231Y-128441040D01*
X173175314Y-128216163D01*
X172785887Y-127826056D01*
X172276816Y-127614671D01*
X171725602Y-127614190D01*
X171216163Y-127824686D01*
X167963891Y-127824686D01*
X168059144Y-127557698D01*
X168031362Y-127002632D01*
X167872397Y-126618857D01*
X167630213Y-126549392D01*
X166829605Y-127350000D01*
X167630213Y-128150608D01*
X167872397Y-128081143D01*
X167963891Y-127824686D01*
X171216163Y-127824686D01*
X167963891Y-127824686D01*
X167963891Y-127824686D01*
X171216163Y-127824686D01*
X170826056Y-128214113D01*
X167334508Y-128214113D01*
X166650000Y-127529605D01*
X165849392Y-128330213D01*
X156511843Y-128330213D01*
X156191327Y-127850527D01*
X155663944Y-127498141D01*
X155041854Y-127374400D01*
X152958146Y-127374400D01*
X152336056Y-127498141D01*
X151808673Y-127850527D01*
X151456287Y-128377910D01*
X151332546Y-129000000D01*
X151456287Y-129622090D01*
X151808673Y-130149473D01*
X152336056Y-130501859D01*
X152958146Y-130625600D01*
X155041854Y-130625600D01*
X155663944Y-130501859D01*
X156191327Y-130149473D01*
X156543713Y-129622090D01*
X156667454Y-129000000D01*
X156543713Y-128377910D01*
X156511843Y-128330213D01*
X165849392Y-128330213D01*
X156511843Y-128330213D01*
X156511843Y-128330213D01*
X165849392Y-128330213D01*
X165918857Y-128572397D01*
X166059318Y-128622509D01*
X165859697Y-128704990D01*
X165466371Y-129097630D01*
X165253243Y-129610900D01*
X165252758Y-130166661D01*
X165464990Y-130680303D01*
X147127000Y-130680303D01*
X147127000Y-126618857D01*
X165427603Y-126618857D01*
X165240856Y-127142302D01*
X165268638Y-127697368D01*
X165427603Y-128081143D01*
X165669787Y-128150608D01*
X166470395Y-127350000D01*
X165669787Y-126549392D01*
X165427603Y-126618857D01*
X147127000Y-126618857D01*
X147127000Y-115881400D01*
X149815255Y-115881400D01*
X149241766Y-115995474D01*
X148755585Y-116320330D01*
X148430729Y-116806511D01*
X148316655Y-117380000D01*
X148430729Y-117953489D01*
X148755585Y-118439670D01*
X149070366Y-118650000D01*
X148755585Y-118860330D01*
X148430729Y-119346511D01*
X148316655Y-119920000D01*
X148430729Y-120493489D01*
X148755585Y-120979670D01*
X149070366Y-121190000D01*
X148755585Y-121400330D01*
X148430729Y-121886511D01*
X148316655Y-122460000D01*
X148430729Y-123033489D01*
X148755585Y-123519670D01*
X148771367Y-123530215D01*
X148741877Y-123535937D01*
X148529073Y-123675727D01*
X148386623Y-123886760D01*
X148336560Y-124136400D01*
X148336560Y-125863600D01*
X148383537Y-126105723D01*
X148523327Y-126318527D01*
X148734360Y-126460977D01*
X148984000Y-126511040D01*
X151016000Y-126511040D01*
X151258123Y-126464063D01*
X151470927Y-126324273D01*
X151613377Y-126113240D01*
X151663440Y-125863600D01*
X151663440Y-124932116D01*
X151808673Y-125149473D01*
X152336056Y-125501859D01*
X152958146Y-125625600D01*
X155041854Y-125625600D01*
X155663944Y-125501859D01*
X156191327Y-125149473D01*
X156543713Y-124622090D01*
X156667454Y-124000000D01*
X156543713Y-123377910D01*
X156191327Y-122850527D01*
X155663944Y-122498141D01*
X155041854Y-122374400D01*
X152958146Y-122374400D01*
X152336056Y-122498141D01*
X151808673Y-122850527D01*
X151456287Y-123377910D01*
X151405466Y-123633407D01*
X151265640Y-123539023D01*
X151227037Y-123531282D01*
X151244415Y-123519670D01*
X151569271Y-123033489D01*
X151683345Y-122460000D01*
X151569271Y-121886511D01*
X151244415Y-121400330D01*
X150929634Y-121190000D01*
X151244415Y-120979670D01*
X151569271Y-120493489D01*
X151676922Y-119952293D01*
X151808673Y-120149473D01*
X152336056Y-120501859D01*
X152958146Y-120625600D01*
X155041854Y-120625600D01*
X155663944Y-120501859D01*
X156191327Y-120149473D01*
X156543713Y-119622090D01*
X156667454Y-119000000D01*
X156543713Y-118377910D01*
X156191327Y-117850527D01*
X155663944Y-117498141D01*
X155041854Y-117374400D01*
X152958146Y-117374400D01*
X152336056Y-117498141D01*
X151808673Y-117850527D01*
X151456287Y-118377910D01*
X151333737Y-118994010D01*
X151244415Y-118860330D01*
X150929634Y-118650000D01*
X151244415Y-118439670D01*
X151569271Y-117953489D01*
X151683345Y-117380000D01*
X151569271Y-116806511D01*
X151244415Y-116320330D01*
X150758234Y-115995474D01*
X150184745Y-115881400D01*
X149815255Y-115881400D01*
X147127000Y-115881400D01*
X147127000Y-115833629D01*
X165857630Y-115833629D01*
X166065512Y-115919949D01*
X165859697Y-116004990D01*
X165466371Y-116397630D01*
X165253243Y-116910900D01*
X165252758Y-117466661D01*
X165464990Y-117980303D01*
X165857630Y-118373629D01*
X166065512Y-118459949D01*
X165859697Y-118544990D01*
X165466371Y-118937630D01*
X165253243Y-119450900D01*
X165252758Y-120006661D01*
X165464990Y-120520303D01*
X165857630Y-120913629D01*
X166065512Y-120999949D01*
X165859697Y-121084990D01*
X165466371Y-121477630D01*
X165253243Y-121990900D01*
X165252758Y-122546661D01*
X165464990Y-123060303D01*
X165857630Y-123453629D01*
X166065512Y-123539949D01*
X165859697Y-123624990D01*
X165466371Y-124017630D01*
X165253243Y-124530900D01*
X165252758Y-125086661D01*
X165464990Y-125600303D01*
X165857630Y-125993629D01*
X166049727Y-126073395D01*
X165918857Y-126127603D01*
X165849392Y-126369787D01*
X166650000Y-127170395D01*
X167450608Y-126369787D01*
X167381143Y-126127603D01*
X167240682Y-126077491D01*
X167440303Y-125995010D01*
X167833629Y-125602370D01*
X168046757Y-125089100D01*
X168047242Y-124533339D01*
X167835010Y-124019697D01*
X167442370Y-123626371D01*
X167234488Y-123540051D01*
X167440303Y-123455010D01*
X167833629Y-123062370D01*
X168046757Y-122549100D01*
X168047242Y-121993339D01*
X167835010Y-121479697D01*
X167442370Y-121086371D01*
X167234488Y-121000051D01*
X167440303Y-120915010D01*
X167833629Y-120522370D01*
X168046757Y-120009100D01*
X168047242Y-119453339D01*
X167835010Y-118939697D01*
X167442370Y-118546371D01*
X167234488Y-118460051D01*
X167440303Y-118375010D01*
X167833629Y-117982370D01*
X168046757Y-117469100D01*
X168047242Y-116913339D01*
X167835010Y-116399697D01*
X167442370Y-116006371D01*
X167234488Y-115920051D01*
X167440303Y-115835010D01*
X167833629Y-115442370D01*
X168046757Y-114929100D01*
X168047242Y-114373339D01*
X167835010Y-113859697D01*
X167442370Y-113466371D01*
X167250273Y-113386605D01*
X167381143Y-113332397D01*
X167450608Y-113090213D01*
X166650000Y-112289605D01*
X165849392Y-113090213D01*
X156351481Y-113090213D01*
X156191327Y-112850527D01*
X155663944Y-112498141D01*
X155041854Y-112374400D01*
X152958146Y-112374400D01*
X152336056Y-112498141D01*
X151808673Y-112850527D01*
X151456287Y-113377910D01*
X151332546Y-114000000D01*
X151456287Y-114622090D01*
X151808673Y-115149473D01*
X152336056Y-115501859D01*
X152958146Y-115625600D01*
X155041854Y-115625600D01*
X155663944Y-115501859D01*
X156191327Y-115149473D01*
X156543713Y-114622090D01*
X156667454Y-114000000D01*
X156543713Y-113377910D01*
X156351481Y-113090213D01*
X165849392Y-113090213D01*
X156351481Y-113090213D01*
X156351481Y-113090213D01*
X165849392Y-113090213D01*
X165918857Y-113332397D01*
X166059318Y-113382509D01*
X165859697Y-113464990D01*
X165466371Y-113857630D01*
X165253243Y-114370900D01*
X165252758Y-114926661D01*
X165464990Y-115440303D01*
X165857630Y-115833629D01*
X147127000Y-115833629D01*
X147127000Y-111378857D01*
X165427603Y-111378857D01*
X165240856Y-111902302D01*
X165268638Y-112457368D01*
X165427603Y-112841143D01*
X165669787Y-112910608D01*
X166470395Y-112110000D01*
X166829605Y-112110000D01*
X167630213Y-112910608D01*
X167872397Y-112841143D01*
X168059144Y-112317698D01*
X168031362Y-111762632D01*
X167872397Y-111378857D01*
X167630213Y-111309392D01*
X166829605Y-112110000D01*
X166470395Y-112110000D01*
X166470395Y-112110000D01*
X165669787Y-111309392D01*
X165427603Y-111378857D01*
X147127000Y-111378857D01*
X147127000Y-110728638D01*
X166302632Y-110728638D01*
X165918857Y-110887603D01*
X165849392Y-111129787D01*
X166650000Y-111930395D01*
X167450608Y-111129787D01*
X167381143Y-110887603D01*
X166857698Y-110700856D01*
X166302632Y-110728638D01*
X147127000Y-110728638D01*
X147127000Y-108789041D01*
X169691091Y-108789041D01*
X169365372Y-109573459D01*
X169364630Y-110422815D01*
X169688980Y-111207800D01*
X170289041Y-111808909D01*
X171073459Y-112134628D01*
X171922815Y-112135370D01*
X172707800Y-111811020D01*
X173308909Y-111210959D01*
X173634628Y-110426541D01*
X173635370Y-109577185D01*
X173311020Y-108792200D01*
X172710959Y-108191091D01*
X171926541Y-107865372D01*
X171077185Y-107864630D01*
X170292200Y-108188980D01*
X150562251Y-108188980D01*
X150613377Y-108113240D01*
X150663440Y-107863600D01*
X150663440Y-106136400D01*
X150616463Y-105894277D01*
X150476673Y-105681473D01*
X150265640Y-105539023D01*
X150227037Y-105531282D01*
X150244415Y-105519670D01*
X150569271Y-105033489D01*
X150683345Y-104460000D01*
X150569271Y-103886511D01*
X150244415Y-103400330D01*
X149929634Y-103190000D01*
X150244415Y-102979670D01*
X150569271Y-102493489D01*
X150683345Y-101920000D01*
X150569271Y-101346511D01*
X150244415Y-100860330D01*
X149934931Y-100653539D01*
X150146132Y-100464838D01*
X160014833Y-100464838D01*
X159671057Y-100606883D01*
X159407808Y-100869673D01*
X159265162Y-101213201D01*
X159264838Y-101585167D01*
X159406883Y-101928943D01*
X159669673Y-102192192D01*
X160013201Y-102334838D01*
X160060077Y-102334879D01*
X160262599Y-102537401D01*
X160509161Y-102702148D01*
X160800000Y-102760000D01*
X166300000Y-102760000D01*
X166590839Y-102702148D01*
X166837401Y-102537401D01*
X167937401Y-101437401D01*
X168102148Y-101190839D01*
X168160000Y-100900000D01*
X168160000Y-97414802D01*
X168839680Y-96735122D01*
X168885167Y-96735162D01*
X169228943Y-96593117D01*
X169492192Y-96330327D01*
X169634838Y-95986799D01*
X169635162Y-95614833D01*
X169493117Y-95271057D01*
X169230327Y-95007808D01*
X168886799Y-94865162D01*
X168514833Y-94864838D01*
X168171057Y-95006883D01*
X165358834Y-95006883D01*
X165355978Y-94992526D01*
X165191231Y-94745964D01*
X163707866Y-93262599D01*
X163461304Y-93097852D01*
X163170465Y-93040000D01*
X157862463Y-93040000D01*
X157830327Y-93007808D01*
X157486799Y-92865162D01*
X157114833Y-92864838D01*
X156771057Y-93006883D01*
X156507808Y-93269673D01*
X156365162Y-93613201D01*
X156364838Y-93985167D01*
X156506883Y-94328943D01*
X156769673Y-94592192D01*
X157113201Y-94734838D01*
X157485167Y-94735162D01*
X157828943Y-94593117D01*
X157862118Y-94560000D01*
X162855663Y-94560000D01*
X163184332Y-94888669D01*
X163128251Y-94944653D01*
X162985605Y-95288181D01*
X162985564Y-95335057D01*
X160080621Y-98240000D01*
X155562463Y-98240000D01*
X155530327Y-98207808D01*
X155186799Y-98065162D01*
X154814833Y-98064838D01*
X154471057Y-98206883D01*
X154207808Y-98469673D01*
X154065162Y-98813201D01*
X154064838Y-99185167D01*
X154206883Y-99528943D01*
X154469673Y-99792192D01*
X154813201Y-99934838D01*
X155185167Y-99935162D01*
X155528943Y-99793117D01*
X155562118Y-99760000D01*
X160395423Y-99760000D01*
X160686262Y-99702148D01*
X160932824Y-99537401D01*
X163893830Y-96576395D01*
X163893830Y-97812567D01*
X163861638Y-97844703D01*
X163718992Y-98188231D01*
X163718668Y-98560197D01*
X163860713Y-98903973D01*
X164123503Y-99167222D01*
X164467031Y-99309868D01*
X164838997Y-99310192D01*
X165182773Y-99168147D01*
X165446022Y-98905357D01*
X165588668Y-98561829D01*
X165588992Y-98189863D01*
X165446947Y-97846087D01*
X165413830Y-97812912D01*
X165413830Y-95283365D01*
X165358834Y-95006883D01*
X168171057Y-95006883D01*
X165358834Y-95006883D01*
X165358834Y-95006883D01*
X168171057Y-95006883D01*
X167907808Y-95269673D01*
X167765162Y-95613201D01*
X167765121Y-95660077D01*
X166862599Y-96562599D01*
X166697852Y-96809161D01*
X166640000Y-97100000D01*
X166640000Y-100585198D01*
X165985198Y-101240000D01*
X161135140Y-101240000D01*
X161135162Y-101214833D01*
X160993117Y-100871057D01*
X160730327Y-100607808D01*
X160386799Y-100465162D01*
X160014833Y-100464838D01*
X150146132Y-100464838D01*
X150350732Y-100282036D01*
X150604709Y-99754791D01*
X150607358Y-99739026D01*
X150486217Y-99507000D01*
X149127000Y-99507000D01*
X149127000Y-99527000D01*
X148873000Y-99527000D01*
X148873000Y-99507000D01*
X147513783Y-99507000D01*
X147392642Y-99739026D01*
X147395291Y-99754791D01*
X147649268Y-100282036D01*
X148065069Y-100653539D01*
X147755585Y-100860330D01*
X147430729Y-101346511D01*
X147316655Y-101920000D01*
X147430729Y-102493489D01*
X147755585Y-102979670D01*
X148070366Y-103190000D01*
X147755585Y-103400330D01*
X147430729Y-103886511D01*
X147316655Y-104460000D01*
X147430729Y-105033489D01*
X147755585Y-105519670D01*
X147771367Y-105530215D01*
X147741877Y-105535937D01*
X147529073Y-105675727D01*
X147386623Y-105886760D01*
X147336560Y-106136400D01*
X147336560Y-107863600D01*
X147383537Y-108105723D01*
X147523327Y-108318527D01*
X147734360Y-108460977D01*
X147984000Y-108511040D01*
X150016000Y-108511040D01*
X150258123Y-108464063D01*
X150470927Y-108324273D01*
X150562251Y-108188980D01*
X170292200Y-108188980D01*
X150562251Y-108188980D01*
X150562251Y-108188980D01*
X170292200Y-108188980D01*
X169691091Y-108789041D01*
X147127000Y-108789041D01*
X147127000Y-98088046D01*
X148085680Y-98088046D01*
X147649268Y-98477964D01*
X147395291Y-99005209D01*
X147392642Y-99020974D01*
X147513783Y-99253000D01*
X148873000Y-99253000D01*
X148873000Y-98039076D01*
X149127000Y-98039076D01*
X148873000Y-98039076D01*
X148873000Y-98039076D01*
X149127000Y-98039076D01*
X149127000Y-99253000D01*
X150486217Y-99253000D01*
X150607358Y-99020974D01*
X150604709Y-99005209D01*
X150350732Y-98477964D01*
X149914320Y-98088046D01*
X149361913Y-97894816D01*
X149127000Y-98039076D01*
X148873000Y-98039076D01*
X148873000Y-98039076D01*
X148638087Y-97894816D01*
X148085680Y-98088046D01*
X147127000Y-98088046D01*
X147127000Y-87507000D01*
X147513783Y-87507000D01*
X147392642Y-87739026D01*
X147395291Y-87754791D01*
X147649268Y-88282036D01*
X148065069Y-88653539D01*
X147755585Y-88860330D01*
X147430729Y-89346511D01*
X147316655Y-89920000D01*
X147430729Y-90493489D01*
X147755585Y-90979670D01*
X148070366Y-91190000D01*
X147755585Y-91400330D01*
X147430729Y-91886511D01*
X147316655Y-92460000D01*
X147430729Y-93033489D01*
X147755585Y-93519670D01*
X147771367Y-93530215D01*
X147741877Y-93535937D01*
X147529073Y-93675727D01*
X147386623Y-93886760D01*
X147336560Y-94136400D01*
X147336560Y-95863600D01*
X147383537Y-96105723D01*
X147523327Y-96318527D01*
X147734360Y-96460977D01*
X147984000Y-96511040D01*
X150016000Y-96511040D01*
X150258123Y-96464063D01*
X150470927Y-96324273D01*
X150613377Y-96113240D01*
X150663440Y-95863600D01*
X150663440Y-94136400D01*
X150616463Y-93894277D01*
X150476673Y-93681473D01*
X150265640Y-93539023D01*
X150227037Y-93531282D01*
X150244415Y-93519670D01*
X150569271Y-93033489D01*
X150683345Y-92460000D01*
X150569271Y-91886511D01*
X150244415Y-91400330D01*
X149929634Y-91190000D01*
X150244415Y-90979670D01*
X150569271Y-90493489D01*
X150683345Y-89920000D01*
X150569271Y-89346511D01*
X150244415Y-88860330D01*
X149934931Y-88653539D01*
X150350732Y-88282036D01*
X150604709Y-87754791D01*
X150607358Y-87739026D01*
X150486217Y-87507000D01*
X149127000Y-87507000D01*
X149127000Y-87527000D01*
X148873000Y-87527000D01*
X148873000Y-87507000D01*
X147513783Y-87507000D01*
X147127000Y-87507000D01*
X147127000Y-87285750D01*
X172341400Y-87285750D01*
X172341400Y-88142309D01*
X172438073Y-88375698D01*
X172616701Y-88554327D01*
X172850090Y-88651000D01*
X173554250Y-88651000D01*
X173713000Y-88492250D01*
X173713000Y-87127000D01*
X173967000Y-87127000D01*
X173713000Y-87127000D01*
X173713000Y-87127000D01*
X173967000Y-87127000D01*
X173967000Y-88492250D01*
X174125750Y-88651000D01*
X174829910Y-88651000D01*
X175063299Y-88554327D01*
X175241927Y-88375698D01*
X175323759Y-88178139D01*
X175477964Y-88350732D01*
X176005209Y-88604709D01*
X176020974Y-88607358D01*
X176253000Y-88486217D01*
X176253000Y-87127000D01*
X173967000Y-87127000D01*
X173713000Y-87127000D01*
X173713000Y-87127000D01*
X172500150Y-87127000D01*
X150552001Y-87127000D01*
X150607358Y-87020974D01*
X150604709Y-87005209D01*
X150350732Y-86477964D01*
X149914320Y-86088046D01*
X149361913Y-85894816D01*
X149127000Y-86039076D01*
X149127000Y-87253000D01*
X150486217Y-87253000D01*
X150552001Y-87127000D01*
X172500150Y-87127000D01*
X150552001Y-87127000D01*
X150552001Y-87127000D01*
X172500150Y-87127000D01*
X172341400Y-87285750D01*
X147127000Y-87285750D01*
X147127000Y-86088046D01*
X148085680Y-86088046D01*
X147649268Y-86477964D01*
X147395291Y-87005209D01*
X147392642Y-87020974D01*
X147513783Y-87253000D01*
X148873000Y-87253000D01*
X148873000Y-86039076D01*
X148638087Y-85894816D01*
X148085680Y-86088046D01*
X147127000Y-86088046D01*
X147127000Y-85349000D01*
X172850090Y-85349000D01*
X172616701Y-85445673D01*
X172438073Y-85624302D01*
X172341400Y-85857691D01*
X172341400Y-86714250D01*
X172500150Y-86873000D01*
X173713000Y-86873000D01*
X173713000Y-85507750D01*
X173554250Y-85349000D01*
X174125750Y-85349000D01*
X173554250Y-85349000D01*
X173554250Y-85349000D01*
X174125750Y-85349000D01*
X173967000Y-85507750D01*
X173967000Y-86873000D01*
X176253000Y-86873000D01*
X176253000Y-85513783D01*
X176020974Y-85392642D01*
X176005209Y-85395291D01*
X175477964Y-85649268D01*
X175323759Y-85821861D01*
X175241927Y-85624302D01*
X175063299Y-85445673D01*
X174829910Y-85349000D01*
X174125750Y-85349000D01*
X173554250Y-85349000D01*
X173554250Y-85349000D01*
X172850090Y-85349000D01*
X147127000Y-85349000D01*
X147127000Y-85127000D01*
X183532198Y-85127000D01*
X183462599Y-85196599D01*
G36*
X247564838Y-108385167D02*
X247706883Y-108728943D01*
X247969673Y-108992192D01*
X248313201Y-109134838D01*
X248685167Y-109135162D01*
X249028943Y-108993117D01*
X249062118Y-108960000D01*
X250349800Y-108960000D01*
X251878760Y-110488960D01*
X250984000Y-110488960D01*
X250741877Y-110535937D01*
X250529073Y-110675727D01*
X250386623Y-110886760D01*
X250336560Y-111136400D01*
X250336560Y-112863600D01*
X250383537Y-113105723D01*
X250523327Y-113318527D01*
X250734360Y-113460977D01*
X250772963Y-113468718D01*
X250755585Y-113480330D01*
X250430729Y-113966511D01*
X250316655Y-114540000D01*
X250430729Y-115113489D01*
X250442690Y-115131390D01*
X242234886Y-115131390D01*
X242235214Y-114755421D01*
X242047592Y-114301343D01*
X241700485Y-113953629D01*
X241246734Y-113765215D01*
X240755421Y-113764786D01*
X240301343Y-113952408D01*
X239953629Y-114299515D01*
X239765215Y-114753266D01*
X239764885Y-115131390D01*
X228608610Y-115131390D01*
X228317770Y-115189242D01*
X228071209Y-115353989D01*
X227360320Y-116064878D01*
X227314833Y-116064838D01*
X226971057Y-116206883D01*
X226707808Y-116469673D01*
X226565162Y-116813201D01*
X226564838Y-117185167D01*
X226631411Y-117346286D01*
X226507808Y-117469673D01*
X226365162Y-117813201D01*
X226364838Y-118185167D01*
X226506883Y-118528943D01*
X226769673Y-118792192D01*
X227113201Y-118934838D01*
X227208549Y-118934921D01*
X227309160Y-119002147D01*
X227599999Y-119059999D01*
X250428046Y-119059999D01*
X250316655Y-119620000D01*
X250430729Y-120193489D01*
X250755585Y-120679670D01*
X251070366Y-120890000D01*
X250755585Y-121100330D01*
X250430729Y-121586511D01*
X250316655Y-122160000D01*
X250430729Y-122733489D01*
X250755585Y-123219670D01*
X251070366Y-123430000D01*
X250755585Y-123640330D01*
X250430729Y-124126511D01*
X250316655Y-124700000D01*
X250430729Y-125273489D01*
X250755585Y-125759670D01*
X251065069Y-125966461D01*
X250649268Y-126337964D01*
X250395291Y-126865209D01*
X250392642Y-126880974D01*
X250513783Y-127113000D01*
X251873000Y-127113000D01*
X251873000Y-127093000D01*
X252127000Y-127093000D01*
X252127000Y-127113000D01*
X253486217Y-127113000D01*
X253607358Y-126880974D01*
X253604709Y-126865209D01*
X253350732Y-126337964D01*
X252934931Y-125966461D01*
X253244415Y-125759670D01*
X253569271Y-125273489D01*
X253683345Y-124700000D01*
X253569271Y-124126511D01*
X253244415Y-123640330D01*
X252929634Y-123430000D01*
X253244415Y-123219670D01*
X253569271Y-122733489D01*
X253683345Y-122160000D01*
X253569271Y-121586511D01*
X253244415Y-121100330D01*
X252929634Y-120890000D01*
X253244415Y-120679670D01*
X253569271Y-120193489D01*
X253683345Y-119620000D01*
X253571954Y-119059999D01*
X259746067Y-119059999D01*
X259804998Y-119118930D01*
X259586115Y-119446511D01*
X259472041Y-120020000D01*
X259586115Y-120593489D01*
X259910971Y-121079670D01*
X260225752Y-121290000D01*
X259910971Y-121500330D01*
X259586115Y-121986511D01*
X259472041Y-122560000D01*
X259586115Y-123133489D01*
X259910971Y-123619670D01*
X260225752Y-123830000D01*
X259910971Y-124040330D01*
X259586115Y-124526511D01*
X259472041Y-125100000D01*
X259586115Y-125673489D01*
X259910971Y-126159670D01*
X260225752Y-126370000D01*
X259910971Y-126580330D01*
X259586115Y-127066511D01*
X259472041Y-127640000D01*
X259586115Y-128213489D01*
X259910971Y-128699670D01*
X260225752Y-128910000D01*
X259910971Y-129120330D01*
X259586115Y-129606511D01*
X259472041Y-130180000D01*
X259586115Y-130753489D01*
X259910971Y-131239670D01*
X260225752Y-131450000D01*
X259910971Y-131660330D01*
X259586115Y-132146511D01*
X259472041Y-132720000D01*
X259586115Y-133293489D01*
X259910971Y-133779670D01*
X260225752Y-133990000D01*
X259910971Y-134200330D01*
X259586115Y-134686511D01*
X259472041Y-135260000D01*
X259557295Y-135688601D01*
X206567701Y-135688601D01*
X212303894Y-129952408D01*
X218301343Y-129952408D01*
X217953629Y-130299515D01*
X217765215Y-130753266D01*
X217764786Y-131244579D01*
X217952408Y-131698657D01*
X218299515Y-132046371D01*
X218753266Y-132234785D01*
X219244579Y-132235214D01*
X219698657Y-132047592D01*
X220046371Y-131700485D01*
X220234785Y-131246734D01*
X220235214Y-130755421D01*
X220047592Y-130301343D01*
X219700485Y-129953629D01*
X219697545Y-129952408D01*
X240301343Y-129952408D01*
X239953629Y-130299515D01*
X239765215Y-130753266D01*
X239764786Y-131244579D01*
X239952408Y-131698657D01*
X240299515Y-132046371D01*
X240753266Y-132234785D01*
X241244579Y-132235214D01*
X241698657Y-132047592D01*
X242046371Y-131700485D01*
X242234785Y-131246734D01*
X242235214Y-130755421D01*
X242047592Y-130301343D01*
X241700485Y-129953629D01*
X241588190Y-129907000D01*
X250513783Y-129907000D01*
X250392642Y-130139026D01*
X250395291Y-130154791D01*
X250649268Y-130682036D01*
X251085680Y-131071954D01*
X251638087Y-131265184D01*
X251873000Y-131120924D01*
X251873000Y-129907000D01*
X252127000Y-129907000D01*
X252127000Y-131120924D01*
X252361913Y-131265184D01*
X252914320Y-131071954D01*
X253350732Y-130682036D01*
X253604709Y-130154791D01*
X253607358Y-130139026D01*
X253486217Y-129907000D01*
X252127000Y-129907000D01*
X251873000Y-129907000D01*
X251873000Y-129907000D01*
X250513783Y-129907000D01*
X241588190Y-129907000D01*
X241246734Y-129765215D01*
X240755421Y-129764786D01*
X240301343Y-129952408D01*
X219697545Y-129952408D01*
X219246734Y-129765215D01*
X218755421Y-129764786D01*
X218301343Y-129952408D01*
X212303894Y-129952408D01*
X214889302Y-127367000D01*
X250513783Y-127367000D01*
X250392642Y-127599026D01*
X250395291Y-127614791D01*
X250649268Y-128142036D01*
X251061108Y-128510000D01*
X250649268Y-128877964D01*
X250395291Y-129405209D01*
X250392642Y-129420974D01*
X250513783Y-129653000D01*
X251873000Y-129653000D01*
X251873000Y-127367000D01*
X252127000Y-127367000D01*
X251873000Y-127367000D01*
X251873000Y-127367000D01*
X252127000Y-127367000D01*
X252127000Y-129653000D01*
X253486217Y-129653000D01*
X253607358Y-129420974D01*
X253604709Y-129405209D01*
X253350732Y-128877964D01*
X252938892Y-128510000D01*
X253350732Y-128142036D01*
X253604709Y-127614791D01*
X253607358Y-127599026D01*
X253486217Y-127367000D01*
X252127000Y-127367000D01*
X251873000Y-127367000D01*
X251873000Y-127367000D01*
X250513783Y-127367000D01*
X214889302Y-127367000D01*
X234176302Y-108080000D01*
X247565104Y-108080000D01*
X247564838Y-108385167D01*
X247564838Y-108385167D01*
G37*
X247564838Y-108385167D02*
X247706883Y-108728943D01*
X247969673Y-108992192D01*
X248313201Y-109134838D01*
X248685167Y-109135162D01*
X249028943Y-108993117D01*
X249062118Y-108960000D01*
X250349800Y-108960000D01*
X251878760Y-110488960D01*
X250984000Y-110488960D01*
X250741877Y-110535937D01*
X250529073Y-110675727D01*
X250386623Y-110886760D01*
X250336560Y-111136400D01*
X250336560Y-112863600D01*
X250383537Y-113105723D01*
X250523327Y-113318527D01*
X250734360Y-113460977D01*
X250772963Y-113468718D01*
X250755585Y-113480330D01*
X250430729Y-113966511D01*
X250316655Y-114540000D01*
X250430729Y-115113489D01*
X250442690Y-115131390D01*
X242234886Y-115131390D01*
X242235214Y-114755421D01*
X242047592Y-114301343D01*
X241700485Y-113953629D01*
X241246734Y-113765215D01*
X240755421Y-113764786D01*
X240301343Y-113952408D01*
X239953629Y-114299515D01*
X239765215Y-114753266D01*
X239764885Y-115131390D01*
X228608610Y-115131390D01*
X228317770Y-115189242D01*
X228071209Y-115353989D01*
X227360320Y-116064878D01*
X227314833Y-116064838D01*
X226971057Y-116206883D01*
X226707808Y-116469673D01*
X226565162Y-116813201D01*
X226564838Y-117185167D01*
X226631411Y-117346286D01*
X226507808Y-117469673D01*
X226365162Y-117813201D01*
X226364838Y-118185167D01*
X226506883Y-118528943D01*
X226769673Y-118792192D01*
X227113201Y-118934838D01*
X227208549Y-118934921D01*
X227309160Y-119002147D01*
X227599999Y-119059999D01*
X250428046Y-119059999D01*
X250316655Y-119620000D01*
X250430729Y-120193489D01*
X250755585Y-120679670D01*
X251070366Y-120890000D01*
X250755585Y-121100330D01*
X250430729Y-121586511D01*
X250316655Y-122160000D01*
X250430729Y-122733489D01*
X250755585Y-123219670D01*
X251070366Y-123430000D01*
X250755585Y-123640330D01*
X250430729Y-124126511D01*
X250316655Y-124700000D01*
X250430729Y-125273489D01*
X250755585Y-125759670D01*
X251065069Y-125966461D01*
X250649268Y-126337964D01*
X250395291Y-126865209D01*
X250392642Y-126880974D01*
X250513783Y-127113000D01*
X251873000Y-127113000D01*
X251873000Y-127093000D01*
X252127000Y-127093000D01*
X252127000Y-127113000D01*
X253486217Y-127113000D01*
X253607358Y-126880974D01*
X253604709Y-126865209D01*
X253350732Y-126337964D01*
X252934931Y-125966461D01*
X253244415Y-125759670D01*
X253569271Y-125273489D01*
X253683345Y-124700000D01*
X253569271Y-124126511D01*
X253244415Y-123640330D01*
X252929634Y-123430000D01*
X253244415Y-123219670D01*
X253569271Y-122733489D01*
X253683345Y-122160000D01*
X253569271Y-121586511D01*
X253244415Y-121100330D01*
X252929634Y-120890000D01*
X253244415Y-120679670D01*
X253569271Y-120193489D01*
X253683345Y-119620000D01*
X253571954Y-119059999D01*
X259746067Y-119059999D01*
X259804998Y-119118930D01*
X259586115Y-119446511D01*
X259472041Y-120020000D01*
X259586115Y-120593489D01*
X259910971Y-121079670D01*
X260225752Y-121290000D01*
X259910971Y-121500330D01*
X259586115Y-121986511D01*
X259472041Y-122560000D01*
X259586115Y-123133489D01*
X259910971Y-123619670D01*
X260225752Y-123830000D01*
X259910971Y-124040330D01*
X259586115Y-124526511D01*
X259472041Y-125100000D01*
X259586115Y-125673489D01*
X259910971Y-126159670D01*
X260225752Y-126370000D01*
X259910971Y-126580330D01*
X259586115Y-127066511D01*
X259472041Y-127640000D01*
X259586115Y-128213489D01*
X259910971Y-128699670D01*
X260225752Y-128910000D01*
X259910971Y-129120330D01*
X259586115Y-129606511D01*
X259472041Y-130180000D01*
X259586115Y-130753489D01*
X259910971Y-131239670D01*
X260225752Y-131450000D01*
X259910971Y-131660330D01*
X259586115Y-132146511D01*
X259472041Y-132720000D01*
X259586115Y-133293489D01*
X259910971Y-133779670D01*
X260225752Y-133990000D01*
X259910971Y-134200330D01*
X259586115Y-134686511D01*
X259472041Y-135260000D01*
X259557295Y-135688601D01*
X206567701Y-135688601D01*
X212303894Y-129952408D01*
X218301343Y-129952408D01*
X217953629Y-130299515D01*
X217765215Y-130753266D01*
X217764786Y-131244579D01*
X217952408Y-131698657D01*
X218299515Y-132046371D01*
X218753266Y-132234785D01*
X219244579Y-132235214D01*
X219698657Y-132047592D01*
X220046371Y-131700485D01*
X220234785Y-131246734D01*
X220235214Y-130755421D01*
X220047592Y-130301343D01*
X219700485Y-129953629D01*
X219697545Y-129952408D01*
X240301343Y-129952408D01*
X239953629Y-130299515D01*
X239765215Y-130753266D01*
X239764786Y-131244579D01*
X239952408Y-131698657D01*
X240299515Y-132046371D01*
X240753266Y-132234785D01*
X241244579Y-132235214D01*
X241698657Y-132047592D01*
X242046371Y-131700485D01*
X242234785Y-131246734D01*
X242235214Y-130755421D01*
X242047592Y-130301343D01*
X241700485Y-129953629D01*
X241588190Y-129907000D01*
X250513783Y-129907000D01*
X250392642Y-130139026D01*
X250395291Y-130154791D01*
X250649268Y-130682036D01*
X251085680Y-131071954D01*
X251638087Y-131265184D01*
X251873000Y-131120924D01*
X251873000Y-129907000D01*
X252127000Y-129907000D01*
X252127000Y-131120924D01*
X252361913Y-131265184D01*
X252914320Y-131071954D01*
X253350732Y-130682036D01*
X253604709Y-130154791D01*
X253607358Y-130139026D01*
X253486217Y-129907000D01*
X252127000Y-129907000D01*
X251873000Y-129907000D01*
X251873000Y-129907000D01*
X250513783Y-129907000D01*
X241588190Y-129907000D01*
X241246734Y-129765215D01*
X240755421Y-129764786D01*
X240301343Y-129952408D01*
X219697545Y-129952408D01*
X219246734Y-129765215D01*
X218755421Y-129764786D01*
X218301343Y-129952408D01*
X212303894Y-129952408D01*
X214889302Y-127367000D01*
X250513783Y-127367000D01*
X250392642Y-127599026D01*
X250395291Y-127614791D01*
X250649268Y-128142036D01*
X251061108Y-128510000D01*
X250649268Y-128877964D01*
X250395291Y-129405209D01*
X250392642Y-129420974D01*
X250513783Y-129653000D01*
X251873000Y-129653000D01*
X251873000Y-127367000D01*
X252127000Y-127367000D01*
X251873000Y-127367000D01*
X251873000Y-127367000D01*
X252127000Y-127367000D01*
X252127000Y-129653000D01*
X253486217Y-129653000D01*
X253607358Y-129420974D01*
X253604709Y-129405209D01*
X253350732Y-128877964D01*
X252938892Y-128510000D01*
X253350732Y-128142036D01*
X253604709Y-127614791D01*
X253607358Y-127599026D01*
X253486217Y-127367000D01*
X252127000Y-127367000D01*
X251873000Y-127367000D01*
X251873000Y-127367000D01*
X250513783Y-127367000D01*
X214889302Y-127367000D01*
X234176302Y-108080000D01*
X247565104Y-108080000D01*
X247564838Y-108385167D01*
G36*
X187892599Y-121727401D02*
X188139161Y-121892148D01*
X188430000Y-121950000D01*
X193533464Y-121950000D01*
X193902647Y-122319827D01*
X194224118Y-122453314D01*
X193966071Y-122560200D01*
X193904417Y-122795812D01*
X194659000Y-123550395D01*
X195413583Y-122795812D01*
X195351929Y-122560200D01*
X195072688Y-122461917D01*
X195413380Y-122321146D01*
X195640001Y-122094920D01*
X195640001Y-122987667D01*
X195593188Y-122975417D01*
X194838605Y-123730000D01*
X195593188Y-124484583D01*
X195828800Y-124422929D01*
X195901587Y-124216127D01*
X195906883Y-124228943D01*
X196169673Y-124492192D01*
X196296974Y-124545052D01*
X195558478Y-125283548D01*
X195415353Y-125140173D01*
X195093882Y-125006686D01*
X195351929Y-124899800D01*
X195413583Y-124664188D01*
X194659000Y-123909605D01*
X193904417Y-124664188D01*
X193966071Y-124899800D01*
X194245312Y-124998083D01*
X193904620Y-125138854D01*
X193532826Y-125510000D01*
X191284802Y-125510000D01*
X188811873Y-123037071D01*
X193489200Y-123037071D01*
X193313073Y-123537480D01*
X193341852Y-124067199D01*
X193489200Y-124422929D01*
X193724812Y-124484583D01*
X194479395Y-123730000D01*
X193724812Y-122975417D01*
X193489200Y-123037071D01*
X188811873Y-123037071D01*
X180734183Y-114959381D01*
X180746757Y-114929100D01*
X180747060Y-114581862D01*
X187892599Y-121727401D01*
X187892599Y-121727401D01*
G37*
X187892599Y-121727401D02*
X188139161Y-121892148D01*
X188430000Y-121950000D01*
X193533464Y-121950000D01*
X193902647Y-122319827D01*
X194224118Y-122453314D01*
X193966071Y-122560200D01*
X193904417Y-122795812D01*
X194659000Y-123550395D01*
X195413583Y-122795812D01*
X195351929Y-122560200D01*
X195072688Y-122461917D01*
X195413380Y-122321146D01*
X195640001Y-122094920D01*
X195640001Y-122987667D01*
X195593188Y-122975417D01*
X194838605Y-123730000D01*
X195593188Y-124484583D01*
X195828800Y-124422929D01*
X195901587Y-124216127D01*
X195906883Y-124228943D01*
X196169673Y-124492192D01*
X196296974Y-124545052D01*
X195558478Y-125283548D01*
X195415353Y-125140173D01*
X195093882Y-125006686D01*
X195351929Y-124899800D01*
X195413583Y-124664188D01*
X194659000Y-123909605D01*
X193904417Y-124664188D01*
X193966071Y-124899800D01*
X194245312Y-124998083D01*
X193904620Y-125138854D01*
X193532826Y-125510000D01*
X191284802Y-125510000D01*
X188811873Y-123037071D01*
X193489200Y-123037071D01*
X193313073Y-123537480D01*
X193341852Y-124067199D01*
X193489200Y-124422929D01*
X193724812Y-124484583D01*
X194479395Y-123730000D01*
X193724812Y-122975417D01*
X193489200Y-123037071D01*
X188811873Y-123037071D01*
X180734183Y-114959381D01*
X180746757Y-114929100D01*
X180747060Y-114581862D01*
X187892599Y-121727401D01*
G36*
X196501400Y-86714250D02*
X196660150Y-86873000D01*
X197873000Y-86873000D01*
X197873000Y-86853000D01*
X198127000Y-86853000D01*
X198127000Y-86873000D01*
X198147000Y-86873000D01*
X198147000Y-87127000D01*
X198127000Y-87127000D01*
X198127000Y-88492250D01*
X198285750Y-88651000D01*
X198989910Y-88651000D01*
X199223299Y-88554327D01*
X199401927Y-88375698D01*
X199405000Y-88368279D01*
X199405000Y-91356608D01*
X194536609Y-96224999D01*
X193078399Y-96224999D01*
X192644053Y-96311396D01*
X192375498Y-96490839D01*
X192275833Y-96557433D01*
X192135833Y-96697433D01*
X191889796Y-97065653D01*
X191803399Y-97499999D01*
X191803399Y-99075380D01*
X187239389Y-103639391D01*
X186939390Y-103939390D01*
X186693353Y-104307611D01*
X186606956Y-104741956D01*
X186693353Y-105176301D01*
X186939390Y-105544522D01*
X187307611Y-105790559D01*
X187741956Y-105876956D01*
X188176301Y-105790559D01*
X188544522Y-105544522D01*
X188844521Y-105244523D01*
X193397846Y-100691199D01*
X193638400Y-100739440D01*
X195365600Y-100739440D01*
X195607723Y-100692463D01*
X195820527Y-100552673D01*
X195962977Y-100341640D01*
X195970718Y-100303037D01*
X195982330Y-100320415D01*
X196468511Y-100645271D01*
X197042000Y-100759345D01*
X197615489Y-100645271D01*
X198101670Y-100320415D01*
X198312000Y-100005634D01*
X198522330Y-100320415D01*
X199008511Y-100645271D01*
X199582000Y-100759345D01*
X200155489Y-100645271D01*
X200641670Y-100320415D01*
X200966526Y-99834234D01*
X201080600Y-99260745D01*
X201080600Y-98891255D01*
X200966526Y-98317766D01*
X200641670Y-97831585D01*
X200155489Y-97506729D01*
X199582000Y-97392655D01*
X199008511Y-97506729D01*
X198522330Y-97831585D01*
X198312000Y-98146366D01*
X198101670Y-97831585D01*
X197615489Y-97506729D01*
X197042000Y-97392655D01*
X196468511Y-97506729D01*
X196458361Y-97513511D01*
X201342566Y-92629306D01*
X201372662Y-92584264D01*
X201560513Y-92303125D01*
X201597852Y-92490839D01*
X201762599Y-92737401D01*
X206864878Y-97839680D01*
X206864838Y-97885167D01*
X207006883Y-98228943D01*
X207269673Y-98492192D01*
X207385083Y-98540115D01*
X202885198Y-103040000D01*
X193462463Y-103040000D01*
X193430327Y-103007808D01*
X193086799Y-102865162D01*
X192714833Y-102864838D01*
X192371057Y-103006883D01*
X192107808Y-103269673D01*
X191965162Y-103613201D01*
X191964838Y-103985167D01*
X192106883Y-104328943D01*
X192369673Y-104592192D01*
X192713201Y-104734838D01*
X193085167Y-104735162D01*
X193428943Y-104593117D01*
X193462118Y-104560000D01*
X201001608Y-104560000D01*
X200754642Y-104806966D01*
X189969444Y-104806966D01*
X189678605Y-104864818D01*
X189432043Y-105029565D01*
X188571599Y-105890009D01*
X186628401Y-105890009D01*
X185660000Y-104921608D01*
X185660000Y-98700000D01*
X185602148Y-98409161D01*
X185437401Y-98162599D01*
X181837401Y-94562599D01*
X181590839Y-94397852D01*
X181300000Y-94340000D01*
X177562463Y-94340000D01*
X177530327Y-94307808D01*
X177186799Y-94165162D01*
X176814833Y-94164838D01*
X176471057Y-94306883D01*
X176207808Y-94569673D01*
X176065162Y-94913201D01*
X176064838Y-95285167D01*
X176206883Y-95628943D01*
X176360727Y-95783056D01*
X176265162Y-96013201D01*
X176264838Y-96385167D01*
X176406883Y-96728943D01*
X176669673Y-96992192D01*
X177013201Y-97134838D01*
X177385167Y-97135162D01*
X177728943Y-96993117D01*
X177762118Y-96960000D01*
X181228200Y-96960000D01*
X181680760Y-97412560D01*
X180786000Y-97412560D01*
X180543877Y-97459537D01*
X180331073Y-97599327D01*
X180188623Y-97810360D01*
X180138560Y-98060000D01*
X180138560Y-100092000D01*
X180185537Y-100334123D01*
X180325327Y-100546927D01*
X180470860Y-100645164D01*
X180244330Y-100984190D01*
X180118655Y-101616000D01*
X180244330Y-102247810D01*
X180602222Y-102783433D01*
X181137845Y-103141325D01*
X181769655Y-103267000D01*
X181834345Y-103267000D01*
X182466155Y-103141325D01*
X183001778Y-102783433D01*
X183359670Y-102247810D01*
X183485345Y-101616000D01*
X183359670Y-100984190D01*
X183132831Y-100644701D01*
X183272927Y-100552673D01*
X183415377Y-100341640D01*
X183465440Y-100092000D01*
X183465440Y-99197240D01*
X183689990Y-99421790D01*
X183689990Y-105422810D01*
X183747842Y-105713649D01*
X183912589Y-105960211D01*
X185589798Y-107637420D01*
X185836360Y-107802167D01*
X186127199Y-107860019D01*
X189072801Y-107860019D01*
X189363640Y-107802167D01*
X189610202Y-107637420D01*
X190470646Y-106776976D01*
X193250537Y-106776976D01*
X193071732Y-107207587D01*
X193071269Y-107738086D01*
X193273854Y-108228380D01*
X193648647Y-108603827D01*
X193986446Y-108744094D01*
X193650620Y-108882854D01*
X193275173Y-109257647D01*
X193071732Y-109747587D01*
X193071269Y-110278086D01*
X193273854Y-110768380D01*
X193648647Y-111143827D01*
X193970118Y-111277314D01*
X193712071Y-111384200D01*
X193650417Y-111619812D01*
X194405000Y-112374395D01*
X195159583Y-111619812D01*
X195097929Y-111384200D01*
X194818688Y-111285917D01*
X195159380Y-111145146D01*
X195534827Y-110770353D01*
X195738268Y-110280413D01*
X195738731Y-109749914D01*
X195536146Y-109259620D01*
X195161353Y-108884173D01*
X194823554Y-108743906D01*
X195159380Y-108605146D01*
X195534827Y-108230353D01*
X195738268Y-107740413D01*
X195738731Y-107209914D01*
X195559845Y-106776976D01*
X200132134Y-106776976D01*
X196162599Y-110746511D01*
X195997852Y-110993073D01*
X195940000Y-111283912D01*
X195940000Y-118225532D01*
X195828800Y-117957071D01*
X195593188Y-117895417D01*
X194838605Y-118650000D01*
X195593188Y-119404583D01*
X195640001Y-119392333D01*
X195640001Y-120285213D01*
X195415353Y-120060173D01*
X195093882Y-119926686D01*
X195351929Y-119819800D01*
X195413583Y-119584188D01*
X194659000Y-118829605D01*
X193904417Y-119584188D01*
X193966071Y-119819800D01*
X194245312Y-119918083D01*
X193904620Y-120058854D01*
X193532826Y-120430000D01*
X188744802Y-120430000D01*
X186271873Y-117957071D01*
X193489200Y-117957071D01*
X193313073Y-118457480D01*
X193341852Y-118987199D01*
X193489200Y-119342929D01*
X193724812Y-119404583D01*
X194479395Y-118650000D01*
X193724812Y-117895417D01*
X193489200Y-117957071D01*
X186271873Y-117957071D01*
X185647654Y-117332852D01*
X194321801Y-117332852D01*
X193966071Y-117480200D01*
X193904417Y-117715812D01*
X194659000Y-118470395D01*
X195413583Y-117715812D01*
X195351929Y-117480200D01*
X194851520Y-117304073D01*
X194321801Y-117332852D01*
X185647654Y-117332852D01*
X180734183Y-112419381D01*
X180746757Y-112389100D01*
X180747242Y-111833339D01*
X180535010Y-111319697D01*
X180142370Y-110926371D01*
X179894968Y-110823641D01*
X180034838Y-110486799D01*
X180034883Y-110434999D01*
X188671197Y-110434999D01*
X193071725Y-114835527D01*
X193071269Y-115358086D01*
X193273854Y-115848380D01*
X193648647Y-116223827D01*
X194138587Y-116427268D01*
X194669086Y-116427731D01*
X195159380Y-116225146D01*
X195534827Y-115850353D01*
X195738268Y-115360413D01*
X195738731Y-114829914D01*
X195536146Y-114339620D01*
X195161353Y-113964173D01*
X194839882Y-113830686D01*
X195097929Y-113723800D01*
X195159583Y-113488188D01*
X194405000Y-112733605D01*
X194390858Y-112747748D01*
X194211253Y-112568143D01*
X194225395Y-112554000D01*
X194584605Y-112554000D01*
X195339188Y-113308583D01*
X195574800Y-113246929D01*
X195750927Y-112746520D01*
X195722148Y-112216801D01*
X195574800Y-111861071D01*
X195339188Y-111799417D01*
X194584605Y-112554000D01*
X194225395Y-112554000D01*
X194225395Y-112554000D01*
X193470812Y-111799417D01*
X193235200Y-111861071D01*
X193059073Y-112361480D01*
X193076985Y-112691183D01*
X189523400Y-109137598D01*
X189276838Y-108972851D01*
X188985999Y-108914999D01*
X178799999Y-108914999D01*
X178509160Y-108972851D01*
X178262598Y-109137598D01*
X177125571Y-110274625D01*
X177125571Y-105890571D01*
X177039174Y-105456225D01*
X176793137Y-105088005D01*
X175886999Y-104181867D01*
X175886999Y-102903865D01*
X176435655Y-103013000D01*
X176500345Y-103013000D01*
X177132155Y-102887325D01*
X177667778Y-102529433D01*
X178025670Y-101993810D01*
X178151345Y-101362000D01*
X178025670Y-100730190D01*
X177798831Y-100390701D01*
X177938927Y-100298673D01*
X178081377Y-100087640D01*
X178131440Y-99838000D01*
X178131440Y-97806000D01*
X178084463Y-97563877D01*
X177944673Y-97351073D01*
X177733640Y-97208623D01*
X177484000Y-97158560D01*
X175886999Y-97158560D01*
X175886999Y-94330533D01*
X178528552Y-91688980D01*
X185792200Y-91688980D01*
X185191091Y-92289041D01*
X184865372Y-93073459D01*
X184864630Y-93922815D01*
X185188980Y-94707800D01*
X185789041Y-95308909D01*
X186573459Y-95634628D01*
X187422815Y-95635370D01*
X188207800Y-95311020D01*
X188808909Y-94710959D01*
X189134628Y-93926541D01*
X189135370Y-93077185D01*
X188811020Y-92292200D01*
X188210959Y-91691091D01*
X187426541Y-91365372D01*
X186577185Y-91364630D01*
X185792200Y-91688980D01*
X178528552Y-91688980D01*
X181552608Y-88664924D01*
X182033489Y-88569271D01*
X182519670Y-88244415D01*
X182730000Y-87929634D01*
X182940330Y-88244415D01*
X183426511Y-88569271D01*
X184000000Y-88683345D01*
X184573489Y-88569271D01*
X185059670Y-88244415D01*
X185270000Y-87929634D01*
X185480330Y-88244415D01*
X185966511Y-88569271D01*
X186540000Y-88683345D01*
X187113489Y-88569271D01*
X187599670Y-88244415D01*
X187810000Y-87929634D01*
X188020330Y-88244415D01*
X188506511Y-88569271D01*
X189080000Y-88683345D01*
X189653489Y-88569271D01*
X190139670Y-88244415D01*
X190350000Y-87929634D01*
X190560330Y-88244415D01*
X191046511Y-88569271D01*
X191620000Y-88683345D01*
X192193489Y-88569271D01*
X192679670Y-88244415D01*
X193004526Y-87758234D01*
X193118600Y-87184745D01*
X193118600Y-87127000D01*
X196660150Y-87127000D01*
X196501400Y-87285750D01*
X196501400Y-88142309D01*
X196598073Y-88375698D01*
X196776701Y-88554327D01*
X197010090Y-88651000D01*
X197714250Y-88651000D01*
X197873000Y-88492250D01*
X197873000Y-87127000D01*
X196660150Y-87127000D01*
X193118600Y-87127000D01*
X193118600Y-86815255D01*
X193039778Y-86418990D01*
X196501400Y-86418990D01*
X196501400Y-86714250D01*
X196501400Y-86714250D01*
G37*
X196501400Y-86714250D02*
X196660150Y-86873000D01*
X197873000Y-86873000D01*
X197873000Y-86853000D01*
X198127000Y-86853000D01*
X198127000Y-86873000D01*
X198147000Y-86873000D01*
X198147000Y-87127000D01*
X198127000Y-87127000D01*
X198127000Y-88492250D01*
X198285750Y-88651000D01*
X198989910Y-88651000D01*
X199223299Y-88554327D01*
X199401927Y-88375698D01*
X199405000Y-88368279D01*
X199405000Y-91356608D01*
X194536609Y-96224999D01*
X193078399Y-96224999D01*
X192644053Y-96311396D01*
X192375498Y-96490839D01*
X192275833Y-96557433D01*
X192135833Y-96697433D01*
X191889796Y-97065653D01*
X191803399Y-97499999D01*
X191803399Y-99075380D01*
X187239389Y-103639391D01*
X186939390Y-103939390D01*
X186693353Y-104307611D01*
X186606956Y-104741956D01*
X186693353Y-105176301D01*
X186939390Y-105544522D01*
X187307611Y-105790559D01*
X187741956Y-105876956D01*
X188176301Y-105790559D01*
X188544522Y-105544522D01*
X188844521Y-105244523D01*
X193397846Y-100691199D01*
X193638400Y-100739440D01*
X195365600Y-100739440D01*
X195607723Y-100692463D01*
X195820527Y-100552673D01*
X195962977Y-100341640D01*
X195970718Y-100303037D01*
X195982330Y-100320415D01*
X196468511Y-100645271D01*
X197042000Y-100759345D01*
X197615489Y-100645271D01*
X198101670Y-100320415D01*
X198312000Y-100005634D01*
X198522330Y-100320415D01*
X199008511Y-100645271D01*
X199582000Y-100759345D01*
X200155489Y-100645271D01*
X200641670Y-100320415D01*
X200966526Y-99834234D01*
X201080600Y-99260745D01*
X201080600Y-98891255D01*
X200966526Y-98317766D01*
X200641670Y-97831585D01*
X200155489Y-97506729D01*
X199582000Y-97392655D01*
X199008511Y-97506729D01*
X198522330Y-97831585D01*
X198312000Y-98146366D01*
X198101670Y-97831585D01*
X197615489Y-97506729D01*
X197042000Y-97392655D01*
X196468511Y-97506729D01*
X196458361Y-97513511D01*
X201342566Y-92629306D01*
X201372662Y-92584264D01*
X201560513Y-92303125D01*
X201597852Y-92490839D01*
X201762599Y-92737401D01*
X206864878Y-97839680D01*
X206864838Y-97885167D01*
X207006883Y-98228943D01*
X207269673Y-98492192D01*
X207385083Y-98540115D01*
X202885198Y-103040000D01*
X193462463Y-103040000D01*
X193430327Y-103007808D01*
X193086799Y-102865162D01*
X192714833Y-102864838D01*
X192371057Y-103006883D01*
X192107808Y-103269673D01*
X191965162Y-103613201D01*
X191964838Y-103985167D01*
X192106883Y-104328943D01*
X192369673Y-104592192D01*
X192713201Y-104734838D01*
X193085167Y-104735162D01*
X193428943Y-104593117D01*
X193462118Y-104560000D01*
X201001608Y-104560000D01*
X200754642Y-104806966D01*
X189969444Y-104806966D01*
X189678605Y-104864818D01*
X189432043Y-105029565D01*
X188571599Y-105890009D01*
X186628401Y-105890009D01*
X185660000Y-104921608D01*
X185660000Y-98700000D01*
X185602148Y-98409161D01*
X185437401Y-98162599D01*
X181837401Y-94562599D01*
X181590839Y-94397852D01*
X181300000Y-94340000D01*
X177562463Y-94340000D01*
X177530327Y-94307808D01*
X177186799Y-94165162D01*
X176814833Y-94164838D01*
X176471057Y-94306883D01*
X176207808Y-94569673D01*
X176065162Y-94913201D01*
X176064838Y-95285167D01*
X176206883Y-95628943D01*
X176360727Y-95783056D01*
X176265162Y-96013201D01*
X176264838Y-96385167D01*
X176406883Y-96728943D01*
X176669673Y-96992192D01*
X177013201Y-97134838D01*
X177385167Y-97135162D01*
X177728943Y-96993117D01*
X177762118Y-96960000D01*
X181228200Y-96960000D01*
X181680760Y-97412560D01*
X180786000Y-97412560D01*
X180543877Y-97459537D01*
X180331073Y-97599327D01*
X180188623Y-97810360D01*
X180138560Y-98060000D01*
X180138560Y-100092000D01*
X180185537Y-100334123D01*
X180325327Y-100546927D01*
X180470860Y-100645164D01*
X180244330Y-100984190D01*
X180118655Y-101616000D01*
X180244330Y-102247810D01*
X180602222Y-102783433D01*
X181137845Y-103141325D01*
X181769655Y-103267000D01*
X181834345Y-103267000D01*
X182466155Y-103141325D01*
X183001778Y-102783433D01*
X183359670Y-102247810D01*
X183485345Y-101616000D01*
X183359670Y-100984190D01*
X183132831Y-100644701D01*
X183272927Y-100552673D01*
X183415377Y-100341640D01*
X183465440Y-100092000D01*
X183465440Y-99197240D01*
X183689990Y-99421790D01*
X183689990Y-105422810D01*
X183747842Y-105713649D01*
X183912589Y-105960211D01*
X185589798Y-107637420D01*
X185836360Y-107802167D01*
X186127199Y-107860019D01*
X189072801Y-107860019D01*
X189363640Y-107802167D01*
X189610202Y-107637420D01*
X190470646Y-106776976D01*
X193250537Y-106776976D01*
X193071732Y-107207587D01*
X193071269Y-107738086D01*
X193273854Y-108228380D01*
X193648647Y-108603827D01*
X193986446Y-108744094D01*
X193650620Y-108882854D01*
X193275173Y-109257647D01*
X193071732Y-109747587D01*
X193071269Y-110278086D01*
X193273854Y-110768380D01*
X193648647Y-111143827D01*
X193970118Y-111277314D01*
X193712071Y-111384200D01*
X193650417Y-111619812D01*
X194405000Y-112374395D01*
X195159583Y-111619812D01*
X195097929Y-111384200D01*
X194818688Y-111285917D01*
X195159380Y-111145146D01*
X195534827Y-110770353D01*
X195738268Y-110280413D01*
X195738731Y-109749914D01*
X195536146Y-109259620D01*
X195161353Y-108884173D01*
X194823554Y-108743906D01*
X195159380Y-108605146D01*
X195534827Y-108230353D01*
X195738268Y-107740413D01*
X195738731Y-107209914D01*
X195559845Y-106776976D01*
X200132134Y-106776976D01*
X196162599Y-110746511D01*
X195997852Y-110993073D01*
X195940000Y-111283912D01*
X195940000Y-118225532D01*
X195828800Y-117957071D01*
X195593188Y-117895417D01*
X194838605Y-118650000D01*
X195593188Y-119404583D01*
X195640001Y-119392333D01*
X195640001Y-120285213D01*
X195415353Y-120060173D01*
X195093882Y-119926686D01*
X195351929Y-119819800D01*
X195413583Y-119584188D01*
X194659000Y-118829605D01*
X193904417Y-119584188D01*
X193966071Y-119819800D01*
X194245312Y-119918083D01*
X193904620Y-120058854D01*
X193532826Y-120430000D01*
X188744802Y-120430000D01*
X186271873Y-117957071D01*
X193489200Y-117957071D01*
X193313073Y-118457480D01*
X193341852Y-118987199D01*
X193489200Y-119342929D01*
X193724812Y-119404583D01*
X194479395Y-118650000D01*
X193724812Y-117895417D01*
X193489200Y-117957071D01*
X186271873Y-117957071D01*
X185647654Y-117332852D01*
X194321801Y-117332852D01*
X193966071Y-117480200D01*
X193904417Y-117715812D01*
X194659000Y-118470395D01*
X195413583Y-117715812D01*
X195351929Y-117480200D01*
X194851520Y-117304073D01*
X194321801Y-117332852D01*
X185647654Y-117332852D01*
X180734183Y-112419381D01*
X180746757Y-112389100D01*
X180747242Y-111833339D01*
X180535010Y-111319697D01*
X180142370Y-110926371D01*
X179894968Y-110823641D01*
X180034838Y-110486799D01*
X180034883Y-110434999D01*
X188671197Y-110434999D01*
X193071725Y-114835527D01*
X193071269Y-115358086D01*
X193273854Y-115848380D01*
X193648647Y-116223827D01*
X194138587Y-116427268D01*
X194669086Y-116427731D01*
X195159380Y-116225146D01*
X195534827Y-115850353D01*
X195738268Y-115360413D01*
X195738731Y-114829914D01*
X195536146Y-114339620D01*
X195161353Y-113964173D01*
X194839882Y-113830686D01*
X195097929Y-113723800D01*
X195159583Y-113488188D01*
X194405000Y-112733605D01*
X194390858Y-112747748D01*
X194211253Y-112568143D01*
X194225395Y-112554000D01*
X194584605Y-112554000D01*
X195339188Y-113308583D01*
X195574800Y-113246929D01*
X195750927Y-112746520D01*
X195722148Y-112216801D01*
X195574800Y-111861071D01*
X195339188Y-111799417D01*
X194584605Y-112554000D01*
X194225395Y-112554000D01*
X194225395Y-112554000D01*
X193470812Y-111799417D01*
X193235200Y-111861071D01*
X193059073Y-112361480D01*
X193076985Y-112691183D01*
X189523400Y-109137598D01*
X189276838Y-108972851D01*
X188985999Y-108914999D01*
X178799999Y-108914999D01*
X178509160Y-108972851D01*
X178262598Y-109137598D01*
X177125571Y-110274625D01*
X177125571Y-105890571D01*
X177039174Y-105456225D01*
X176793137Y-105088005D01*
X175886999Y-104181867D01*
X175886999Y-102903865D01*
X176435655Y-103013000D01*
X176500345Y-103013000D01*
X177132155Y-102887325D01*
X177667778Y-102529433D01*
X178025670Y-101993810D01*
X178151345Y-101362000D01*
X178025670Y-100730190D01*
X177798831Y-100390701D01*
X177938927Y-100298673D01*
X178081377Y-100087640D01*
X178131440Y-99838000D01*
X178131440Y-97806000D01*
X178084463Y-97563877D01*
X177944673Y-97351073D01*
X177733640Y-97208623D01*
X177484000Y-97158560D01*
X175886999Y-97158560D01*
X175886999Y-94330533D01*
X178528552Y-91688980D01*
X185792200Y-91688980D01*
X185191091Y-92289041D01*
X184865372Y-93073459D01*
X184864630Y-93922815D01*
X185188980Y-94707800D01*
X185789041Y-95308909D01*
X186573459Y-95634628D01*
X187422815Y-95635370D01*
X188207800Y-95311020D01*
X188808909Y-94710959D01*
X189134628Y-93926541D01*
X189135370Y-93077185D01*
X188811020Y-92292200D01*
X188210959Y-91691091D01*
X187426541Y-91365372D01*
X186577185Y-91364630D01*
X185792200Y-91688980D01*
X178528552Y-91688980D01*
X181552608Y-88664924D01*
X182033489Y-88569271D01*
X182519670Y-88244415D01*
X182730000Y-87929634D01*
X182940330Y-88244415D01*
X183426511Y-88569271D01*
X184000000Y-88683345D01*
X184573489Y-88569271D01*
X185059670Y-88244415D01*
X185270000Y-87929634D01*
X185480330Y-88244415D01*
X185966511Y-88569271D01*
X186540000Y-88683345D01*
X187113489Y-88569271D01*
X187599670Y-88244415D01*
X187810000Y-87929634D01*
X188020330Y-88244415D01*
X188506511Y-88569271D01*
X189080000Y-88683345D01*
X189653489Y-88569271D01*
X190139670Y-88244415D01*
X190350000Y-87929634D01*
X190560330Y-88244415D01*
X191046511Y-88569271D01*
X191620000Y-88683345D01*
X192193489Y-88569271D01*
X192679670Y-88244415D01*
X193004526Y-87758234D01*
X193118600Y-87184745D01*
X193118600Y-87127000D01*
X196660150Y-87127000D01*
X196501400Y-87285750D01*
X196501400Y-88142309D01*
X196598073Y-88375698D01*
X196776701Y-88554327D01*
X197010090Y-88651000D01*
X197714250Y-88651000D01*
X197873000Y-88492250D01*
X197873000Y-87127000D01*
X196660150Y-87127000D01*
X193118600Y-87127000D01*
X193118600Y-86815255D01*
X193039778Y-86418990D01*
X196501400Y-86418990D01*
X196501400Y-86714250D01*
G36*
X259501400Y-86714250D02*
X259660150Y-86873000D01*
X260873000Y-86873000D01*
X260873000Y-86853000D01*
X261127000Y-86853000D01*
X261127000Y-86873000D01*
X263413000Y-86873000D01*
X263413000Y-86853000D01*
X263667000Y-86853000D01*
X263667000Y-86873000D01*
X263687000Y-86873000D01*
X263687000Y-87127000D01*
X263667000Y-87127000D01*
X263667000Y-87147000D01*
X263413000Y-87147000D01*
X263413000Y-87127000D01*
X261127000Y-87127000D01*
X261127000Y-87147000D01*
X260873000Y-87147000D01*
X260873000Y-87127000D01*
X259660150Y-87127000D01*
X259501400Y-87285750D01*
X259501400Y-87989910D01*
X259598073Y-88223299D01*
X259776702Y-88401927D01*
X259932023Y-88466263D01*
X259910971Y-88480330D01*
X259586115Y-88966511D01*
X259472041Y-89540000D01*
X259547225Y-89917973D01*
X253385175Y-96080023D01*
X253220428Y-96326585D01*
X253162576Y-96617424D01*
X253162576Y-101912517D01*
X253130384Y-101944653D01*
X252987738Y-102288181D01*
X252987606Y-102440000D01*
X247235031Y-102440000D01*
X247235162Y-102289813D01*
X247093117Y-101946037D01*
X246830327Y-101682788D01*
X246754027Y-101651105D01*
X251802566Y-96602566D01*
X252048603Y-96234346D01*
X252071626Y-96118600D01*
X252135000Y-95800000D01*
X252135000Y-95750716D01*
X252199778Y-95707433D01*
X252557670Y-95171810D01*
X252683345Y-94540000D01*
X252557670Y-93908190D01*
X252330831Y-93568701D01*
X252470927Y-93476673D01*
X252613377Y-93265640D01*
X252663440Y-93016000D01*
X252663440Y-90984000D01*
X252616463Y-90741877D01*
X252476673Y-90529073D01*
X252265640Y-90386623D01*
X252016000Y-90336560D01*
X249984000Y-90336560D01*
X249741877Y-90383537D01*
X249529073Y-90523327D01*
X249386623Y-90734360D01*
X249336560Y-90984000D01*
X249336560Y-93016000D01*
X249383537Y-93258123D01*
X249523327Y-93470927D01*
X249668860Y-93569164D01*
X249442330Y-93908190D01*
X249316655Y-94540000D01*
X249442330Y-95171810D01*
X249674937Y-95519931D01*
X244197434Y-100997434D01*
X243951397Y-101365655D01*
X243865000Y-101800000D01*
X243882896Y-101889971D01*
X238964773Y-101889971D01*
X235635122Y-98560320D01*
X235635162Y-98514833D01*
X235493117Y-98171057D01*
X235230327Y-97907808D01*
X234886799Y-97765162D01*
X234514833Y-97764838D01*
X234171057Y-97906883D01*
X233907808Y-98169673D01*
X233765162Y-98513201D01*
X233764838Y-98885167D01*
X233906883Y-99228943D01*
X234169673Y-99492192D01*
X234513201Y-99634838D01*
X234560077Y-99634879D01*
X237365198Y-102440000D01*
X226614802Y-102440000D01*
X226435122Y-102260320D01*
X226435162Y-102214833D01*
X226293117Y-101871057D01*
X226030327Y-101607808D01*
X225686799Y-101465162D01*
X225314833Y-101464838D01*
X224971057Y-101606883D01*
X224707808Y-101869673D01*
X224565162Y-102213201D01*
X224564838Y-102585167D01*
X224706883Y-102928943D01*
X224867669Y-103090010D01*
X219618990Y-103090010D01*
X219328151Y-103147862D01*
X219081589Y-103312609D01*
X203612385Y-118781813D01*
X203612731Y-118385914D01*
X203410146Y-117895620D01*
X203035353Y-117520173D01*
X202988360Y-117500660D01*
X223782137Y-96706883D01*
X224671057Y-96706883D01*
X224407808Y-96969673D01*
X224265162Y-97313201D01*
X224264838Y-97685167D01*
X224406883Y-98028943D01*
X224669673Y-98292192D01*
X225013201Y-98434838D01*
X225060077Y-98434879D01*
X225640000Y-99014802D01*
X225640000Y-99537537D01*
X225607808Y-99569673D01*
X225465162Y-99913201D01*
X225464838Y-100285167D01*
X225606883Y-100628943D01*
X225869673Y-100892192D01*
X226213201Y-101034838D01*
X226585167Y-101035162D01*
X226928943Y-100893117D01*
X227192192Y-100630327D01*
X227334838Y-100286799D01*
X227335162Y-99914833D01*
X227193117Y-99571057D01*
X227160000Y-99537882D01*
X227160000Y-98700000D01*
X227119602Y-98496909D01*
X227102148Y-98409160D01*
X226937401Y-98162599D01*
X226135122Y-97360320D01*
X226135162Y-97314833D01*
X225993117Y-96971057D01*
X225730327Y-96707808D01*
X225386799Y-96565162D01*
X225014833Y-96564838D01*
X224671057Y-96706883D01*
X223782137Y-96706883D01*
X225414999Y-95074021D01*
X225414999Y-95800001D01*
X225472851Y-96090840D01*
X225637598Y-96337402D01*
X225962598Y-96662402D01*
X226209159Y-96827149D01*
X226257413Y-96836747D01*
X226499999Y-96885001D01*
X234974999Y-96885001D01*
X235265838Y-96827149D01*
X235512400Y-96662402D01*
X237339680Y-94835122D01*
X237385167Y-94835162D01*
X237728943Y-94693117D01*
X237992192Y-94430327D01*
X238134838Y-94086799D01*
X238135162Y-93714833D01*
X237993117Y-93371057D01*
X237730327Y-93107808D01*
X237386799Y-92965162D01*
X237014833Y-92964838D01*
X236671057Y-93106883D01*
X236407808Y-93369673D01*
X236265162Y-93713201D01*
X236265121Y-93760077D01*
X234660197Y-95365001D01*
X228009801Y-95365001D01*
X232023801Y-91351001D01*
X232188548Y-91104440D01*
X232205278Y-91020330D01*
X232246400Y-90813600D01*
X232246400Y-90714802D01*
X234602202Y-88359000D01*
X234675727Y-88470927D01*
X234886760Y-88613377D01*
X235136400Y-88663440D01*
X236863600Y-88663440D01*
X237105723Y-88616463D01*
X237318527Y-88476673D01*
X237460977Y-88265640D01*
X237468718Y-88227037D01*
X237480330Y-88244415D01*
X237966511Y-88569271D01*
X238540000Y-88683345D01*
X239113489Y-88569271D01*
X239599670Y-88244415D01*
X239810000Y-87929634D01*
X240020330Y-88244415D01*
X240506511Y-88569271D01*
X241080000Y-88683345D01*
X241653489Y-88569271D01*
X242139670Y-88244415D01*
X242350000Y-87929634D01*
X242560330Y-88244415D01*
X243046511Y-88569271D01*
X243620000Y-88683345D01*
X244193489Y-88569271D01*
X244679670Y-88244415D01*
X245004526Y-87758234D01*
X245118600Y-87184745D01*
X245118600Y-86815255D01*
X245039778Y-86418990D01*
X259501400Y-86418990D01*
X259501400Y-86714250D01*
X259501400Y-86714250D01*
G37*
X259501400Y-86714250D02*
X259660150Y-86873000D01*
X260873000Y-86873000D01*
X260873000Y-86853000D01*
X261127000Y-86853000D01*
X261127000Y-86873000D01*
X263413000Y-86873000D01*
X263413000Y-86853000D01*
X263667000Y-86853000D01*
X263667000Y-86873000D01*
X263687000Y-86873000D01*
X263687000Y-87127000D01*
X263667000Y-87127000D01*
X263667000Y-87147000D01*
X263413000Y-87147000D01*
X263413000Y-87127000D01*
X261127000Y-87127000D01*
X261127000Y-87147000D01*
X260873000Y-87147000D01*
X260873000Y-87127000D01*
X259660150Y-87127000D01*
X259501400Y-87285750D01*
X259501400Y-87989910D01*
X259598073Y-88223299D01*
X259776702Y-88401927D01*
X259932023Y-88466263D01*
X259910971Y-88480330D01*
X259586115Y-88966511D01*
X259472041Y-89540000D01*
X259547225Y-89917973D01*
X253385175Y-96080023D01*
X253220428Y-96326585D01*
X253162576Y-96617424D01*
X253162576Y-101912517D01*
X253130384Y-101944653D01*
X252987738Y-102288181D01*
X252987606Y-102440000D01*
X247235031Y-102440000D01*
X247235162Y-102289813D01*
X247093117Y-101946037D01*
X246830327Y-101682788D01*
X246754027Y-101651105D01*
X251802566Y-96602566D01*
X252048603Y-96234346D01*
X252071626Y-96118600D01*
X252135000Y-95800000D01*
X252135000Y-95750716D01*
X252199778Y-95707433D01*
X252557670Y-95171810D01*
X252683345Y-94540000D01*
X252557670Y-93908190D01*
X252330831Y-93568701D01*
X252470927Y-93476673D01*
X252613377Y-93265640D01*
X252663440Y-93016000D01*
X252663440Y-90984000D01*
X252616463Y-90741877D01*
X252476673Y-90529073D01*
X252265640Y-90386623D01*
X252016000Y-90336560D01*
X249984000Y-90336560D01*
X249741877Y-90383537D01*
X249529073Y-90523327D01*
X249386623Y-90734360D01*
X249336560Y-90984000D01*
X249336560Y-93016000D01*
X249383537Y-93258123D01*
X249523327Y-93470927D01*
X249668860Y-93569164D01*
X249442330Y-93908190D01*
X249316655Y-94540000D01*
X249442330Y-95171810D01*
X249674937Y-95519931D01*
X244197434Y-100997434D01*
X243951397Y-101365655D01*
X243865000Y-101800000D01*
X243882896Y-101889971D01*
X238964773Y-101889971D01*
X235635122Y-98560320D01*
X235635162Y-98514833D01*
X235493117Y-98171057D01*
X235230327Y-97907808D01*
X234886799Y-97765162D01*
X234514833Y-97764838D01*
X234171057Y-97906883D01*
X233907808Y-98169673D01*
X233765162Y-98513201D01*
X233764838Y-98885167D01*
X233906883Y-99228943D01*
X234169673Y-99492192D01*
X234513201Y-99634838D01*
X234560077Y-99634879D01*
X237365198Y-102440000D01*
X226614802Y-102440000D01*
X226435122Y-102260320D01*
X226435162Y-102214833D01*
X226293117Y-101871057D01*
X226030327Y-101607808D01*
X225686799Y-101465162D01*
X225314833Y-101464838D01*
X224971057Y-101606883D01*
X224707808Y-101869673D01*
X224565162Y-102213201D01*
X224564838Y-102585167D01*
X224706883Y-102928943D01*
X224867669Y-103090010D01*
X219618990Y-103090010D01*
X219328151Y-103147862D01*
X219081589Y-103312609D01*
X203612385Y-118781813D01*
X203612731Y-118385914D01*
X203410146Y-117895620D01*
X203035353Y-117520173D01*
X202988360Y-117500660D01*
X223782137Y-96706883D01*
X224671057Y-96706883D01*
X224407808Y-96969673D01*
X224265162Y-97313201D01*
X224264838Y-97685167D01*
X224406883Y-98028943D01*
X224669673Y-98292192D01*
X225013201Y-98434838D01*
X225060077Y-98434879D01*
X225640000Y-99014802D01*
X225640000Y-99537537D01*
X225607808Y-99569673D01*
X225465162Y-99913201D01*
X225464838Y-100285167D01*
X225606883Y-100628943D01*
X225869673Y-100892192D01*
X226213201Y-101034838D01*
X226585167Y-101035162D01*
X226928943Y-100893117D01*
X227192192Y-100630327D01*
X227334838Y-100286799D01*
X227335162Y-99914833D01*
X227193117Y-99571057D01*
X227160000Y-99537882D01*
X227160000Y-98700000D01*
X227119602Y-98496909D01*
X227102148Y-98409160D01*
X226937401Y-98162599D01*
X226135122Y-97360320D01*
X226135162Y-97314833D01*
X225993117Y-96971057D01*
X225730327Y-96707808D01*
X225386799Y-96565162D01*
X225014833Y-96564838D01*
X224671057Y-96706883D01*
X223782137Y-96706883D01*
X225414999Y-95074021D01*
X225414999Y-95800001D01*
X225472851Y-96090840D01*
X225637598Y-96337402D01*
X225962598Y-96662402D01*
X226209159Y-96827149D01*
X226257413Y-96836747D01*
X226499999Y-96885001D01*
X234974999Y-96885001D01*
X235265838Y-96827149D01*
X235512400Y-96662402D01*
X237339680Y-94835122D01*
X237385167Y-94835162D01*
X237728943Y-94693117D01*
X237992192Y-94430327D01*
X238134838Y-94086799D01*
X238135162Y-93714833D01*
X237993117Y-93371057D01*
X237730327Y-93107808D01*
X237386799Y-92965162D01*
X237014833Y-92964838D01*
X236671057Y-93106883D01*
X236407808Y-93369673D01*
X236265162Y-93713201D01*
X236265121Y-93760077D01*
X234660197Y-95365001D01*
X228009801Y-95365001D01*
X232023801Y-91351001D01*
X232188548Y-91104440D01*
X232205278Y-91020330D01*
X232246400Y-90813600D01*
X232246400Y-90714802D01*
X234602202Y-88359000D01*
X234675727Y-88470927D01*
X234886760Y-88613377D01*
X235136400Y-88663440D01*
X236863600Y-88663440D01*
X237105723Y-88616463D01*
X237318527Y-88476673D01*
X237460977Y-88265640D01*
X237468718Y-88227037D01*
X237480330Y-88244415D01*
X237966511Y-88569271D01*
X238540000Y-88683345D01*
X239113489Y-88569271D01*
X239599670Y-88244415D01*
X239810000Y-87929634D01*
X240020330Y-88244415D01*
X240506511Y-88569271D01*
X241080000Y-88683345D01*
X241653489Y-88569271D01*
X242139670Y-88244415D01*
X242350000Y-87929634D01*
X242560330Y-88244415D01*
X243046511Y-88569271D01*
X243620000Y-88683345D01*
X244193489Y-88569271D01*
X244679670Y-88244415D01*
X245004526Y-87758234D01*
X245118600Y-87184745D01*
X245118600Y-86815255D01*
X245039778Y-86418990D01*
X259501400Y-86418990D01*
X259501400Y-86714250D01*
M02*
